<svg width="211" height="118" viewBox="0 0 211 118" fill="none" xmlns="http://www.w3.org/2000/svg">
<path opacity="0.09" d="M131.664 117.17C88.0157 117.17 52.6321 114.443 52.6321 111.079C52.6321 107.716 88.0157 104.989 131.664 104.989C175.312 104.989 210.695 107.716 210.695 111.079C210.695 114.443 175.312 117.17 131.664 117.17Z" fill="#10566D"/>
<path d="M38.2815 6.25219C38.2815 6.25219 41.0061 0.778809 39.4491 0.778809C37.8921 0.778809 34.3893 3.97171 34.3893 3.97171C34.3893 3.97171 35.9463 8.07657 38.2815 6.25219Z" fill="#FFC648"/>
<path d="M13.4828 6.79028C13.4828 6.79028 10.7582 1.31689 12.3152 1.31689C13.8722 1.31689 17.375 4.50981 17.375 4.50981C17.375 4.50981 15.8183 8.61465 13.4828 6.79028Z" fill="#FFC648"/>
<path d="M13.3389 10.1736C13.3389 10.1736 11.1981 3.63591 0.883741 5.30842C0.883741 5.30842 1.85663 15.4951 12.3657 16.1033C12.3657 16.1033 14.7012 12.1501 13.3389 10.1736Z" fill="#09323D"/>
<path d="M6.08681 9.84977C4.68904 8.60489 2.93893 7.65946 1.16045 6.74072C1.8055 9.30729 3.89441 14.5457 10.2969 15.8362C9.27337 13.6778 8.03259 11.5827 6.08681 9.84977Z" fill="#FF8021"/>
<path opacity="0.19" d="M7.5887 11.4204C7.57129 12.4555 6.13678 13.2425 4.79639 13.0965C6.13194 14.3287 7.91525 15.356 10.2969 15.836C9.56575 14.2947 8.71858 12.7884 7.5887 11.4204Z" fill="#10566D"/>
<path d="M79.694 50.7343C79.694 50.7343 87.4643 81.3759 88.2044 86.0011C88.9446 90.6263 88.2044 102.189 88.2044 102.189C88.2044 102.189 83.3941 105.08 84.1343 108.26H94.1246C94.1246 108.26 93.0147 104.502 95.2345 103.924C97.4546 103.346 99.3047 54.7814 99.3047 54.7814C99.3047 54.7814 84.8741 42.9293 79.694 50.7343Z" fill="white"/>
<path opacity="0.08" d="M97.0452 93.5711C98.3763 79.1529 99.3047 54.7814 99.3047 54.7814C99.3047 54.7814 84.8741 42.9293 79.694 50.7343C79.694 50.7343 86.3289 76.8991 87.9201 84.521C91.0009 87.5139 94.064 90.5195 97.0452 93.5711Z" fill="#60D5EF"/>
<path d="M162.336 112.255C162.336 112.255 162.337 109.447 165.714 108.274L171.154 90.1015C171.154 90.1015 159.523 59.4714 158.96 57.8594C158.397 56.2473 154.083 46.7212 160.836 42.3245C160.836 42.3245 186.271 36.7801 191.469 44.9014C191.469 44.9014 182.409 70.0233 182.972 73.8337C183.535 77.6442 185.598 80.2823 185.411 81.6012C185.223 82.9201 173.03 108.714 173.03 108.714C173.03 108.714 170.778 108.861 170.778 109.447C170.778 110.033 170.966 112.256 170.966 112.256L162.336 112.255Z" fill="white"/>
<path opacity="0.22" d="M169.767 86.447C172.969 89.3085 176.211 92.1435 179.466 94.971C182.43 88.5809 185.32 82.2379 185.411 81.6012C185.598 80.2823 183.535 77.6442 182.972 73.8337C182.409 70.0233 191.469 44.9014 191.469 44.9014C186.272 36.7801 160.836 42.3245 160.836 42.3245C154.083 46.7209 158.397 56.247 158.96 57.8594C159.402 59.1246 166.665 78.2738 169.767 86.447Z" fill="#ACEFFF"/>
<path d="M163.52 78.9513C154.35 78.9513 146.916 73.0415 146.916 65.7513C146.916 58.4611 154.35 52.5513 163.52 52.5513C172.691 52.5513 180.125 58.4611 180.125 65.7513C180.125 73.0415 172.691 78.9513 163.52 78.9513Z" fill="#FF8021"/>
<path opacity="0.19" d="M152.069 75.2933C161.861 72.5162 171.148 68.8261 180.055 64.6198C179.331 57.8604 172.212 52.5513 163.522 52.5513C154.352 52.5513 146.917 58.4611 146.917 65.7513C146.917 69.5076 148.901 72.8894 152.069 75.2933Z" fill="#10566D"/>
<path d="M151.946 74.4287C151.946 74.4287 149.182 79.1808 151.025 79.0367C152.868 78.8927 154.711 75.8687 154.711 75.8687C154.711 75.8687 151.946 73.7087 151.946 74.4287Z" fill="#FF8021"/>
<path d="M159.697 77.5708C159.697 77.5708 159.515 82.7888 161.142 82.096C162.768 81.4034 162.961 78.0573 162.961 78.0573C162.961 78.0573 159.339 76.9077 159.697 77.5708Z" fill="#FF8021"/>
<path d="M170.058 77.3654C170.058 77.3654 173.611 81.786 174.473 80.5049C175.335 79.2237 173.12 76.356 173.12 76.356C173.12 76.356 169.289 76.9687 170.058 77.3654Z" fill="#FF8021"/>
<path d="M197.018 16.5726C190.728 11.0803 64.923 14.8381 64.923 14.8381L40.8721 8.47849C39.7622 7.90025 28.2919 24.0884 29.7719 26.9791C29.7719 26.9791 48.2726 55.0192 50.1227 56.4646C50.1227 56.4646 81.9438 79.8795 123.015 76.6997C123.015 76.6997 173.337 75.2544 191.467 44.9016C191.467 44.9016 203.308 22.0649 197.018 16.5726Z" fill="white"/>
<path d="M52.5656 43.1409C54.2751 40.1094 56.5497 38.1725 60.2778 36.6198C63.2181 35.3953 65.8299 33.8276 67.0919 31.3195C68.4868 28.5471 66.9021 26.4352 65.8824 23.8142C65.2506 22.1898 64.9031 20.5941 65.3499 18.916C65.6026 17.9673 66.3302 17.1428 66.5964 16.2177C66.746 15.6984 66.8018 15.2282 66.7947 14.7842C65.5891 14.8182 64.9218 14.8381 64.9218 14.8381L40.8709 8.47849C39.761 7.90025 28.2906 24.0885 29.7706 26.9791C29.7706 26.9791 39.6949 42.0199 45.7324 50.6366C49.2514 50.1299 50.8084 46.2565 52.5656 43.1409Z" fill="#09323D"/>
<path d="M91.0329 30.8109C97.0779 36.5782 103.829 43.1053 113.981 38.1686C117.447 36.4833 120.507 34.3622 124.308 33.1143C126.906 32.2611 129.689 31.8654 132.426 31.3466C133.636 30.961 134.876 30.6699 136.113 30.5017C136.191 30.4793 136.271 30.4616 136.349 30.4384C146.154 27.5374 147.002 20.5479 147.406 13.5881C122.621 13.5264 94.5902 14.0918 78.4188 14.4825C77.9633 17.8267 77.2883 21.484 80.8246 23.9763C84.2758 26.4086 87.9969 27.9142 91.0329 30.8109Z" fill="#09323D"/>
<path d="M155.884 17.1571C157.875 18.9057 160.556 19.8541 162.473 21.7314C164.638 23.851 166.159 26.4412 169.317 27.7989C172.659 29.2354 175.44 28.0238 178.725 27.1081C181.63 26.2981 183.867 26.1815 186.952 26.5001C191.334 26.9527 194.175 25.8126 197.055 23.2359C197.682 22.6753 198.262 22.0963 198.844 21.5226C198.781 19.4071 198.253 17.651 197.016 16.5711C194.701 14.5498 176.198 13.7816 153.738 13.6177C154.121 14.9051 154.713 16.1283 155.884 17.1571Z" fill="#09323D"/>
<path d="M76.5379 40.4076C75.2001 42.9926 77.0418 44.7553 79.0511 46.9126C80.3019 48.2554 81.4562 49.872 83.0636 50.9794C87.0106 53.6988 91.1636 49.4874 91.8712 46.5174C93.3624 40.2578 81.5168 34.0377 76.5379 40.4076Z" fill="#09323D"/>
<path d="M70.0272 65.4981C69.545 62.0264 66.9197 61.9883 63.6999 60.7009C57.7581 58.325 56.4509 51.9787 48.4318 54.3957C49.2628 55.5134 49.8634 56.2591 50.1258 56.4641C50.1258 56.4641 57.6404 61.9818 70.0566 67.2965C70.1114 66.6898 70.1088 66.0861 70.0272 65.4981Z" fill="#2B253E"/>
<path d="M66.0296 53.8622C66.0296 53.8622 73.7999 84.5039 74.54 89.129C75.2802 93.7542 74.54 105.317 74.54 105.317C74.54 105.317 69.7297 108.208 70.4699 111.388H80.4602C80.4602 111.388 79.3503 107.63 81.5705 107.052C83.7906 106.473 85.6406 57.9094 85.6406 57.9094C85.6406 57.9094 71.21 46.0572 66.0296 53.8622Z" fill="white"/>
<path d="M188.568 112.067C188.568 112.067 187.737 109.334 190.675 107.584L190.59 88.9207C190.59 88.9207 170.21 61.2214 169.186 59.7543C168.161 58.2876 161.144 49.7989 166.414 44.3016C166.414 44.3016 190.537 20.5935 197.997 27.556C197.997 27.556 195.599 67.3536 197.274 70.959C198.949 74.5647 201.738 76.7583 201.946 78.0754C202.154 79.3926 197.924 106.69 197.924 106.69C197.924 106.69 195.777 107.239 195.95 107.809C196.124 108.38 196.964 110.508 196.964 110.508L188.568 112.067Z" fill="white"/>
<path d="M87.9078 102.383C86.8791 103.071 83.5075 105.558 84.1367 108.26H94.1271C94.1271 108.26 93.0172 104.503 95.237 103.924C95.3837 103.886 95.5287 103.633 95.6719 103.203C93.0175 103.204 90.4193 103.11 87.9078 102.383Z" fill="#09323D"/>
<path d="M171.039 109.131C169.289 108.756 167.534 108.399 165.76 108.102L165.709 108.275C162.332 109.447 162.332 112.256 162.332 112.256H170.961C170.961 112.256 170.774 110.033 170.774 109.447C170.774 109.322 170.879 109.218 171.039 109.131Z" fill="#09323D"/>
<path d="M74.5421 105.307C74.5421 105.31 74.5414 105.318 74.5414 105.318C74.5414 105.318 69.7314 108.209 70.4712 111.388H80.4613C80.4613 111.388 79.3514 107.631 81.5715 107.052C81.7482 107.007 81.9226 106.655 82.0938 106.05C79.3433 106.481 77.0629 105.759 74.5421 105.307Z" fill="#09323D"/>
<path d="M196.842 107.045C194.526 107.447 192.17 107.727 189.863 108.17C187.901 109.884 188.558 112.068 188.558 112.068L196.953 110.51C196.953 110.51 196.113 108.381 195.94 107.811C195.854 107.529 196.335 107.253 196.842 107.045Z" fill="#09323D"/>
<path d="M43.0775 14.549C43.0775 14.5474 43.0778 14.5457 43.0778 14.5442C43.0778 14.5336 43.0759 14.5235 43.0759 14.5129C43.0507 13.9329 43.0172 13.5076 42.995 13.263C42.995 13.2623 42.995 13.2613 42.9946 13.2603C42.9808 13.1102 42.9714 13.0238 42.9714 13.0238L42.9489 13.0258C41.9876 6.81197 35.2263 1.99365 27.0135 1.99365C18.1414 1.99365 10.9488 7.61286 10.9488 14.5442C10.9488 15.4047 11.0607 16.2449 11.2718 17.0566C11.6293 19.5771 12.1006 25.189 9.88757 28.5317C6.96825 32.9408 9.10907 38.4142 13.196 39.3264C17.2826 40.2386 32.6571 41.151 38.4954 32.9408C43.0552 26.5291 43.2229 17.9844 43.0775 14.549Z" fill="white"/>
<path d="M10.7082 14.5437C10.7082 15.4042 10.824 16.2444 11.0422 17.0561C11.3965 19.4726 11.8517 24.7248 9.87396 28.1006C12.2243 27.6875 14.3819 26.9761 15.8844 25.3381C18.318 22.6846 18.2019 18.9308 18.18 15.8231C18.1552 12.3118 17.4572 8.78219 15.858 5.47217C12.6908 7.75742 10.7082 10.9725 10.7082 14.5437Z" fill="#09323D"/>
<path d="M43.0763 14.5436C43.0763 14.533 43.0744 14.5229 43.0744 14.5123C43.0492 13.9323 43.0157 13.507 42.9935 13.2624C42.9935 13.2617 42.9935 13.2606 42.9932 13.2596C42.9793 13.1095 42.9699 13.0231 42.9699 13.0231L42.9474 13.0252C42.3626 9.24545 39.6257 5.99059 35.7274 4.01611C32.0724 7.30926 29.234 11.0149 29.4216 15.6295C29.7127 22.7827 31.8187 28.9265 35.248 35.2859C35.4015 35.4393 35.5465 35.5969 35.7061 35.7475C36.7699 34.9572 38.8424 34.592 39.6183 33.5008C44.1778 27.089 44.5405 17.7012 43.076 14.5483C43.0757 14.5466 43.0763 14.5451 43.0763 14.5436Z" fill="#09323D"/>
<path d="M17.4743 27.1637C17.4743 27.1637 25.4534 26.7076 24.4802 31.1167C23.5073 35.5257 19.8095 35.9818 16.6958 35.83C16.6958 35.83 8.91132 36.59 9.88421 30.8127C9.88421 30.8127 9.30041 26.8594 17.4743 27.1637Z" fill="#FF8021"/>
<path opacity="0.19" d="M9.93567 32.7915C10.8683 36.3909 16.6972 35.8288 16.6972 35.8288C19.2126 35.9517 22.1075 35.6749 23.6406 33.2403C20.0859 35.1412 13.8846 34.7383 9.93567 32.7915Z" fill="#10566D"/>
<path d="M29.1562 36.8941C25.8881 37.3394 22.5865 37.5139 19.2787 37.5481C17.6247 37.5524 15.9671 37.5282 14.3117 37.397C13.4849 37.3424 12.658 37.2487 11.8389 37.1192C11.4311 37.0419 11.0226 36.9817 10.6258 36.8624C10.4285 36.8039 10.2251 36.7697 10.0372 36.6921L9.50045 36.438C9.89922 36.5491 10.2719 36.6438 10.6858 36.6765C11.082 36.7397 11.4959 36.7455 11.9021 36.7679C12.7151 36.8115 13.5332 36.8279 14.352 36.8331C15.9883 36.8483 17.6295 36.8414 19.2713 36.8248C22.5565 36.814 25.8443 36.7712 29.1562 36.8941Z" fill="#09323D"/>
<path d="M39.6308 10.3386C39.6308 10.3386 41.7716 3.80095 52.0859 5.47346C52.0859 5.47346 51.113 15.6602 40.604 16.2684C40.604 16.2684 38.2685 12.3151 39.6308 10.3386Z" fill="#09323D"/>
<path d="M49.1433 8.85197C47.2301 9.75938 45.3149 10.5502 43.9694 11.9983C42.8353 13.2192 42.2573 14.7089 41.6635 16.1661C48.2781 15.3242 50.73 10.4822 51.6094 7.60986C50.8151 8.04581 49.9827 8.4538 49.1433 8.85197Z" fill="#FF8021"/>
<path opacity="0.19" d="M46.1602 10.9077C46.4275 10.5667 46.7018 10.2269 46.9793 9.88721C45.8491 10.4622 44.8008 11.1051 43.9704 11.999C42.8363 13.2199 42.2583 14.7096 41.6645 16.1667C44.3508 15.825 46.3414 14.8186 47.8281 13.5571C46.3994 13.3448 45.178 12.1611 46.1602 10.9077Z" fill="#10566D"/>
<path d="M197.016 16.5713C197.016 16.5713 204.046 21.7747 202.566 30.7359C201.086 39.6971 205.156 79.3002 205.156 79.3002L201.086 78.722C201.086 78.722 198.866 32.4704 197.016 28.7123C197.016 28.7123 191.836 15.7039 197.016 16.5713Z" fill="white"/>
<path d="M200.716 77.2778C200.716 77.2778 195.166 78.434 197.756 85.0828L199.236 83.9266C199.236 83.9266 197.386 86.5281 201.826 94.6222C201.826 94.6222 210.336 87.1064 205.156 76.1216L200.716 77.2778Z" fill="#09323D"/>
<path d="M13.875 31.4208C13.875 31.4208 12.6042 28.7734 11.7571 29.7662C10.9099 30.759 13.875 31.4208 13.875 31.4208Z" fill="#09323D"/>
<path d="M19.3774 31.2033C19.3774 31.2033 22.7667 30.2116 21.4963 29.5492C20.2259 28.8871 19.3774 31.2033 19.3774 31.2033Z" fill="#09323D"/>
<path d="M31.1181 18.6283C32.189 18.8774 33.1554 19.0487 34.0487 18.9074C34.4893 18.8409 34.9284 18.7233 35.3401 18.5148C35.5625 18.4314 35.7459 18.2929 35.9716 18.1863C36.1817 18.0639 36.3777 17.9237 36.625 17.8013C36.5502 18.0121 36.4438 18.2186 36.3162 18.4188C36.1521 18.5971 36.0189 18.8074 35.7917 18.9562C35.3984 19.3033 34.8133 19.5204 34.2153 19.6196C33.607 19.703 32.9797 19.6407 32.4446 19.4556C31.9101 19.2736 31.4362 18.9996 31.1181 18.6283Z" fill="white"/>
<path d="M17.2031 18.9585C16.9259 19.2131 16.5126 19.4008 16.0465 19.5254C15.5797 19.6524 15.0333 19.6952 14.5027 19.6378C13.9814 19.57 13.4714 19.4212 13.1284 19.1829C12.9305 19.0809 12.8145 18.9366 12.6713 18.8145C12.5598 18.6772 12.4673 18.5357 12.4022 18.3911C12.6175 18.4752 12.7883 18.5712 12.9718 18.655C13.1684 18.7281 13.3283 18.8233 13.5224 18.8802C13.8815 19.0233 14.2641 19.1038 14.6484 19.1494C15.4266 19.2469 16.2696 19.1295 17.2031 18.9585Z" fill="white"/>
<path d="M174.442 36.1264C170.413 39.712 173.108 45.9739 177.346 49.4091C179.461 51.1239 182.295 52.4151 183.557 54.5835C185.266 57.5216 183.525 61.1242 185.084 64.1126C186.633 67.0829 190.868 68.5122 194.707 69.6505L197.27 70.9609L197.531 33.5055C197.531 33.5055 189.118 28.9047 184.631 35.4772C180.144 42.0499 175.189 35.4611 174.442 36.1264Z" fill="#09323D"/>
<path opacity="0.57" d="M35.7016 35.7481C36.9192 34.8279 38.1393 33.92 39.3695 33.0267C40.5877 32.124 41.8143 31.231 42.9651 30.2931C43.5376 29.8254 44.1066 29.3507 44.5937 28.8465L44.9573 28.4697L45.2555 28.0799C45.3516 27.9497 45.3757 27.8243 45.4502 27.6966C45.5069 27.5586 45.5314 27.3848 45.5721 27.2301C45.8303 25.9508 45.9902 24.6437 46.0695 23.3228C46.3499 24.6293 46.4344 25.9656 46.29 27.3004C46.2648 27.4702 46.2622 27.6281 46.2148 27.8079C46.1449 27.9882 46.0914 28.1935 45.9886 28.3529L45.6694 28.8246C45.5521 28.9719 45.4241 29.1094 45.301 29.2525C44.7936 29.8121 44.212 30.3037 43.6321 30.7953C41.2334 32.6922 38.5723 34.3393 35.7016 35.7481Z" fill="white"/>
<path opacity="0.22" d="M168.152 57.4868C156.098 62.969 141.335 64.8619 128.054 67.7324C114.124 70.7438 99.6517 73.1489 85.1759 71.834C85.1869 72.1158 85.2062 72.3977 85.214 72.6792C96.155 75.7832 109.049 77.7811 123.018 76.6994C123.018 76.6994 150.733 75.8993 172.438 63.0816C171.23 61.0913 169.908 59.1586 168.152 57.4868Z" fill="#ACEFFF"/>
<path d="M115.463 64.1844C118.307 63.6951 121.074 64.1411 123.465 65.416C126.026 66.7817 127.577 68.997 131.061 68.9249C137.775 68.7857 141.777 63.404 146.886 60.8029C151.099 58.6574 160.335 57.7314 159.52 52.4391C158.935 48.6455 151.969 47.865 148.945 45.4866C145.465 42.749 145.795 38.5986 143.022 35.6175C141.656 34.1495 139.838 33.6838 137.854 33.809C136.552 34.154 135.221 34.427 133.884 34.6806C130.48 35.8628 127.118 37.9345 125.037 39.1277C120.392 41.7925 115.762 44.5082 109.827 44.9267C106.812 45.1395 103.786 44.3948 100.822 44.3906C100.815 44.4981 100.805 44.6064 100.773 44.7207C99.2989 50.0601 90.9294 58.0079 95.7197 63.2836C100.619 68.6786 109.3 65.245 115.463 64.1844Z" fill="#09323D"/>
<path d="M167.544 44.3892C167.457 45.2303 167.365 46.0649 167.35 46.9044C167.297 47.7402 167.282 48.5766 167.301 49.4112C167.343 51.0797 167.467 52.7424 167.746 54.3887C167.994 56.0403 168.485 57.6564 169.061 59.2539L169.554 60.4398C169.72 60.8357 169.959 61.2077 170.155 61.5958C170.498 62.3942 171.083 63.0956 171.523 63.8723C170.222 62.5292 169.138 61.0334 168.386 59.4332C167.633 57.8365 167.102 56.1713 166.828 54.4834C166.565 52.7953 166.463 51.0923 166.591 49.3996C166.716 47.709 166.98 46.0211 167.544 44.3892Z" fill="#09323D"/>
<path d="M85.4718 72.0575C84.9454 70.2991 84.702 68.5248 84.5244 66.7471C84.3761 64.9675 84.2961 63.1844 84.5008 61.3853C85.0292 63.1436 85.2729 64.9177 85.4483 66.6957C85.5946 68.4752 85.6746 70.2586 85.4718 72.0575Z" fill="#09323D"/>
<path d="M177.622 72.3696C179.224 73.7515 180.591 75.254 181.901 76.786C183.187 78.3301 184.415 79.9044 185.406 81.6006C183.803 80.2197 182.436 78.7169 181.128 77.1842C179.843 75.6391 178.615 74.0648 177.622 72.3696Z" fill="#09323D"/>
<path opacity="0.25" d="M16.984 29.7948C15.094 29.7948 13.5618 29.3957 13.5618 28.9035C13.5618 28.4112 15.094 28.0122 16.984 28.0122C18.8741 28.0122 20.4062 28.4112 20.4062 28.9035C20.4062 29.3957 18.8741 29.7948 16.984 29.7948Z" fill="white"/>
</svg>
