<svg width="75" height="41" viewBox="0 0 75 41" fill="none" xmlns="http://www.w3.org/2000/svg">
<path opacity="0.09" d="M28.712 40.3716C13.1235 40.3716 0.486465 38.5851 0.486465 36.3814C0.486465 34.1776 13.1235 32.3911 28.712 32.3911C44.3005 32.3911 56.9375 34.1776 56.9375 36.3814C56.9375 38.5851 44.3005 40.3716 28.712 40.3716Z" fill="#10566D"/>
<path d="M19.6846 35.6522C19.6846 35.6522 19.722 34.8032 18.7169 34.4212L17.315 28.8838C17.315 28.8838 21.2394 19.7199 21.4309 19.2373C21.6224 18.7546 23.0537 15.9105 21.0711 14.5263C21.0711 14.5263 13.4569 12.6432 11.7774 15.0557C11.7774 15.0557 14.1806 22.7232 13.9598 23.8703C13.739 25.0175 13.0801 25.7982 13.1191 26.1984C13.1581 26.5986 16.4997 34.4947 16.4997 34.4947C16.4997 34.4947 17.1783 34.5574 17.1702 34.7345C17.1625 34.9115 17.0761 35.5819 17.0761 35.5819L19.6846 35.6522Z" fill="white"/>
<path d="M14.9275 21.4513C14.8302 23.655 16.9984 25.5018 19.7704 25.5766C22.5424 25.6514 24.8682 23.9255 24.9656 21.7218C25.0629 19.5182 22.8947 17.6714 20.1227 17.5966C17.3507 17.522 15.0249 19.2477 14.9275 21.4513Z" fill="#FF8021"/>
<path opacity="0.19" d="M14.932 21.6916C14.9295 21.6115 14.9237 21.5322 14.9275 21.4513C15.0249 19.2477 17.3507 17.522 20.1227 17.5966C22.8947 17.6714 25.0629 19.5182 24.9656 21.7218C24.9211 22.7269 24.4098 23.6298 23.6072 24.3106C20.6098 23.659 17.7382 22.7375 14.932 21.6916Z" fill="#10566D"/>
<path d="M23.3321 24.3031C23.3321 24.3031 24.1045 25.762 23.5491 25.7034C22.994 25.6449 22.4772 24.7159 22.4772 24.7159C22.4772 24.7159 23.3418 24.0852 23.3321 24.3031Z" fill="#FF8021"/>
<path d="M20.9523 25.1902C20.9523 25.1902 20.9374 26.7688 20.4552 26.5464C19.9729 26.3238 19.959 25.3108 19.959 25.3108C19.959 25.3108 21.0696 24.9925 20.9523 25.1902Z" fill="#FF8021"/>
<path d="M18.2024 24.9788C18.2024 24.9788 17.0883 26.296 16.8395 25.9039C16.5903 25.5118 17.286 24.6567 17.286 24.6567C17.286 24.6567 18.4387 24.8633 18.2024 24.9788Z" fill="#FF8021"/>
<path d="M53.0938 18.5764C53.0938 18.5764 50.3363 27.7751 50.0506 29.1673C49.7653 30.5593 49.8347 34.0605 49.8347 34.0605C49.8347 34.0605 51.2502 34.9734 50.9839 35.9287L47.964 35.8473C47.964 35.8473 48.3499 34.7205 47.6864 34.5276C47.023 34.3347 47.112 19.6402 47.112 19.6402C47.112 19.6402 51.6322 16.1751 53.0938 18.5764Z" fill="white"/>
<path d="M46.0547 18.2893C46.0547 18.2893 43.2972 27.4883 43.0116 28.8802C42.7263 30.2722 42.7956 33.7733 42.7956 33.7733C42.7956 33.7733 44.2111 34.6863 43.9448 35.6415L40.9249 35.5602C40.9249 35.5602 41.3105 34.4334 40.6474 34.2405C39.9843 34.0476 40.0729 19.3531 40.0729 19.3531C40.0729 19.3531 44.5931 15.888 46.0547 18.2893Z" fill="white"/>
<path d="M62.8661 2.07066C62.8661 2.07066 61.8532 0.480497 61.5363 0.752491C61.2195 1.02449 61.4209 2.28675 61.4209 2.28675C61.4209 2.28675 62.9132 2.85038 62.8661 2.07066Z" fill="#FFC648"/>
<path d="M60.9038 10.9557C60.9038 10.9557 51.7999 22.7238 51.2216 23.1456C50.6429 23.5675 50.5755 11.5521 50.8492 7.88522C50.8492 7.88522 57.4519 5.43879 57.7952 5.27308C58.1385 5.10736 61.3896 10.0939 60.9038 10.9557Z" fill="white"/>
<path d="M54.107 19.4675C54.107 19.4675 44.4216 26.5217 32.0493 25.2262C32.0493 25.2262 15.3189 24.3589 10.2436 15.0365C10.2436 15.0365 8.50805 8.05783 10.4829 6.44878C12.4573 4.83974 50.4343 7.00033 50.4343 7.00033L57.7891 5.27393L54.107 19.4675Z" fill="white"/>
<path opacity="0.08" d="M15.7396 13.8931C17.5126 17.5864 20.9109 20.7916 25.6445 22.2158C32.1008 24.1583 40.3566 24.5086 46.7345 22.0572C46.7429 22.4372 46.7561 22.817 46.7812 23.1958C42.9035 24.6409 37.7683 25.8225 32.0573 25.2244C32.0573 25.2244 17.7947 24.4845 11.6124 17.0326C12.9914 15.9894 14.3525 14.9302 15.7396 13.8931Z" fill="#60D5EF"/>
<path d="M52.1893 21.5637C51.7396 21.4504 51.2519 20.9057 50.906 20.6692C50.0075 20.0542 49.2709 19.4966 48.0563 19.309C47.1952 19.1757 46.3316 19.3321 45.4751 19.2359C44.4732 19.1236 43.5819 18.6358 43.0951 17.945C42.3608 16.9023 42.7611 15.6761 43.5983 14.7536C44.5802 13.6714 45.8387 12.7657 46.9228 11.7498C47.9579 10.7799 48.5611 9.75063 49.2471 8.62487C49.6104 8.02926 50.1113 7.48527 50.6426 6.95312L57.7952 5.27406C58.1385 5.10834 61.3896 10.0949 60.9038 10.9567C60.9038 10.9567 55.2308 18.2902 52.5571 21.5857C52.4307 21.5982 52.307 21.5935 52.1893 21.5637Z" fill="#09323D"/>
<path d="M14.4536 18.7918C15.2531 18.0395 16.7898 17.2296 18.1015 17.3119C19.251 17.3842 20.2739 18.1828 21.172 18.6754C22.6752 19.5 24.4066 20.0535 25.8711 20.9184C27.5029 21.8822 27.9004 23.1931 27.7756 24.6976C23.8876 24.0274 18.1466 22.5423 13.9997 19.3204C14.1267 19.1353 14.2766 18.9583 14.4536 18.7918Z" fill="#09323D"/>
<path d="M46.8443 9.96598C45.0749 11.267 43.1942 11.2249 40.9473 10.8656C36.3298 10.1271 33.0281 14.06 28.4809 14.1494C25.755 14.203 24.0719 12.799 21.8602 11.8488C20.1752 11.125 18.0608 11.062 16.5006 10.1823C14.8327 9.24192 13.6995 7.53968 12.686 6.18021C12.648 6.12934 12.6126 6.07721 12.5745 6.02634C19.9334 5.40302 43.807 6.63882 49.2969 6.93701C48.7266 8.05747 47.9697 9.13866 46.8443 9.96598Z" fill="#09323D"/>
<path d="M38.7256 18.4893C37.8133 19.1169 37.1863 20.1075 36.0151 20.4918C34.7005 20.9234 33.121 20.2097 32.19 19.4947C31.2867 18.8011 30.4018 17.7517 30.3683 16.7304C30.3377 15.7991 31.367 15.4317 32.2786 15.0171C32.963 14.7061 34.0706 14.08 34.8936 14.0699C35.5932 14.0614 36.2189 14.5897 36.7972 15.096C36.7927 15.1818 36.813 15.2733 36.8736 15.3675C37.4309 16.2351 38.3262 16.429 39.2868 16.9349C39.8481 17.2306 40.2874 17.6147 39.8158 17.9884C39.556 18.1942 39.0296 18.2801 38.7256 18.4893Z" fill="#09323D"/>
<path d="M11.2005 6.14128C11.2005 6.14128 8.79629 7.44811 8.7186 10.1804C8.64123 12.9124 5.12554 24.6109 5.12554 24.6109L6.37631 24.5822C6.37631 24.5822 9.72439 10.8302 10.4958 9.77189C10.4958 9.77189 12.8001 6.06548 11.2005 6.14128Z" fill="white"/>
<path d="M6.56626 24.1636C6.56626 24.1636 8.15875 24.7061 6.99857 26.6025L6.623 26.2043C6.623 26.2043 7.02531 27.0477 5.22781 29.3108C5.22781 29.3108 3.11925 26.7619 5.30584 23.6606L6.56626 24.1636Z" fill="#09323D"/>
<path d="M11.7655 35.3826C11.7655 35.3826 12.053 34.5633 11.1884 34.0103L11.4631 28.3697C11.4631 28.3697 17.9929 20.163 18.3223 19.7278C18.6518 19.2929 20.8858 16.784 19.3665 15.0795C19.3665 15.0795 12.5156 11.8722 10.1678 13.9159C10.1678 13.9159 10.2368 21.8098 9.68267 22.886C9.1282 23.9621 8.25623 24.6025 8.17564 24.9989C8.09505 25.3954 9.00957 33.6811 9.00957 33.6811C9.00957 33.6811 9.6511 33.8647 9.59114 34.0354C9.53118 34.2065 9.24878 34.8429 9.24878 34.8429L11.7655 35.3826Z" fill="white"/>
<path d="M16.5024 34.4944C16.5024 34.4944 16.3125 34.0454 16.024 33.3599L18.4675 33.4256L18.7196 34.4211C19.7244 34.8029 19.6873 35.6522 19.6873 35.6522L17.0791 35.5819C17.0791 35.5819 17.1655 34.9117 17.1732 34.7344C17.181 34.5569 16.5024 34.4944 16.5024 34.4944Z" fill="#09323D"/>
<path d="M50.1333 34.2792C50.532 34.6059 51.1774 35.2562 50.9901 35.9288L47.9702 35.8475C47.9702 35.8475 48.3558 34.7207 47.6927 34.5278C47.6388 34.5122 47.5901 34.4001 47.546 34.2095L50.1333 34.2792Z" fill="#09323D"/>
<path d="M43.2043 34.0933C43.5992 34.4421 44.1131 35.0332 43.9432 35.6424L40.9233 35.561C40.9233 35.561 41.3088 34.4343 40.6457 34.2414C40.6019 34.2285 40.5615 34.1515 40.5242 34.021L43.2043 34.0933Z" fill="#09323D"/>
<path d="M9.01062 33.6814C9.01062 33.6814 8.98968 33.491 8.95454 33.1704L11.2275 33.2316L11.1895 34.0106C12.0544 34.5636 11.7665 35.3829 11.7665 35.3829L9.24983 34.8434C9.24983 34.8434 9.53187 34.2068 9.59215 34.036C9.65211 33.8648 9.01062 33.6814 9.01062 33.6814Z" fill="#09323D"/>
<path d="M59.2316 3.10433C60.1303 2.40168 61.3727 1.97984 62.7315 2.01635C63.6986 2.04255 64.587 2.29741 65.3204 2.7117C66.7726 3.37355 72.1474 5.81345 72.5516 5.85953C73.0191 5.91293 74.7473 5.79632 74.3785 7.05076C74.01 8.30521 72.2225 9.76617 70.444 9.84072C68.6655 9.91527 62.2354 10.1089 61.8131 10.22C61.3904 10.3311 56.8661 15.9865 56.8661 15.9865L50.3398 7.28297L59.2316 3.10433Z" fill="white"/>
<path d="M59.2319 3.10593C59.9901 2.51309 60.9946 2.12398 62.1054 2.0376C62.1493 2.32445 62.2347 2.60728 62.3688 2.87826C62.9458 4.04381 64.1054 4.39765 65.6147 4.4387C66.7526 4.46968 67.4102 4.64597 68.2313 5.24813C68.7032 5.59417 69.1233 5.99385 69.6558 6.287C70.8315 6.93349 72.0291 6.78214 73.2163 6.22833C73.3746 6.15454 73.47 6.05481 73.5193 5.94701C74.0764 6.0475 74.5977 6.30766 74.3785 7.05287C74.01 8.30732 72.2225 9.76828 70.444 9.84283C68.6655 9.91737 62.2353 10.111 61.813 10.2221C61.3904 10.3332 56.8673 16.6009 56.8673 16.6009L49.8624 6.95314L59.2319 3.10593Z" fill="#09323D"/>
<path d="M73.756 8.05492C73.756 8.05492 72.9289 7.86958 72.8012 7.21352C72.6736 6.55746 72.0191 6.00969 72.5478 5.86059C73.0765 5.71175 74.844 5.88174 74.3747 7.05182C74.3747 7.05182 73.9736 7.85672 73.756 8.05492Z" fill="#FF8021"/>
<path opacity="0.19" d="M72.4556 5.89404C72.4546 5.97086 72.4623 6.04867 72.4762 6.12523C72.5719 6.64882 73.0803 7.08854 73.7379 7.22202C73.9091 7.25677 74.0896 7.26811 74.2656 7.25325C74.1318 7.50535 73.8994 7.91964 73.7518 8.05412C73.7518 8.05412 72.9246 7.86876 72.7969 7.2127C72.6777 6.59946 72.0981 6.08066 72.4556 5.89404Z" fill="#10566D"/>
<path d="M73.1719 8.62611C72.6451 8.5629 72.1277 8.5508 71.6113 8.53519L70.8393 8.51757C70.5814 8.50952 70.327 8.50346 70.0643 8.47021C70.2871 8.58959 70.5546 8.64751 70.8135 8.68731C71.0749 8.72785 71.3392 8.74649 71.6026 8.75405C72.1294 8.76261 72.6564 8.73541 73.1719 8.62611Z" fill="white"/>
<path d="M65.898 6.12358C66.1343 6.12987 66.3261 6.07219 66.4682 5.95206C66.7793 5.68863 66.7142 5.21743 66.711 5.19754L66.6761 5.03407C66.6626 4.97136 66.5846 4.93006 66.5066 4.93963C66.4263 4.95021 66.3722 5.00939 66.3857 5.0721L66.4195 5.22977C66.4337 5.33101 66.4337 5.6428 66.2513 5.79642C66.1691 5.86593 66.0566 5.89741 65.9083 5.89363C65.779 5.89011 65.6784 5.85409 65.6007 5.78357C65.3848 5.58738 65.3935 5.17034 65.4147 5.02628C65.4241 4.96332 65.3664 4.90615 65.2855 4.89859C65.2049 4.89204 65.132 4.93636 65.122 4.99932C65.1182 5.0245 65.0327 5.61988 65.3767 5.93292C65.5095 6.05356 65.6849 6.11778 65.898 6.12358Z" fill="white"/>
<path opacity="0.64" d="M20.2917 13.1216C20.3068 13.3765 20.3236 13.6296 20.3168 13.8834C20.3216 14.1365 20.3149 14.3894 20.2981 14.6415C20.263 15.1454 20.2037 15.6471 20.097 16.1425C20.0002 16.6396 19.83 17.1242 19.6347 17.6024L19.4696 17.9568C19.4142 18.0752 19.3368 18.1855 19.2727 18.3013C19.1586 18.5398 18.9722 18.7471 18.8288 18.9783C19.2401 18.5829 19.5876 18.1396 19.8365 17.6621C20.0854 17.1856 20.2681 16.6865 20.3736 16.1785C20.4757 15.6703 20.5289 15.1565 20.5128 14.6437C20.4976 14.1317 20.4403 13.6195 20.2917 13.1216Z" fill="#2B253E"/>
<path opacity="0.64" d="M47.075 23.2733C47.1761 22.7329 47.1916 22.1934 47.1867 21.6539C47.1732 21.1147 47.1391 20.5758 47.0187 20.0376C46.917 20.5781 46.9015 21.1175 46.907 21.657C46.9215 22.1962 46.9556 22.7354 47.075 23.2733Z" fill="#2B253E"/>
<path d="M59.9555 2.75342C59.9555 2.75342 57.8163 1.58183 55.8698 3.55227C55.8698 3.55227 58.6605 5.74132 61.2266 4.2645C61.2266 4.2645 60.7662 2.99771 59.9555 2.75342Z" fill="#09323D"/>
<path d="M60.875 4.44333C59.2148 5.18477 57.5195 4.52242 56.5911 4.01092C58.0614 3.91194 59.4566 3.80541 60.875 4.44333Z" fill="#FF8021"/>
<path opacity="0.19" d="M59.8818 4.13061C59.8902 4.12557 59.895 4.12003 59.9028 4.11475C60.2264 4.19181 60.5501 4.29733 60.875 4.4434C59.9924 4.83754 59.101 4.83327 58.3193 4.66755C58.8822 4.58973 59.4205 4.41469 59.8818 4.13061Z" fill="#10566D"/>
<path d="M48.3593 7.29202C48.1095 7.60557 48.2997 8.02615 48.6011 8.31074C48.9022 8.59532 49.3055 8.81191 49.565 9.12068C50.4112 10.1276 49.4193 11.652 50.3541 12.6098C51.1023 13.3764 52.6535 13.3205 53.5752 13.9614C54.3163 14.477 54.4839 15.3131 54.8566 16.0319C55.0351 16.3759 55.3034 16.7272 55.7469 16.8602C56.1905 16.9934 56.8101 16.7703 56.8004 16.3993L57.5938 15.3604L50.8054 6.69287L48.5611 6.91651L48.3593 7.29202Z" fill="#09323D"/>
<path d="M73.8281 6.62332C73.8281 6.62332 73.5773 5.97935 73.2124 6.22717C72.8472 6.47498 73.8281 6.62332 73.8281 6.62332Z" fill="#09323D"/>
<path d="M14.9823 13.3587C14.9823 13.3587 16.6615 12.1342 17.2437 13.6735C17.8259 15.2128 14.5233 16.3934 14.5233 16.3934C14.5233 16.3934 12.6371 14.9461 12.7041 13.4242C12.7715 11.9025 14.2325 11.9421 14.9823 13.3587Z" fill="#09323D"/>
<path opacity="0.6" d="M61.6797 4.19025C61.6349 4.00514 61.5443 3.83111 61.435 3.66515C61.3264 3.49868 61.1907 3.34254 61.0321 3.19924C60.869 3.05997 60.691 2.92548 60.4721 2.8333C60.2581 2.73911 60.0108 2.67892 59.7697 2.69428C59.9915 2.77009 60.1762 2.86503 60.3487 2.97434C60.5205 3.08339 60.6736 3.21183 60.8212 3.3433C61.1207 3.60648 61.3805 3.89887 61.6797 4.19025Z" fill="white"/>
<path opacity="0.5" d="M61.8125 10.22C61.3912 10.1817 60.9818 10.1112 60.5862 10.0225C60.1926 9.92883 59.8132 9.80744 59.4786 9.63442C59.143 9.46215 58.8725 9.22744 58.6782 8.95469C58.4689 8.68244 58.4003 8.36034 58.3245 8.03369C58.2913 8.35908 58.2862 8.71342 58.4812 9.02873C58.6527 9.34631 58.9548 9.62385 59.3232 9.81626C59.6955 10.0039 60.1114 10.1243 60.535 10.1877C60.9579 10.2522 61.3912 10.2663 61.8125 10.22Z" fill="white"/>
<path opacity="0.43" d="M74.1491 6.26859C74.1491 6.26859 74.5555 6.81359 74.1931 6.71814C73.8306 6.62269 73.7815 5.90996 74.1491 6.26859Z" fill="white"/>
</svg>
