<svg width="200" height="33" viewBox="0 0 200 33" fill="none" xmlns="http://www.w3.org/2000/svg">
<path fill-rule="evenodd" clip-rule="evenodd" d="M13.5397 0.32666L0 31.4824H4.20541L8.08636 22.3322H18.968L22.8614 31.4824H27.0544L13.5521 0.32666H13.5397ZM9.58384 18.8023L13.5397 9.55197L17.4581 18.8023H9.58384Z" fill="white"/>
<path fill-rule="evenodd" clip-rule="evenodd" d="M195.483 2.1416L188.682 14.1207L181.868 2.1416H177.363L186.685 18.0637V31.3947H190.678V18.0637L200 2.1416H195.483Z" fill="white"/>
<path fill-rule="evenodd" clip-rule="evenodd" d="M96.113 31.4823H87.5275V2.06641H96.113C100.942 2.06641 104.599 3.28059 106.995 5.67141C109.353 8.02468 110.863 10.6909 111.462 13.5949L111.712 15.2597V18.1387L111.587 19.3779C111.088 22.4572 109.64 25.2486 107.257 27.7145C104.848 30.218 101.092 31.4823 96.113 31.4823ZM91.5083 27.9148H95.8135C100.119 27.9148 103.189 26.7757 104.911 24.5351C106.683 22.2444 107.569 19.6283 107.569 16.7743C107.569 13.9204 106.52 10.8536 104.449 8.77572C102.377 6.69783 99.4698 5.63386 95.801 5.63386H91.4958V27.9148H91.5083Z" fill="white"/>
<path fill-rule="evenodd" clip-rule="evenodd" d="M68.7092 20.7677C68.7092 22.733 68.3848 24.3352 67.7483 25.5118C67.087 26.6759 66.2758 27.5146 65.3025 27.9902C63.2434 29.0542 60.7976 28.9791 58.8883 27.9902C57.9149 27.4645 57.1163 26.6008 56.5048 25.4367C55.8684 24.2225 55.5439 22.6453 55.5439 20.7552V2.0918H51.5382V20.3546C51.5382 23.4089 52.0997 25.8623 53.1979 27.6398C54.3085 29.4298 55.6812 30.6815 57.3034 31.3449C58.8758 31.9583 60.4981 32.2712 62.1328 32.2712C63.7675 32.2712 65.4023 31.9583 66.9372 31.3449C68.5595 30.6815 69.9322 29.4423 71.0428 27.6773C72.1409 25.8998 72.7025 23.4339 72.7025 20.3546V2.0918H68.7092V20.7552V20.7677Z" fill="white"/>
<path fill-rule="evenodd" clip-rule="evenodd" d="M38.223 2.0918H29.8122V31.4826H33.818V22.3199H38.223C46.0099 22.3199 48.2561 16.3741 48.2561 12.0306C48.2561 7.68706 46.7212 2.0918 38.223 2.0918ZM38.1107 18.79H33.818V5.6217H38.1107C42.3661 5.6217 44.188 9.67733 44.188 12.2058C44.188 14.7343 41.5799 18.7775 38.1107 18.7775V18.79Z" fill="white"/>
<path fill-rule="evenodd" clip-rule="evenodd" d="M127.448 0.32666L113.908 31.4824H118.113L121.994 22.3322H132.876L136.769 31.4824H140.962L127.46 0.32666H127.448ZM123.492 18.8023L127.448 9.55197L131.366 18.8023H123.492Z" fill="white"/>
<path d="M150.159 2.1416H146.091V31.4823H150.159V2.1416Z" fill="white"/>
<path fill-rule="evenodd" clip-rule="evenodd" d="M176.602 12.2808C176.602 5.77177 172.384 1.979 166.432 1.979H157.235V31.4825H161.365V22.4825H164.335L171.798 31.4825H176.54L168.778 22.132C173.832 21.0555 176.59 17.6132 176.59 12.2808H176.602ZM161.365 18.7648V5.69667H166.082C170.001 5.69667 172.634 8.06245 172.634 12.2182C172.634 16.374 169.826 18.7523 165.146 18.7523H161.378L161.365 18.7648Z" fill="white"/>
</svg>
