<svg width="65" height="66" viewBox="0 0 65 66" fill="none" xmlns="http://www.w3.org/2000/svg">
<path d="M42.5854 19.9308C39.9442 16.1327 37.0241 12.5363 33.8494 9.17137C33.662 8.99004 33.4114 8.88867 33.1506 8.88867C32.8899 8.88867 32.6393 8.99004 32.4519 9.17137C29.2772 12.5363 26.3571 16.1327 23.7159 19.9308C17.8704 28.3282 14.9064 35.6634 14.9064 41.7331C14.9064 46.5717 16.8286 51.2121 20.2499 54.6335C23.6713 58.0549 28.3117 59.977 33.1503 59.977C37.9889 59.977 42.6293 58.0549 46.0507 54.6335C49.4721 51.2121 51.3942 46.5717 51.3942 41.7331C51.3942 35.6634 48.4308 28.3282 42.5854 19.9308ZM33.1506 11.278C36.3519 14.7607 49.4442 29.7413 49.4442 41.7331C49.4435 42.9721 49.3011 44.2069 49.0197 45.4134C47.5073 45.3833 46.0124 45.7413 44.6777 46.4534C43.6035 47.0435 42.3916 47.3369 41.1664 47.3036C39.9403 47.3377 38.7272 47.0447 37.6519 46.4547C36.3135 45.7401 34.8137 45.3819 33.2969 45.4147C31.78 45.3819 30.2802 45.7401 28.9419 46.4547C27.8682 47.0447 26.6565 47.3377 25.4319 47.3036C24.2072 47.3376 22.9957 47.0445 21.9219 46.4547C20.5835 45.7401 19.0837 45.3819 17.5669 45.4147C17.4765 45.4159 17.3868 45.4299 17.3004 45.4563C17.0094 44.2365 16.8604 42.9871 16.8564 41.7331C16.8564 29.7491 29.9494 14.762 33.1506 11.278ZM33.1506 58.0267C29.8198 58.0227 26.5699 56.9997 23.8374 55.0951C21.1048 53.1905 19.0204 50.4955 17.8639 47.3719C18.985 47.3869 20.0853 47.6759 21.0691 48.2136C22.4074 48.9283 23.9072 49.2864 25.4241 49.2536C26.9409 49.2864 28.4407 48.9283 29.7791 48.2136C30.8529 47.6238 32.0645 47.331 33.2891 47.3654C34.516 47.3306 35.73 47.6234 36.8062 48.2136C38.1446 48.9283 39.6444 49.2864 41.1612 49.2536C42.6781 49.2864 44.1779 48.9283 45.5162 48.2136C46.4127 47.7223 47.4081 47.4384 48.4289 47.3829C47.2715 50.5036 45.1878 53.1957 42.457 55.0985C39.7262 57.0013 36.479 58.0237 33.1506 58.0286" fill="white"/>
<path d="M32.4883 39.8629C32.4941 39.8681 32.5013 39.8694 32.5071 39.8746C32.513 39.8798 32.5318 39.8954 32.5442 39.9051C32.5565 39.9149 32.5793 39.937 32.5988 39.95C32.6401 39.9775 32.6836 40.0016 32.7288 40.0221C32.7418 40.0286 32.7541 40.0384 32.7678 40.0442C32.7814 40.0501 32.784 40.0488 32.7918 40.052C32.7996 40.0553 32.8126 40.0579 32.823 40.0618C32.9271 40.1002 33.0371 40.1204 33.148 40.1216C33.259 40.1204 33.3689 40.1002 33.473 40.0618C33.4834 40.0579 33.4945 40.0559 33.5049 40.052C33.5153 40.0481 33.5205 40.0468 33.5283 40.0442C33.5361 40.0416 33.5543 40.0286 33.5679 40.0221C33.613 40.0014 33.6565 39.9773 33.6979 39.95C33.7168 39.937 33.7337 39.9201 33.7519 39.9051C33.7701 39.8902 33.7772 39.885 33.7889 39.8746C33.8006 39.8642 33.8026 39.8681 33.8078 39.8629L39.7098 34.4074C39.8875 34.2291 39.9893 33.9889 39.994 33.7372C39.9986 33.4855 39.9058 33.2417 39.7347 33.057C39.5637 32.8722 39.3279 32.7607 39.0766 32.7459C38.8252 32.7311 38.5779 32.814 38.3864 32.9774L34.1211 36.9197V27.1898C34.1211 26.9313 34.0184 26.6833 33.8355 26.5004C33.6527 26.3176 33.4047 26.2148 33.1461 26.2148C32.8875 26.2148 32.6395 26.3176 32.4567 26.5004C32.2738 26.6833 32.1711 26.9313 32.1711 27.1898V36.9177L27.9064 32.9755C27.8137 32.8824 27.7031 32.8091 27.5814 32.7599C27.4596 32.7106 27.3291 32.6865 27.1978 32.6889C27.0665 32.6913 26.937 32.7203 26.8171 32.774C26.6972 32.8277 26.5894 32.9051 26.5002 33.0015C26.411 33.0979 26.3422 33.2113 26.2979 33.335C26.2536 33.4587 26.2348 33.59 26.2425 33.7211C26.2502 33.8523 26.2844 33.9805 26.3429 34.0981C26.4014 34.2157 26.4831 34.3202 26.583 34.4055L32.4883 39.8629Z" fill="white"/>
</svg>
