<svg width="65" height="66" viewBox="0 0 65 66" fill="none" xmlns="http://www.w3.org/2000/svg">
<path d="M51.2246 9.76365H45.5761V5.84805C45.5761 5.58946 45.4733 5.34147 45.2905 5.15862C45.1076 4.97577 44.8596 4.87305 44.6011 4.87305H37.4615C37.2029 4.87305 36.9549 4.97577 36.772 5.15862C36.5892 5.34147 36.4865 5.58946 36.4865 5.84805V9.76365H30.838C30.5794 9.76365 30.3314 9.86637 30.1485 10.0492C29.9657 10.2321 29.863 10.4801 29.863 10.7386V27.5912H28.1242V23.6769C28.1242 23.4183 28.0215 23.1703 27.8386 22.9875C27.6558 22.8046 27.4078 22.7019 27.1492 22.7019H20.0103C19.7517 22.7019 19.5037 22.8046 19.3208 22.9875C19.138 23.1703 19.0353 23.4183 19.0353 23.6769V27.5912H13.7748C13.5162 27.5912 13.2682 27.6939 13.0854 27.8768C12.9025 28.0596 12.7998 28.3076 12.7998 28.5662V60.8062C12.7998 61.0648 12.9025 61.3128 13.0854 61.4956C13.2682 61.6785 13.5162 61.7812 13.7748 61.7812H51.2246C51.4831 61.7812 51.7311 61.6785 51.914 61.4956C52.0968 61.3128 52.1996 61.0648 52.1996 60.8062V10.7386C52.1996 10.4801 52.0968 10.2321 51.914 10.0492C51.7311 9.86637 51.4831 9.76365 51.2246 9.76365ZM37.4615 11.7136H46.1773C45.7277 12.6852 45.0094 13.5078 44.1074 14.0844C43.2053 14.6609 42.1571 14.9673 41.0865 14.9673C40.0159 14.9673 38.9677 14.6609 38.0657 14.0844C37.1636 13.5078 36.4453 12.6852 35.9957 11.7136H37.4615ZM38.4365 6.82305H43.6254V9.763H38.4365V6.82305ZM20.0103 29.5412H28.7248C28.2756 30.5132 27.5575 31.3363 26.6553 31.9132C25.7532 32.49 24.7048 32.7966 23.634 32.7966C22.5632 32.7966 21.5148 32.49 20.6127 31.9132C19.7105 31.3363 18.9924 30.5132 18.5432 29.5412H20.0103ZM20.9853 24.6519H26.1742V27.5912H20.9853V24.6519ZM30.838 59.8305H14.7498V29.5405H16.7941C17.284 30.9649 18.2063 32.2007 19.4324 33.0756C20.6585 33.9505 22.1271 34.4207 23.6334 34.4207C25.1396 34.4207 26.6082 33.9505 27.8343 33.0756C29.0604 32.2007 29.9828 30.9649 30.4727 29.5405H32.4097V59.8305H30.838ZM50.2496 59.8305H34.3597V28.5655C34.3597 28.307 34.2569 28.059 34.0741 27.8761C33.8912 27.6933 33.6432 27.5905 33.3847 27.5905H31.813V11.7136H34.2459C34.7359 13.1377 35.6583 14.3733 36.8843 15.248C38.1103 16.1227 39.5788 16.5929 41.0849 16.5929C42.5909 16.5929 44.0594 16.1227 45.2854 15.248C46.5114 14.3733 47.4338 13.1377 47.9239 11.7136H50.2496V59.8305Z" fill="white"/>
<path d="M46.9307 33.6568C46.8129 32.6368 46.4027 31.6726 45.7494 30.8805C45.0961 30.0884 44.2276 29.5021 43.2487 29.1923C42.2698 28.8826 41.2221 28.8626 40.2321 29.1347C39.242 29.4069 38.3518 29.9596 37.6687 30.7262C36.9857 31.4928 36.5389 32.4406 36.3823 33.4554C36.2257 34.4702 36.366 35.5086 36.7862 36.4455C37.2064 37.3823 37.8886 38.1777 38.7505 38.7356C39.6125 39.2936 40.6174 39.5903 41.6442 39.59C42.4579 39.5921 43.261 39.4059 43.9907 39.046C44.0894 39.0008 44.178 38.9364 44.2514 38.8564C44.3248 38.7764 44.3814 38.6826 44.4179 38.5804C44.4544 38.4782 44.47 38.3697 44.4639 38.2613C44.4578 38.153 44.43 38.0469 44.3823 37.9495C44.3345 37.8521 44.2677 37.7652 44.1858 37.694C44.1039 37.6228 44.0086 37.5687 43.9054 37.5349C43.8023 37.5012 43.6934 37.4884 43.5853 37.4974C43.4771 37.5064 43.3719 37.537 43.2757 37.5874C42.5637 37.9383 41.7577 38.0511 40.9767 37.9089C40.1957 37.7668 39.4812 37.3773 38.9384 36.798C38.3957 36.2187 38.0536 35.4803 37.9627 34.6917C37.8717 33.9031 38.0367 33.1062 38.4333 32.4186C38.8299 31.7309 39.4371 31.189 40.1652 30.8728C40.8933 30.5566 41.7038 30.4829 42.477 30.6626C43.2502 30.8422 43.9452 31.2657 44.4593 31.8705C44.9735 32.4753 45.2795 33.2294 45.3323 34.0215L44.9534 33.6711C44.7951 33.5246 44.5851 33.4469 44.3696 33.4552C44.1541 33.4635 43.9507 33.5571 43.8042 33.7153C43.6576 33.8736 43.58 34.0836 43.5883 34.2991C43.5965 34.5146 43.6901 34.718 43.8484 34.8645L45.3772 36.2776C45.3804 36.2776 45.3843 36.2809 45.3869 36.2835C45.4171 36.3054 45.4488 36.3252 45.4818 36.3426C45.4987 36.3543 45.5163 36.3654 45.5338 36.3751C45.5625 36.3957 45.5924 36.4144 45.6235 36.431C45.6359 36.4362 45.6476 36.4395 45.6593 36.444C45.671 36.4486 45.6684 36.4505 45.6742 36.4525C45.7035 36.4616 45.7321 36.4564 45.7613 36.4629C45.8158 36.4788 45.8718 36.489 45.9284 36.4934C45.9407 36.4934 45.9524 36.4876 45.9641 36.4869C46.0065 36.4827 46.0485 36.4749 46.0896 36.4635C46.1386 36.4573 46.1869 36.4464 46.2339 36.431C46.2462 36.4258 46.2573 36.4187 46.2696 36.4135C46.3084 36.3918 46.3453 36.367 46.3801 36.3394C46.415 36.3205 46.4483 36.2988 46.4796 36.2744L48.009 34.8613C48.1644 34.717 48.257 34.5174 48.2669 34.3055C48.2768 34.0937 48.2032 33.8864 48.0619 33.7282C47.9205 33.5701 47.7228 33.4736 47.5112 33.4597C47.2995 33.4457 47.0909 33.5153 46.93 33.6536" fill="white"/>
<path d="M28.2152 44.074C28.0975 43.0539 27.6874 42.0897 27.0342 41.2974C26.3809 40.5052 25.5125 39.9188 24.5336 39.609C23.5546 39.2991 22.5069 39.279 21.5168 39.5511C20.5267 39.8232 19.6365 40.3759 18.9533 41.1425C18.2702 41.9091 17.8234 42.8569 17.6668 43.8717C17.5102 44.8865 17.6504 45.925 18.0706 46.8619C18.4908 47.7988 19.173 48.5941 20.0349 49.1521C20.8969 49.7101 21.9019 50.0068 22.9287 50.0065C23.7426 50.0084 24.546 49.822 25.2759 49.4618C25.3741 49.4165 25.4623 49.3519 25.5352 49.272C25.6082 49.192 25.6644 49.0983 25.7006 48.9963C25.7368 48.8943 25.7522 48.7861 25.746 48.6781C25.7398 48.5701 25.712 48.4644 25.6643 48.3672C25.6167 48.27 25.55 48.1834 25.4684 48.1124C25.3868 48.0413 25.2918 47.9873 25.189 47.9535C25.0861 47.9197 24.9776 47.9069 24.8698 47.9156C24.7619 47.9244 24.6569 47.9546 24.5609 48.0045C23.8488 48.3555 23.0429 48.4682 22.2619 48.3261C21.4809 48.184 20.7663 47.7945 20.2236 47.2152C19.6809 46.6359 19.3388 45.8975 19.2478 45.1089C19.1569 44.3203 19.3219 43.5234 19.7185 42.8357C20.1151 42.1481 20.7222 41.6062 21.4503 41.29C22.1785 40.9738 22.9889 40.9001 23.7622 41.0797C24.5354 41.2594 25.2303 41.6829 25.7445 42.2877C26.2586 42.8925 26.5647 43.6466 26.6175 44.4386L26.2385 44.0883C26.0803 43.9418 25.8703 43.8641 25.6548 43.8724C25.4392 43.8807 25.2358 43.9742 25.0893 44.1325C24.9428 44.2907 24.8651 44.5007 24.8734 44.7162C24.8817 44.9318 24.9753 45.1352 25.1335 45.2817L26.6623 46.6948C26.6623 46.6948 26.6695 46.6948 26.6721 46.7006C26.7022 46.7226 26.734 46.7424 26.767 46.7598C26.7839 46.7715 26.8014 46.7825 26.819 46.7923C26.8476 46.8128 26.8776 46.8315 26.9087 46.8482C26.921 46.8534 26.9327 46.8566 26.9444 46.8612C26.9561 46.8657 26.9535 46.8677 26.9594 46.8696C26.9886 46.8787 27.0172 46.8735 27.0465 46.88C27.101 46.8959 27.1569 46.9061 27.2135 46.9106C27.2259 46.9106 27.2376 46.9047 27.2493 46.9041C27.2917 46.8999 27.3336 46.892 27.3747 46.8807C27.4237 46.8744 27.472 46.8635 27.519 46.8482C27.5314 46.843 27.5424 46.8358 27.5548 46.8306C27.5937 46.8089 27.6309 46.7841 27.6659 46.7565C27.7003 46.7384 27.7334 46.7178 27.7647 46.6948L29.2942 45.2817C29.4496 45.1374 29.5422 44.9378 29.5521 44.726C29.5619 44.5141 29.4883 44.3068 29.347 44.1486C29.2057 43.9905 29.008 43.894 28.7963 43.8801C28.5847 43.8661 28.376 43.9357 28.2152 44.074Z" fill="white"/>
</svg>
