<svg width="102" height="58" viewBox="0 0 102 58" fill="none" xmlns="http://www.w3.org/2000/svg">
<path d="M37.8317 29.2779C33.6644 34.4081 27.2038 33.5902 27.2038 33.5902L21.2609 43.0999V54.991L21.4472 55.1773C21.3955 55.2498 20.9192 55.9072 19.713 55.9072C18.4395 55.9072 17.6526 55.1721 17.6526 55.1721L16.7985 54.318V38.3476C17.7614 36.4736 18.2739 35.0811 18.4706 33.6C18.833 30.8563 18.0823 27.8331 17.0263 20.9583C16.6069 18.2462 16.4361 15.9938 16.4258 14.1146C16.405 5.67645 19.7751 4.83264 19.7751 4.83264L37.8317 29.2779Z" fill="#ED3237"/>
<path d="M65.4602 25.3643C64.7303 31.8456 58.6734 34.9517 58.6734 34.9517L58.6113 35.5216L56.5044 54.991L56.6907 55.1773C56.6442 55.2545 56.1731 55.9849 54.9358 55.9073C53.6313 55.8193 52.9013 55.1722 52.9013 55.1722L52.0472 54.318C52.0472 54.318 53.1239 36.5616 53.1239 36.484C53.1239 36.484 50.696 36.2096 50.0386 35.6609C48.0093 33.9784 45.9334 32.2028 45.0326 29.8008C44.6547 28.812 43.8213 26.8397 44.2458 25.8561C44.7842 24.6033 46.5391 23.3562 47.5796 22.5383C50.08 20.5815 52.9842 19.1785 55.9505 18.0909C57.0894 17.6768 58.249 17.2994 59.45 17.2264C59.5017 17.2212 59.5535 17.216 59.6053 17.216C60.6251 17.1746 61.9141 17.3506 62.7372 18.0184C62.7476 18.034 62.7683 18.0443 62.7786 18.0547C63.6173 18.7691 63.8192 20.379 64.166 21.4247C64.5957 22.7396 65.0305 24.0494 65.4602 25.3643Z" fill="#ED3237"/>
<path d="M29.3201 35.6091L24.6046 29.3105L20.9679 28.8229L18.3955 29.7169L16.8875 30.4582L15.7347 31.8389L14.4094 36.9421C14.4094 36.9421 15.5757 37.9697 17.4182 38.7545V40.0601C17.4182 40.6223 17.8742 41.0784 18.4364 41.0784C18.9986 41.0784 19.4547 40.6223 19.4547 40.0601V39.4084C20.1774 39.5647 20.9534 39.6517 21.7661 39.6263V40.0601C21.7661 40.6223 22.2222 41.0784 22.7844 41.0784C23.3466 41.0784 23.8027 40.6223 23.8027 40.0601V39.3219C25.5882 38.8374 27.4756 37.7269 29.3201 35.6091Z" fill="#ED3237"/>
<path d="M84.6971 18.5878C84.6971 18.5878 83.6048 19.6548 81.5962 21.2798C79.2822 23.1486 75.762 25.753 71.3048 28.315C69.4774 32.7882 65.2687 34.9516 65.2687 34.9516L66.7751 54.9909L66.9615 55.1773C66.9615 55.1773 66.0607 55.8762 65.0719 55.9072C64.0883 55.9331 63.1721 55.1721 63.1721 55.1721L62.3179 54.318C62.3179 54.318 59.8227 35.8369 59.7813 35.5314C59.7813 35.635 59.2377 35.5987 58.6113 35.5211C57.7675 35.4118 56.7684 35.2306 56.6752 35.2001C56.4215 35.1173 56.1886 35.0344 55.966 34.9464C52.9635 35.8265 49.8004 36.515 46.5028 36.9033C44.0076 37.1978 41.4296 37.3272 38.7946 37.2444C34.5341 37.115 30.8897 36.3074 27.7681 35.0293C26.0183 34.3092 24.4342 33.4447 23.0003 32.4668C21.323 33.2324 19.682 33.5177 18.4706 33.6C17.2799 33.6885 16.5086 33.5896 16.5086 33.5896L10.5605 43.0993V54.9904L10.7468 55.1768C10.7158 55.2596 10.3689 56.0672 8.88319 55.9067C7.3198 55.7359 6.95743 55.1716 6.95743 55.1716L6.10326 54.3174V38.3471C8.85213 32.9938 7.95137 31.5287 6.32586 20.9578C5.16626 13.4307 5.90136 9.12417 6.90566 6.70092C3.45792 7.79322 3.57181 11.3807 3.57181 11.3807V37.1766C5.7357 41.9708 2.17927 44.5592 2.17927 44.5592C2.17927 44.5592 0.243144 42.9492 0.0308961 41.1213C-0.186529 39.2991 0.833306 37.1766 0.833306 37.1766C0.833306 37.1766 1.26297 21.3103 1.26297 12.3488C1.26297 3.37741 9.1265 3.77137 9.1265 3.77137H84.2674L84.2985 4.84815L84.6971 18.5878Z" fill="#ED3237"/>
<path d="M84.6997 18.5874C84.6997 18.5874 83.6043 19.6553 81.5942 21.2788C79.3029 19.5704 77.8208 16.8402 77.8208 13.7636C77.8208 9.59686 80.5402 6.0663 84.2995 4.84717L84.6997 18.5874Z" fill="#ED3237"/>
<path d="M85.1635 5.12613C84.7602 4.84503 84.5257 4.46609 84.3952 4.00587C84.1323 3.07768 83.5965 2.0299 83.8056 1.04114C83.9324 0.442186 84.4537 0.0911971 85.0548 0.154871C85.8515 0.238735 86.4395 0.824744 86.964 1.37504C87.4149 1.84819 87.829 2.35603 88.2022 2.89235C88.5222 3.35256 89.0357 3.99345 88.8183 4.59085C88.7318 4.82795 88.5315 5.01069 88.3079 5.12717C87.8259 5.37928 87.1519 5.46211 86.6119 5.4647C86.1346 5.46833 85.5667 5.40775 85.1635 5.12613Z" fill="#ED3237"/>
<path d="M98.7929 20.2946C97.3522 20.6762 95.6076 19.7707 95.6076 19.7707C95.6076 19.7707 94.3952 19.6884 92.1153 19.6884C89.8396 19.6884 85.7417 20.5229 82.7847 16.8826C80.5209 14.0923 80.0431 7.70936 82.355 4.78241C82.8536 4.15136 83.599 3.76001 84.3626 3.55449C85.3917 3.27805 86.5032 3.27546 87.5805 3.45613C88.2959 3.57519 88.9984 3.77606 89.6522 4.02765C90.3656 4.30202 91.0727 4.6592 91.6556 5.16187C92.6781 6.04244 92.8976 7.34855 93.7093 8.23326C93.7093 8.23326 93.8377 8.37303 94.0592 8.60858C95.0656 9.67241 97.9858 12.6791 99.4405 13.32C99.5067 13.35 99.5683 13.3728 99.6279 13.3909C101.297 13.9215 101.544 14.0406 101.906 15.591C102.489 18.1173 100.236 19.9178 98.7929 20.2946Z" fill="#ED3237"/>
<path d="M98.7925 20.2956C97.3513 20.6766 95.6072 19.7701 95.6072 19.7701C95.6072 19.7701 94.6521 18.2575 94.8214 17.1626C94.9876 16.0672 99.4406 13.3188 99.4406 13.3188C99.5058 13.3484 99.568 13.3711 99.6265 13.3908C101.295 13.9219 101.543 14.0394 101.905 15.5909C102.489 18.1177 100.236 19.9177 98.7925 20.2956Z" fill="#ED3237"/>
<path d="M79.4737 0.0477723C78.4886 -0.0982128 77.2182 0.0306942 77.2467 1.28917C77.2741 2.51917 78.1951 3.74451 78.9535 4.6375C79.6705 5.48132 80.5075 6.24852 81.4533 6.82988C82.3769 7.39829 84.5863 8.41552 85.2728 6.98155C85.484 6.54049 85.3276 6.07199 85.1625 5.64439C84.913 4.99833 84.6153 4.36936 84.2664 3.77092C83.4091 2.29813 82.1936 0.938178 80.5624 0.328871C80.2114 0.197381 79.8459 0.103164 79.4737 0.0477723Z" fill="#ED3237"/>
<path d="M78.5901 2.21111C78.8733 3.48408 80.0851 5.56823 81.2023 4.67058C81.5082 4.42469 81.5652 3.89458 81.9431 3.7895C82.1005 3.74549 82.2661 3.79519 82.4281 3.81383C82.5902 3.83298 82.7822 3.80503 82.8661 3.66526C82.9458 3.5317 82.8899 3.36087 82.8236 3.22006C82.4478 2.42077 81.7681 1.80059 80.9792 1.41854C80.3362 1.10741 78.6952 0.381623 78.5362 1.59817C78.5161 1.75502 78.5362 1.96832 78.5901 2.21111Z" fill="#ED3237"/>
<path d="M10.7458 55.1747L12.7151 57.1434H6.95746V55.1747H10.7458Z" fill="#ED3237"/>
<path d="M23.4143 57.1434H17.6536V55.1747H21.4451L23.4143 57.1434Z" fill="#ED3237"/>
<path d="M56.6892 55.1747L58.6584 57.1434H52.9008V55.1747H56.6892Z" fill="#ED3237"/>
<path d="M68.9307 57.1434H63.1731V55.1747H66.9615L68.9307 57.1434Z" fill="#ED3237"/>
<path d="M2.1782 44.5596C2.1782 44.5596 0.245195 42.9497 0.0298411 41.1233C-0.185513 39.298 0.835347 37.1755 0.835347 37.1755C0.835347 37.1755 1.24948 35.7772 2.16215 35.8456C3.07171 35.9175 3.57387 37.1755 3.57387 37.1755C5.73517 41.9712 2.1782 44.5596 2.1782 44.5596Z" fill="#ED3237"/>
<path d="M37.6329 4.83372C37.6329 12.5104 31.4104 18.7334 23.7353 18.7334C16.0581 18.7334 9.83563 12.5104 9.83563 4.83372C9.83563 4.47652 9.8491 4.12244 9.87706 3.7699H37.592C37.6194 4.12244 37.6329 4.47704 37.6329 4.83372Z" fill="#ED3237"/>
<path d="M46.5039 36.9023C44.0066 37.1994 41.4317 37.3278 38.7946 37.2455C34.5362 37.1125 30.8891 36.308 27.767 35.0273C29.4686 31.8047 32.8553 29.6072 36.7544 29.6072C41.3701 29.6077 45.2666 32.6879 46.5039 36.9023Z" fill="#ED3237"/>
<path d="M62.9339 22.0207C62.9339 23.4344 61.7872 24.5811 60.3729 24.5811C58.9586 24.5811 57.812 23.4344 57.812 22.0207C57.812 20.6064 58.9586 19.4597 60.3729 19.4597C61.7872 19.4597 62.9339 20.6064 62.9339 22.0207Z" fill="#ED3237"/>
<path d="M94.0587 8.60861C93.613 10.6917 91.7628 12.2515 89.5467 12.2515C86.9966 12.2515 84.9295 10.1844 84.9295 7.63433C84.9295 5.78932 86.0135 4.19487 87.58 3.45667C88.2954 3.57573 88.9979 3.77659 89.6517 4.02818C90.3651 4.30255 91.0723 4.65975 91.6552 5.16242C92.6776 6.04299 92.8971 7.3491 93.7088 8.23381C93.7088 8.23381 93.8372 8.37306 94.0587 8.60861Z" fill="#ED3237"/>
<path d="M52.056 17.2093C52.056 21.1913 48.8278 24.42 44.8448 24.42C40.8623 24.42 37.634 21.1918 37.634 17.2093C37.634 13.2268 40.8623 9.99805 44.8448 9.99805C48.8278 9.99856 52.056 13.2268 52.056 17.2093Z" fill="#ED3237"/>
<path d="M75.3027 3.77039C74.8202 8.77892 70.5965 12.6936 65.4622 12.6936C60.3258 12.6936 56.1041 8.7784 55.6216 3.77039H75.3027Z" fill="#ED3237"/>
<path d="M91.5242 8.51439C91.5242 8.99997 91.1308 9.39341 90.6452 9.39341C90.1596 9.39341 89.7662 8.99946 89.7662 8.51439C89.7662 8.02881 90.1596 7.63538 90.6452 7.63538C91.1308 7.63538 91.5242 8.02829 91.5242 8.51439Z" fill="#ED3237"/>
<path d="M91.2023 8.51431C91.2023 8.82181 90.9528 9.07132 90.6453 9.07132C90.3378 9.07132 90.0883 8.82181 90.0883 8.51431C90.0883 8.20629 90.3378 7.95728 90.6453 7.95728C90.9528 7.95676 91.2023 8.20629 91.2023 8.51431Z" fill="#ED3237"/>
</svg>
