<svg width="65" height="66" viewBox="0 0 65 66" fill="none" xmlns="http://www.w3.org/2000/svg">
<path d="M49.8525 17.5219C49.6122 17.5221 49.3804 17.4326 49.2025 17.271C47.7122 15.9497 46.3039 14.5387 44.9853 13.046C43.53 11.2104 43.5586 9.13751 45.0594 7.63666C45.4266 7.27139 45.8745 6.99751 46.367 6.83707C46.8595 6.67664 47.3828 6.63414 47.8947 6.71301C48.628 6.82203 49.3115 7.14906 49.8564 7.65161C50.4017 7.14914 51.0854 6.82213 51.8188 6.71301C52.3309 6.634 52.8545 6.67636 53.3473 6.83668C53.8401 6.99699 54.2884 7.27078 54.656 7.63601C56.1575 9.13686 56.1855 11.211 54.7314 13.0453C53.4148 14.5372 52.008 15.9469 50.5188 17.2664C50.336 17.4311 50.0986 17.5221 49.8525 17.5219ZM47.3962 8.62661C47.2182 8.62499 47.0417 8.65862 46.8768 8.72556C46.7119 8.79249 46.5619 8.89141 46.4355 9.01661C45.4403 10.0124 45.9272 11.0999 46.5109 11.8363C47.5552 13.0354 48.6725 14.169 49.8564 15.2306C51.0388 14.1663 52.1564 13.0322 53.2033 11.8344C53.7883 11.0979 54.2732 10.0105 53.2774 9.01466C53.1238 8.86449 52.937 8.75258 52.7322 8.68799C52.5274 8.6234 52.3102 8.60794 52.0983 8.64286C51.8021 8.69566 51.5224 8.81728 51.2818 8.99792C51.0413 9.17856 50.8464 9.41317 50.7131 9.68286C50.6294 9.837 50.5056 9.96569 50.3548 10.0554C50.204 10.145 50.0318 10.1924 49.8564 10.1924C49.681 10.1924 49.5088 10.145 49.358 10.0554C49.2073 9.96569 49.0835 9.837 48.9997 9.68286C48.8665 9.41319 48.6718 9.17857 48.4314 8.99793C48.1909 8.81728 47.9113 8.69566 47.6152 8.64286C47.5427 8.63233 47.4695 8.6269 47.3962 8.62661Z" fill="white"/>
<path d="M15.5675 24.3678C15.5677 24.5775 15.5056 24.7825 15.3892 24.9569C15.2728 25.1314 15.1072 25.2674 14.9135 25.3477C14.7198 25.428 14.5066 25.4491 14.3009 25.4083C14.0953 25.3675 13.9063 25.2665 13.758 25.1183C13.6096 24.9701 13.5086 24.7812 13.4676 24.5755C13.4267 24.3698 13.4476 24.1566 13.5279 23.9629C13.6081 23.7691 13.744 23.6035 13.9183 23.487C14.0927 23.3705 14.2977 23.3083 14.5074 23.3083C14.6466 23.3082 14.7844 23.3355 14.913 23.3887C15.0416 23.442 15.1585 23.52 15.257 23.6184C15.3554 23.7168 15.4335 23.8336 15.4868 23.9622C15.5401 24.0908 15.5675 24.2286 15.5675 24.3678ZM19.656 23.3083C19.4465 23.3084 19.2417 23.3707 19.0676 23.4872C18.8934 23.6037 18.7577 23.7692 18.6776 23.9628C18.5975 24.1564 18.5767 24.3694 18.6176 24.5749C18.6586 24.7804 18.7595 24.9691 18.9077 25.1172C19.0559 25.2653 19.2447 25.3661 19.4502 25.407C19.6557 25.4478 19.8687 25.4268 20.0623 25.3466C20.2558 25.2664 20.4213 25.1306 20.5377 24.9563C20.6541 24.7821 20.7162 24.5773 20.7162 24.3678C20.7162 24.2286 20.6887 24.0908 20.6355 23.9622C20.5822 23.8336 20.5041 23.7168 20.4056 23.6184C20.3072 23.52 20.1903 23.442 20.0617 23.3887C19.9331 23.3355 19.7952 23.3082 19.656 23.3083ZM63.3029 42.5223C63.2902 43.368 63.0765 44.1986 62.6793 44.9453C62.2821 45.6921 61.7129 46.3336 61.0188 46.8168C60.8615 46.918 60.6784 46.9718 60.4913 46.9718C60.3042 46.9718 60.1211 46.918 59.9638 46.8168C59.2699 46.3334 58.7009 45.6918 58.3037 44.9451C57.9066 44.1984 57.6927 43.3679 57.6797 42.5223C57.6861 41.7715 57.8534 41.0307 58.1703 40.35C58.4872 39.6693 58.9463 39.0644 59.5166 38.5761V35.5484C59.5166 29.8148 57.5712 26.5446 53.7316 25.7926C55.6465 27.4826 57.1116 30.4381 57.1116 35.5484V55.9357C57.1116 55.9656 57.1058 55.9935 57.1032 56.0228C57.1006 56.052 57.1116 56.0793 57.1116 56.1092C57.1116 57.8876 56.0222 59.2799 54.6312 59.2799H50.1111C48.7195 59.2799 47.6301 57.8876 47.6301 56.1092C47.5982 55.5629 47.7198 55.0186 47.9811 54.5378C48.2425 54.0569 48.6331 53.6588 49.1088 53.3883V52.2417C49.1093 52.1677 49.1185 52.0939 49.1361 52.022V47.3082C48.9411 47.2985 48.7552 47.2757 48.5654 47.2595C48.144 48.1652 47.5247 48.9648 46.7532 49.5995V51.2245C46.7532 51.4831 46.6505 51.7311 46.4677 51.9139C46.2848 52.0968 46.0368 52.1995 45.7782 52.1995C45.5196 52.1995 45.2716 52.0968 45.0888 51.9139C44.9059 51.7311 44.8032 51.4831 44.8032 51.2245V50.7077C44.3782 50.8646 43.9382 50.9776 43.4902 51.0451V52.2417C43.4902 52.5003 43.3875 52.7483 43.2047 52.9312C43.0218 53.114 42.7738 53.2167 42.5152 53.2167C42.2566 53.2167 42.0086 53.114 41.8258 52.9312C41.6429 52.7483 41.5402 52.5003 41.5402 52.2417V51.0451C41.0922 50.9778 40.6522 50.8647 40.2272 50.7077V51.2206C40.2272 51.4792 40.1245 51.7272 39.9417 51.91C39.7588 52.0929 39.5108 52.1956 39.2522 52.1956C38.9936 52.1956 38.7456 52.0929 38.5628 51.91C38.3799 51.7272 38.2772 51.4792 38.2772 51.2206V49.5956C37.5273 48.979 36.921 48.2062 36.5008 47.331H30.5422V55.9357C30.5422 55.9656 30.5357 55.9935 30.5331 56.0228C30.5305 56.052 30.5422 56.0793 30.5422 56.1092C30.5422 57.8876 29.4522 59.2799 28.0612 59.2799H23.5372C22.1462 59.2799 21.0561 57.8876 21.0561 56.1092C21.0243 55.5629 21.146 55.0185 21.4075 54.5376C21.6689 54.0568 22.0597 53.6587 22.5355 53.3883V49.7912C21.3992 49.753 20.2822 49.4872 19.2504 49.0095C18.2187 48.5319 17.2933 47.8522 16.5289 47.0105C14.1772 44.3364 13.964 40.5196 14.0199 38.6587H11.3549C10.1805 38.6573 9.05466 38.1901 8.22432 37.3597C7.39398 36.5292 6.92698 35.4033 6.92577 34.2289V34.121C6.92556 33.4653 7.07127 32.8177 7.35233 32.2252C7.63339 31.6327 8.04277 31.1102 8.55077 30.6955C8.49686 30.3761 8.4686 30.0529 8.46627 29.729V21.734C8.46627 21.6781 8.47277 21.6248 8.47407 21.5695C8.01031 21.676 7.53614 21.7305 7.06032 21.732C6.05504 21.7342 5.06581 21.48 4.18602 20.9936C3.32069 20.5019 2.58475 19.8114 2.03897 18.9791C1.49319 18.1468 1.15323 17.1966 1.04717 16.207C1.03413 16.0204 1.07506 15.834 1.16507 15.67C1.25508 15.506 1.39038 15.3713 1.55482 15.2821C2.44603 14.8403 3.42956 14.617 4.42416 14.6304C5.41876 14.6438 6.39588 14.8937 7.27482 15.3594C8.36128 15.9532 9.23541 16.8712 9.77537 17.9854C10.5371 17.0226 11.5735 16.3142 12.7472 15.9542L11.6188 14.4592C11.4629 14.2523 11.3957 13.992 11.4317 13.7355C11.4678 13.4791 11.6043 13.2474 11.8112 13.0916C12.018 12.9357 12.2783 12.8685 12.5348 12.9045C12.7913 12.9406 13.0229 13.0771 13.1788 13.284L14.9988 15.689H19.1757L20.9957 13.284C21.1515 13.0776 21.3829 12.9416 21.6391 12.9059C21.8952 12.8702 22.155 12.9377 22.3613 13.0935C22.5677 13.2494 22.7037 13.4808 22.7394 13.7369C22.7751 13.993 22.7076 14.2528 22.5518 14.4592L21.424 15.9542C22.5942 16.3165 23.627 17.0252 24.3861 17.9867C24.926 16.8725 25.8002 15.9545 26.8866 15.3607C27.7655 14.8947 28.7426 14.6447 29.7373 14.6312C30.7319 14.6178 31.7155 14.8413 32.6066 15.2834C32.7711 15.3726 32.9064 15.5073 32.9964 15.6713C33.0864 15.8353 33.1273 16.0217 33.1143 16.2083C33.008 17.1973 32.6681 18.1468 32.1225 18.9785C31.577 19.8102 30.8415 20.5003 29.9767 20.9917C29.097 21.4783 28.1078 21.7327 27.1024 21.7307C26.6264 21.7291 26.152 21.6746 25.688 21.5682C25.688 21.6235 25.6965 21.6768 25.6965 21.7327V23.6736H51.8915C55.4665 23.6736 61.4647 25.2167 61.4647 35.5497V38.5774C62.0348 39.0659 62.4937 39.6708 62.8105 40.3515C63.1272 41.0322 63.2945 41.7728 63.3009 42.5236M25.8336 19.6013C26.3617 19.7664 26.9177 19.8232 27.4683 19.7683C28.0189 19.7134 28.5527 19.548 29.0379 19.2819C29.523 19.0158 29.9495 18.6546 30.2917 18.2199C30.634 17.7851 30.885 17.2858 31.0297 16.7517C30.5015 16.5865 29.9453 16.5297 29.3946 16.5846C28.8438 16.6395 28.3099 16.8051 27.8246 17.0714C27.3394 17.3377 26.913 17.6992 26.5709 18.1342C26.2287 18.5693 25.978 19.069 25.8336 19.6033M8.33042 19.6033C8.1823 19.0708 7.93008 18.5729 7.58834 18.1384C7.2466 17.704 6.82213 17.3416 6.33947 17.0722C5.85299 16.8097 5.31929 16.6463 4.76924 16.5914C4.2192 16.5365 3.66373 16.5912 3.13497 16.7524C3.27948 17.2861 3.53022 17.7852 3.87218 18.2197C4.21413 18.6543 4.64026 19.0153 5.12506 19.2812C5.60985 19.5472 6.14333 19.7126 6.69355 19.7674C7.24376 19.8223 7.7994 19.7656 8.32717 19.6007M32.2004 25.6223C32.3161 28.9646 35.3724 31.6523 39.1222 31.6523C42.8721 31.6523 45.9284 28.9646 46.0441 25.6223H32.2004ZM10.4189 29.7933C10.7257 29.7261 11.0388 29.6921 11.3529 29.6919H22.8079C23.1224 29.6925 23.4359 29.7265 23.7432 29.7933C23.7432 29.7719 23.7465 29.7504 23.7465 29.7283V21.7333C23.7451 20.6491 23.3138 19.6096 22.5471 18.8429C21.7804 18.0762 20.7409 17.6449 19.6567 17.6435H14.5074C13.4231 17.6449 12.3837 18.0762 11.617 18.8429C10.8503 19.6096 10.4189 20.6491 10.4176 21.7333V29.7283C10.4176 29.7498 10.4215 29.7712 10.4221 29.7933M11.3562 36.7067H22.8079C23.4652 36.7059 24.0954 36.4443 24.5601 35.9794C25.0249 35.5146 25.2863 34.8843 25.287 34.227V34.1191C25.2863 33.4618 25.0249 32.8316 24.5601 32.3669C24.0953 31.9021 23.4652 31.6407 22.8079 31.64H11.3562C10.6989 31.6407 10.0687 31.9021 9.60394 32.3669C9.13917 32.8316 8.87776 33.4618 8.87707 34.1191V34.227C8.87776 34.8843 9.13915 35.5146 9.6039 35.9794C10.0687 36.4443 10.6988 36.7059 11.3562 36.7067ZM47.9967 25.6418C47.8719 30.0501 43.9472 33.6023 39.1255 33.6023C34.3038 33.6023 30.3667 30.0397 30.253 25.6223H25.6965V29.729C25.6941 30.0529 25.6658 30.3761 25.612 30.6955C26.12 31.1102 26.5294 31.6327 26.8104 32.2252C27.0915 32.8177 27.2372 33.4653 27.237 34.121V34.2289C27.2353 35.403 26.768 36.5284 25.9377 37.3584C25.1075 38.1885 23.9819 38.6554 22.8079 38.6567H15.9744C15.9263 40.2102 16.0752 43.5454 17.9992 45.7274C19.2556 47.1516 21.1101 47.8724 23.5112 47.8724C23.7698 47.8724 24.0178 47.9752 24.2006 48.158C24.3834 48.3409 24.4862 48.5888 24.4862 48.8474V54.1644C24.4862 54.423 24.3834 54.671 24.2006 54.8539C24.0178 55.0367 23.7698 55.1394 23.5112 55.1394C23.4858 55.1394 23.4624 55.1336 23.4371 55.1323C23.4117 55.131 23.389 55.1394 23.3636 55.1394C23.2343 55.2626 23.1349 55.4138 23.0731 55.5813C23.0112 55.7489 22.9885 55.9283 23.0068 56.106C23.0068 56.9074 23.4013 57.3267 23.5378 57.3267H28.0612C28.1977 57.3267 28.5922 56.9074 28.5922 56.106C28.5922 56.0761 28.5981 56.0481 28.6007 56.0195C28.6033 55.9909 28.5922 55.9623 28.5922 55.9324V46.3579C28.5922 46.0993 28.6949 45.8514 28.8778 45.6685C29.0606 45.4857 29.3086 45.3829 29.5672 45.3829H37.1449C37.1566 45.3829 37.167 45.3862 37.1787 45.3868C37.2051 45.3881 37.2313 45.3907 37.2574 45.3946C37.2956 45.3982 37.3336 45.404 37.3711 45.4122C37.3926 45.4174 37.4127 45.4252 37.4361 45.4317C37.476 45.4431 37.5151 45.4573 37.5531 45.4739C37.5707 45.4824 37.5869 45.4928 37.6045 45.5019C37.6424 45.5213 37.6791 45.543 37.7143 45.5669C37.7312 45.5786 37.7462 45.5935 37.7618 45.6065C37.7943 45.632 37.8252 45.6595 37.8541 45.6891C37.869 45.7047 37.882 45.7229 37.8957 45.7398C37.9228 45.7712 37.9478 45.8044 37.9704 45.8392C37.9815 45.8574 37.9906 45.8763 38.001 45.8951C38.0222 45.9331 38.0409 45.9724 38.0569 46.0128C38.0569 46.0193 38.0634 46.0251 38.0653 46.0316C38.3629 46.8693 38.8911 47.6058 39.5892 48.1561C40.2873 48.7065 41.1267 49.0483 42.0107 49.1421C42.8947 49.236 43.7871 49.078 44.5852 48.6865C45.3833 48.295 46.0544 47.6858 46.5212 46.9293C44.9022 46.5903 43.4302 45.7527 42.3118 44.534C42.2277 44.4374 42.1636 44.3252 42.1229 44.2037C42.0822 44.0823 42.0659 43.9541 42.0748 43.8263C42.0837 43.6986 42.1177 43.5738 42.1748 43.4592C42.2319 43.3446 42.311 43.2423 42.4076 43.1583C42.5043 43.0743 42.6165 43.0101 42.7379 42.9694C42.8594 42.9288 42.9876 42.9124 43.1154 42.9213C43.2431 42.9302 43.3679 42.9642 43.4825 43.0213C43.5971 43.0784 43.6993 43.1576 43.7834 43.2542C45.0119 44.6666 47.1419 45.3823 50.1137 45.3823C50.3723 45.3823 50.6203 45.485 50.8032 45.6679C50.986 45.8507 51.0887 46.0987 51.0887 46.3573V52.2417C51.088 52.3158 51.0788 52.3895 51.0614 52.4614V54.1709C51.0614 54.4295 50.9587 54.6775 50.7759 54.8604C50.593 55.0432 50.345 55.1459 50.0864 55.1459C50.0611 55.1459 50.0377 55.1401 50.013 55.1388C49.9883 55.1375 49.9642 55.1459 49.9389 55.1459C49.8097 55.2692 49.7104 55.4204 49.6487 55.5879C49.5869 55.7554 49.5644 55.9349 49.5827 56.1125C49.5827 56.9139 49.9772 57.3332 50.1137 57.3332H54.6364C54.7729 57.3332 55.1668 56.9139 55.1668 56.1125C55.1668 56.0826 55.1733 56.0546 55.1759 56.026C55.1785 55.9974 55.1668 55.9688 55.1668 55.9389V35.5484C55.1668 29.1654 52.7514 25.842 47.9993 25.6418M61.3555 42.5223C61.3478 41.7144 61.0399 40.9382 60.4916 40.3448C59.9387 40.935 59.631 41.7135 59.631 42.5223C59.631 43.3311 59.9387 44.1096 60.4916 44.6998C61.041 44.1065 61.3483 43.3289 61.3529 42.5203" fill="white"/>
</svg>
