<svg width="135" height="153" viewBox="0 0 135 153" fill="none" xmlns="http://www.w3.org/2000/svg">
<g clip-path="url(#clip0_7228_11264)">
<path d="M113.382 65.5597C114.232 64.8031 115.145 64.1218 116.112 63.5237C117.107 62.9733 118.149 62.5108 119.224 62.1415C123.594 60.7166 128.338 60.974 132.527 62.8632C132.285 65.7075 131.383 68.4563 129.894 70.8917C128.405 73.3272 126.369 75.3823 123.947 76.8944C121.443 78.2678 118.654 79.0386 115.8 79.1456C112.946 79.2526 110.106 78.6929 107.506 77.511C107.909 72.935 110.004 68.6726 113.382 65.5597ZM113.404 52.9879C113.322 50.1343 112.577 47.3389 111.227 44.8233C109.878 42.3077 107.961 40.1409 105.628 38.4946C101.883 41.1541 99.2637 45.115 98.2833 49.603C98.0597 50.7178 97.9332 51.8499 97.9051 52.9866C97.9332 54.1233 98.0597 55.2554 98.2833 56.3702C99.1409 60.4011 101.358 64.0146 104.563 66.605V152.327H106.739V66.5997C108.759 64.94 110.399 62.8656 111.548 60.5169C112.697 58.1683 113.327 55.6002 113.397 52.9866M88.0338 78.2074C90.6847 79.2666 93.5459 79.6936 96.3905 79.4546C99.2352 79.2156 101.985 78.3172 104.422 76.8305C103.47 72.3366 100.876 68.3594 97.1474 65.6769C96.2133 65.0283 95.2246 64.462 94.1925 63.9844C93.1384 63.5578 92.049 63.2241 90.9367 62.987C86.4289 62.1026 81.7532 62.9316 77.8243 65.312C78.4081 68.1064 79.6346 70.7264 81.4067 72.9645C83.1788 75.2026 85.4477 76.9985 88.0338 78.2074ZM122.407 81.0464C121.271 81.1056 120.142 81.2638 119.034 81.5192C117.94 81.8284 116.874 82.2321 115.85 82.7256C111.745 84.7878 108.558 88.3073 106.911 92.5955C109.083 94.4472 111.658 95.7672 114.429 96.451C117.201 97.1347 120.094 97.1632 122.878 96.5345C125.622 95.7481 128.146 94.3332 130.248 92.4021C132.35 90.4709 133.973 88.0765 134.989 85.4088C131.485 82.4383 126.998 80.8827 122.407 81.0464ZM94.8424 83.2769C93.787 82.8535 92.6967 82.5229 91.5839 82.2888C90.4608 82.1089 89.3242 82.0274 88.1869 82.0451C83.5975 82.1935 79.2283 84.0481 75.9334 87.2464C77.1271 89.8396 78.9086 92.119 81.1366 93.9039C83.3645 95.6887 85.9777 96.93 88.7689 97.5292C91.589 97.9677 94.4726 97.7433 97.191 96.8738C99.9094 96.0042 102.388 94.5135 104.43 92.5196C102.497 88.3516 99.0781 85.0565 94.8424 83.2769ZM122.407 100.308C121.271 100.367 120.142 100.526 119.034 100.781C117.94 101.09 116.874 101.494 115.85 101.987C111.745 104.05 108.558 107.569 106.911 111.857C109.084 113.71 111.659 115.03 114.432 115.713C117.205 116.397 120.098 116.425 122.884 115.795C125.628 115.009 128.151 113.594 130.253 111.663C132.355 109.731 133.979 107.337 134.995 104.669C131.488 101.699 126.999 100.143 122.407 100.308ZM94.8424 102.537C93.787 102.114 92.6967 101.783 91.5839 101.549C90.4608 101.369 89.3242 101.288 88.1869 101.306C83.5975 101.454 79.2283 103.309 75.9334 106.507C77.1267 109.101 78.9079 111.381 81.1359 113.167C83.3639 114.952 85.9773 116.194 88.7689 116.794C91.5892 117.232 94.4729 117.007 97.1913 116.137C99.9097 115.267 102.388 113.776 104.43 111.781C102.497 107.614 99.0779 104.317 94.8424 102.537ZM122.407 121.524C121.271 121.583 120.142 121.741 119.034 121.996C117.94 122.306 116.874 122.709 115.85 123.203C111.745 125.265 108.558 128.784 106.911 133.073C109.083 134.924 111.658 136.244 114.429 136.928C117.201 137.612 120.094 137.64 122.878 137.012C125.622 136.225 128.146 134.81 130.248 132.879C132.35 130.948 133.973 128.554 134.989 125.886C131.485 122.915 126.998 121.36 122.407 121.524ZM94.8424 123.754C93.787 123.331 92.6967 123 91.5839 122.766C90.4627 122.585 89.3278 122.503 88.1923 122.52C83.6007 122.667 79.2294 124.522 75.9334 127.722C77.1271 130.315 78.9086 132.595 81.1366 134.38C83.3645 136.165 85.9777 137.406 88.7689 138.005C91.5889 138.444 94.4724 138.22 97.1908 137.35C99.9092 136.481 102.388 134.99 104.43 132.997C102.497 128.829 99.0779 125.534 94.8424 123.754Z" fill="white"/>
<path d="M37.949 27.3918C38.7981 26.6351 39.7115 25.9539 40.6789 25.3557C41.674 24.8053 42.7153 24.3428 43.7908 23.9735C48.1602 22.5487 52.9041 22.8061 57.0937 24.6952C56.8512 27.5396 55.9496 30.2883 54.4604 32.7238C52.9712 35.1592 50.9353 37.2144 48.5141 38.7265C46.01 40.0998 43.2202 40.8706 40.3662 40.9776C37.5122 41.0846 34.6726 40.525 32.0726 39.343C32.4754 34.767 34.5709 30.5046 37.949 27.3918ZM37.9704 14.82C37.8886 11.9663 37.1434 9.17097 35.7938 6.65533C34.4443 4.13968 32.5274 1.9729 30.195 0.32666C26.4493 2.98612 23.8303 6.94704 22.8498 11.435C22.6263 12.5498 22.4998 13.682 22.4717 14.8186C22.4998 15.9553 22.6263 17.0874 22.8498 18.2023C23.7075 22.2331 25.9247 25.8466 29.1297 28.4371V114.159H31.3056V28.4318C33.3258 26.772 34.9657 24.6976 36.1144 22.3489C37.2631 20.0003 37.8938 17.4322 37.9637 14.8186M12.6004 40.0395C15.2513 41.0986 18.1125 41.5256 20.9571 41.2866C23.8018 41.0476 26.5516 40.1492 28.9886 38.6626C28.0369 34.1687 25.4429 30.1915 21.714 27.5089C20.7799 26.8603 19.7912 26.294 18.7591 25.8165C17.705 25.3899 16.6156 25.0561 15.5033 24.8191C10.9955 23.9346 6.31983 24.7637 2.3909 27.1441C2.97464 29.9384 4.20116 32.5585 5.97326 34.7965C7.74536 37.0346 10.0143 38.8305 12.6004 40.0395ZM46.9734 42.8785C45.8375 42.9376 44.7089 43.0958 43.6004 43.3512C42.5062 43.6604 41.4409 44.0641 40.4165 44.5576C36.3119 46.6199 33.1243 50.1393 31.4774 54.4276C33.6501 56.2792 36.2243 57.5993 38.9959 58.283C41.7675 58.9667 44.6602 58.9953 47.4448 58.3665C50.1889 57.5801 52.7122 56.1653 54.8144 54.2341C56.9166 52.3029 58.54 49.9085 59.5559 47.2408C56.0514 44.2704 51.5645 42.7147 46.9734 42.8785ZM19.409 45.1089C18.3536 44.6855 17.2633 44.3549 16.1505 44.1209C15.0274 43.9409 13.8908 43.8594 12.7535 43.8772C8.16405 44.0255 3.79485 45.8801 0.5 49.0785C1.69373 51.6716 3.47522 53.951 5.70318 55.7359C7.93114 57.5208 10.5443 58.762 13.3354 59.3612C16.1556 59.7997 19.0392 59.5753 21.7576 58.7058C24.476 57.8363 26.9545 56.3455 28.9966 54.3517C27.0637 50.1837 23.6447 46.8885 19.409 45.1089ZM46.9734 62.1403C45.8375 62.1994 44.7089 62.3576 43.6004 62.613C42.5062 62.9223 41.4409 63.3259 40.4165 63.8195C36.3119 65.8817 33.1243 69.4012 31.4774 73.6894C33.6508 75.5416 36.2259 76.8619 38.9985 77.5454C41.7711 78.2289 44.6649 78.2568 47.4501 77.627C50.1943 76.8406 52.7175 75.4258 54.8197 73.4946C56.9219 71.5634 58.5453 69.169 59.5612 66.5013C56.0549 63.5305 51.5661 61.9754 46.9734 62.1403ZM19.409 64.3694C18.3536 63.946 17.2633 63.6154 16.1505 63.3814C15.0274 63.2014 13.8908 63.1199 12.7535 63.1377C8.16405 63.286 3.79485 65.1406 0.5 68.339C1.69324 70.9329 3.47451 73.2131 5.7025 74.9986C7.93049 76.7842 10.5439 78.0261 13.3354 78.6257C16.1558 79.0639 19.0395 78.8391 21.7579 77.9691C24.4763 77.0991 26.9547 75.6078 28.9966 73.6135C27.0634 69.4457 23.6445 66.1493 19.409 64.3694ZM46.9734 83.3556C45.8375 83.4148 44.7089 83.573 43.6004 83.8283C42.5062 84.1376 41.4409 84.5412 40.4165 85.0348C36.3119 87.097 33.1243 90.6165 31.4774 94.9047C33.6501 96.7564 36.2243 98.0764 38.9959 98.7601C41.7675 99.4438 44.6602 99.4724 47.4448 98.8436C50.1889 98.0573 52.7122 96.6424 54.8144 94.7112C56.9166 92.7801 58.54 90.3857 59.5559 87.718C56.0514 84.7475 51.5645 83.1919 46.9734 83.3556ZM19.409 85.5861C18.3536 85.1627 17.2633 84.8321 16.1505 84.598C15.0293 84.4175 13.8944 84.3351 12.7589 84.3516C8.16734 84.499 3.79599 86.3542 0.5 89.5543C1.69373 92.1475 3.47522 94.4268 5.70318 96.2117C7.93114 97.9966 10.5443 99.2378 13.3354 99.837C16.1555 100.276 19.039 100.052 21.7574 99.1822C24.4758 98.3129 26.9543 96.8224 28.9966 94.8288C27.0634 90.661 23.6445 87.366 19.409 85.5861Z" fill="white"/>
</g>
<defs>
<clipPath id="clip0_7228_11264">
<rect width="134.495" height="152" fill="white" transform="translate(0.5 0.32666)"/>
</clipPath>
</defs>
</svg>
