<svg width="81" height="143" viewBox="0 0 81 143" fill="none" xmlns="http://www.w3.org/2000/svg">
<mask id="mask0_7228_18136" style="mask-type:luminance" maskUnits="userSpaceOnUse" x="0" y="0" width="81" height="143">
<path d="M8.64771 112.521C9.38915 111.595 10.1883 110.647 10.4459 109.491C10.8533 107.661 9.81918 105.863 8.98297 104.184C4.26292 94.7031 5.49371 82.6457 11.7817 74.1622C10.8865 73.8205 10.0481 73.4248 9.40269 72.8355C8.35629 71.88 8.00653 70.5527 8.11162 69.2978C8.21703 68.0431 8.73249 66.8342 9.24408 65.642C10.1822 67.0241 11.6612 68.1255 12.9019 69.3535C13.4593 69.905 13.9767 70.5087 14.3629 71.1474C15.5121 69.9279 16.6443 68.6543 16.9637 67.0408C17.4511 64.582 15.907 62.2451 14.7362 60.0266C9.11739 49.3861 11.9809 35.0152 21.2537 27.3147C22.3781 26.3809 23.5877 25.5317 24.7601 24.6477C23.8449 23.7075 23.5306 22.4624 23.6302 21.2775C23.7356 20.0228 24.2511 18.8139 24.7623 17.6217C25.7004 19.0038 27.1794 20.1051 28.4205 21.3329C28.4215 21.3339 28.4225 21.3351 28.4238 21.3361C28.5682 21.1631 28.7094 20.9868 28.8448 20.8052C31.3924 17.3932 31.8921 12.9401 33.1992 8.89265C34.5064 4.84548 37.3661 0.63007 41.6242 0.302166C46.8713 -0.102048 50.5305 5.56677 51.4966 10.7168C52.4621 15.8665 52.1149 21.5034 54.9546 25.9145C56.46 28.2529 58.7211 29.9916 60.5876 32.0557C70.5077 43.0272 67.4968 60.0379 63.8808 74.3531C67.3949 76.5414 70.116 79.6636 71.9999 83.2622C72.9319 82.7013 73.8641 82.1402 74.7961 81.5794C74.7384 83.2393 74.249 84.8858 73.3912 86.4052C73.7832 87.4718 74.1101 88.5648 74.3689 89.6757C76.1977 88.7227 78.3137 88.1397 80.3984 87.5746C79.5226 89.3143 78.3953 90.9768 77.0446 92.5201C76.4907 93.1527 75.8222 93.7937 75.0482 94.2694C75.524 101.488 73.2568 108.864 67.9839 113.902C74.7364 117.894 78.3885 126.473 76.5746 134.079C75.8515 137.111 74.2735 139.883 72.153 142.166H3.96345C2.41223 139.709 1.39646 136.886 1.09924 134.023C0.294945 126.276 3.77229 118.612 8.64771 112.521Z" fill="white"/>
</mask>
<g mask="url(#mask0_7228_18136)">
<path d="M8.64771 112.521C9.38915 111.595 10.1883 110.647 10.4459 109.491C10.8533 107.661 9.81918 105.863 8.98297 104.184C4.26292 94.7031 5.49371 82.6457 11.7817 74.1622C10.8865 73.8205 10.0481 73.4248 9.40269 72.8355C8.35629 71.88 8.00653 70.5527 8.11162 69.2978C8.21703 68.0431 8.73249 66.8342 9.24408 65.642C10.1822 67.0241 11.6612 68.1255 12.9019 69.3535C13.4593 69.905 13.9767 70.5087 14.3629 71.1474C15.5121 69.9279 16.6443 68.6543 16.9637 67.0408C17.4511 64.582 15.907 62.2451 14.7362 60.0266C9.11739 49.3861 11.9809 35.0152 21.2537 27.3147C22.3781 26.3809 23.5877 25.5317 24.7601 24.6477C23.8449 23.7075 23.5306 22.4624 23.6302 21.2775C23.7356 20.0228 24.2511 18.8139 24.7623 17.6217C25.7004 19.0038 27.1794 20.1051 28.4205 21.3329C28.4215 21.3339 28.4225 21.3351 28.4238 21.3361C28.5682 21.1631 28.7094 20.9868 28.8448 20.8052C31.3924 17.3932 31.8921 12.9401 33.1992 8.89265C34.5064 4.84548 37.3661 0.63007 41.6242 0.302166C46.8713 -0.102048 50.5305 5.56677 51.4966 10.7168C52.4621 15.8665 52.1149 21.5034 54.9546 25.9145C56.46 28.2529 58.7211 29.9916 60.5876 32.0557C70.5077 43.0272 67.4968 60.0379 63.8808 74.3531C67.3949 76.5414 70.116 79.6636 71.9999 83.2622C72.9319 82.7013 73.8641 82.1402 74.7961 81.5794C74.7384 83.2393 74.249 84.8858 73.3912 86.4052C73.7832 87.4718 74.1101 88.5648 74.3689 89.6757C76.1977 88.7227 78.3137 88.1397 80.3984 87.5746C79.5226 89.3143 78.3953 90.9768 77.0446 92.5201C76.4907 93.1527 75.8222 93.7937 75.0482 94.2694C75.524 101.488 73.2568 108.864 67.9839 113.902C74.7364 117.894 78.3885 126.473 76.5746 134.079C75.8515 137.111 74.2735 139.883 72.153 142.166H3.96345C2.41223 139.709 1.39646 136.886 1.09924 134.023C0.294945 126.276 3.77229 118.612 8.64771 112.521Z" fill="#00847E"/>
</g>
<mask id="mask1_7228_18136" style="mask-type:luminance" maskUnits="userSpaceOnUse" x="0" y="0" width="81" height="143">
<path d="M8.64771 112.521C9.38915 111.595 10.1883 110.647 10.4459 109.491C10.8533 107.661 9.81918 105.863 8.98297 104.184C4.26292 94.7031 5.49371 82.6457 11.7817 74.1622C10.8865 73.8205 10.0481 73.4248 9.40269 72.8355C8.35629 71.88 8.00653 70.5527 8.11162 69.2978C8.21703 68.0431 8.73249 66.8342 9.24408 65.642C10.1822 67.0241 11.6612 68.1255 12.9019 69.3535C13.4593 69.905 13.9767 70.5087 14.3629 71.1474C15.5121 69.9279 16.6443 68.6543 16.9637 67.0408C17.4511 64.582 15.907 62.2451 14.7362 60.0266C9.11739 49.3861 11.9809 35.0152 21.2537 27.3147C22.3781 26.3809 23.5877 25.5317 24.7601 24.6477C23.8449 23.7075 23.5306 22.4624 23.6302 21.2775C23.7356 20.0228 24.2511 18.8139 24.7623 17.6217C25.7004 19.0038 27.1794 20.1051 28.4205 21.3329C28.4215 21.3339 28.4225 21.3351 28.4238 21.3361C28.5682 21.1631 28.7094 20.9868 28.8448 20.8052C31.3924 17.3932 31.8921 12.9401 33.1992 8.89265C34.5064 4.84548 37.3661 0.63007 41.6242 0.302166C46.8713 -0.102048 50.5305 5.56677 51.4966 10.7168C52.4621 15.8665 52.1149 21.5034 54.9546 25.9145C56.46 28.2529 58.7211 29.9916 60.5876 32.0557C70.5077 43.0272 67.4968 60.0379 63.8808 74.3531C67.3949 76.5414 70.116 79.6636 71.9999 83.2622C72.9319 82.7013 73.8641 82.1402 74.7961 81.5794C74.7384 83.2393 74.249 84.8858 73.3912 86.4052C73.7832 87.4718 74.1101 88.5648 74.3689 89.6757C76.1977 88.7227 78.3137 88.1397 80.3984 87.5746C79.5226 89.3143 78.3953 90.9768 77.0446 92.5201C76.4907 93.1527 75.8222 93.7937 75.0482 94.2694C75.524 101.488 73.2568 108.864 67.9839 113.902C74.7364 117.894 78.3885 126.473 76.5746 134.079C75.8515 137.111 74.2735 139.883 72.153 142.166H3.96345C2.41223 139.709 1.39646 136.886 1.09924 134.023C0.294945 126.276 3.77229 118.612 8.64771 112.521Z" fill="white"/>
</mask>
<g mask="url(#mask1_7228_18136)">
<path opacity="0.49" d="M62.775 142.856C62.775 142.856 70.5778 134.389 63.2085 122.536C63.2085 122.536 58.8737 121.52 58.0066 119.15H62.3414C62.3414 119.15 57.573 115.424 57.573 112.037L61.9078 113.053C61.9078 113.053 69.2774 100.184 55.4054 83.2506C55.4054 83.2506 51.5038 79.5252 51.5038 78.1706C51.5038 76.8159 55.8387 79.864 55.8387 79.864C55.8387 79.864 67.9766 53.1093 53.6711 36.5146C53.6711 36.5146 49.3363 32.1119 48.9027 31.0959C48.4691 30.08 53.2375 33.1278 53.2375 33.1278C53.2375 33.1278 46.3015 11.4531 46.7351 2.64781C47.1687 -6.1575 48.0355 -6.83497 39.3656 -6.49623C30.6956 -6.1575 3.81885 16.5331 3.38559 18.2265C2.95201 19.92 -3.1168 47.0134 -2.68322 51.7546C-2.24964 56.4959 -2.68322 97.1361 -3.11681 99.168C-3.55038 101.2 -5.28438 133.712 -5.28438 133.712L-3.11681 145.904L62.775 142.856Z" fill="#10566D"/>
</g>
<path d="M46.349 56.0365C46.349 56.0365 49.2841 52.4693 47.3274 49.6665C47.3274 49.6665 44.066 52.2144 46.349 56.0365Z" fill="#10566D"/>
<path d="M47.9817 74.1283C47.9817 74.1283 50.9171 70.5611 48.96 67.7583C48.96 67.7583 45.6987 70.3062 47.9817 74.1283Z" fill="#10566D"/>
<path d="M38.849 43.5521C38.849 43.5521 41.7841 39.9849 39.8274 37.1821C39.8274 37.1821 36.566 39.7301 38.849 43.5521Z" fill="#00847E"/>
<path d="M46.0207 130.948C46.0207 130.948 48.9562 127.38 46.9991 124.578C46.9991 124.578 43.7378 127.126 46.0207 130.948Z" fill="#00847E"/>
<path d="M36.5677 35.9076C36.5677 35.9076 39.5029 32.3404 37.5461 29.5376C37.5461 29.5376 34.2848 32.0855 36.5677 35.9076Z" fill="#00847E"/>
<path d="M41.1302 61.8978C41.1302 61.8978 44.0654 58.3306 42.1086 55.5278C42.1086 55.5278 38.8469 58.0758 41.1302 61.8978Z" fill="#00847E"/>
<path d="M54.177 104.703C54.177 104.703 57.1124 101.136 55.1554 98.3335C55.1554 98.3335 51.894 100.881 54.177 104.703Z" fill="#00847E"/>
<path d="M48.9584 94.7669C48.9584 94.7669 51.8935 91.1998 49.9367 88.397C49.9367 88.397 46.6754 90.9449 48.9584 94.7669Z" fill="#00847E"/>
<path d="M46.0719 64.0516C46.0719 64.0516 50.5811 61.691 50.213 58.5112C50.213 58.5112 45.9233 59.8357 46.0719 64.0516Z" fill="#10566D"/>
<path d="M37.9157 99.7242C37.9157 99.7242 42.4249 97.3636 42.0568 94.1841C42.0568 94.1841 37.7671 95.5081 37.9157 99.7242Z" fill="#10566D"/>
<path d="M42.8063 90.0416C42.8063 90.0416 47.3158 87.681 46.9473 84.5015C46.9473 84.5015 42.6576 85.8257 42.8063 90.0416Z" fill="#10566D"/>
<path d="M48.6813 118.834C48.6813 118.834 53.1908 116.473 52.8223 113.293C52.8223 113.293 48.5326 114.618 48.6813 118.834Z" fill="#10566D"/>
<path d="M40.8532 106.858C40.8532 106.858 45.3624 104.498 44.9943 101.318C44.9943 101.318 40.7049 102.642 40.8532 106.858Z" fill="#10566D"/>
</svg>
