<svg width="65" height="115" viewBox="0 0 65 115" fill="none" xmlns="http://www.w3.org/2000/svg">
<mask id="mask0_7228_18161" style="mask-type:luminance" maskUnits="userSpaceOnUse" x="0" y="0" width="65" height="116">
<path d="M6.94302 91.1694C7.53907 90.4247 8.18186 89.6621 8.38914 88.7323C8.71666 87.261 7.88529 85.8149 7.21284 84.4647C3.41734 76.8413 4.40699 67.1455 9.46358 60.3237C8.74375 60.049 8.06936 59.7309 7.55036 59.2569C6.70899 58.4885 6.42756 57.4212 6.51234 56.4123C6.59713 55.4031 7.01168 54.4313 7.42302 53.4725C8.17735 54.5839 9.36655 55.4696 10.3646 56.4569C10.8127 56.9004 11.2288 57.3857 11.5393 57.8994C12.4635 56.919 13.3739 55.8947 13.6308 54.5972C14.0228 52.62 12.781 50.7407 11.8394 48.9569C7.32116 40.4006 9.62379 28.8444 17.0804 22.6525C17.9846 21.9018 18.9572 21.2187 19.9001 20.5078C19.1642 19.752 18.9114 18.7504 18.9917 17.7979C19.0765 16.7888 19.491 15.8169 19.902 14.8581C20.6564 15.9695 21.8459 16.8553 22.8436 17.8425C22.8442 17.8432 22.8452 17.8442 22.8462 17.845C22.9622 17.706 23.0757 17.5642 23.1847 17.4181C25.2333 14.6743 25.6353 11.0935 26.6862 7.83889C27.7374 4.58453 30.0368 1.19492 33.461 0.930987C37.6804 0.605853 40.6226 5.16428 41.3995 9.30565C42.1761 13.4468 41.8969 17.9795 44.1802 21.5265C45.391 23.4068 47.2088 24.805 48.7097 26.465C56.6866 35.2874 54.2657 48.9662 51.358 60.4773C54.1838 62.237 56.3717 64.7477 57.8868 67.6414C58.6363 67.1903 59.3858 66.7393 60.1353 66.2882C60.0888 67.623 59.6952 68.9469 59.0057 70.1686C59.321 71.0262 59.5837 71.9054 59.7919 72.7987C61.2626 72.0323 62.964 71.5636 64.6406 71.109C63.9363 72.5081 63.0298 73.8448 61.9437 75.0857C61.4985 75.5944 60.9608 76.1097 60.3384 76.4925C60.7207 82.2973 58.898 88.2286 54.6577 92.2793C60.0876 95.4901 63.0243 102.388 61.5656 108.504C60.9841 110.942 59.7152 113.171 58.0103 115.007H3.17717C1.92962 113.032 1.11275 110.762 0.873886 108.459C0.226257 102.23 3.02244 96.0668 6.94302 91.1694Z" fill="white"/>
</mask>
<g mask="url(#mask0_7228_18161)">
<path d="M6.94302 91.1694C7.53907 90.4247 8.18186 89.6621 8.38914 88.7323C8.71666 87.261 7.88529 85.8149 7.21284 84.4647C3.41734 76.8413 4.40699 67.1455 9.46358 60.3237C8.74375 60.049 8.06936 59.7309 7.55036 59.2569C6.70899 58.4885 6.42756 57.4212 6.51234 56.4123C6.59713 55.4031 7.01168 54.4313 7.42302 53.4725C8.17735 54.5839 9.36655 55.4696 10.3646 56.4569C10.8127 56.9004 11.2288 57.3857 11.5393 57.8994C12.4635 56.919 13.3739 55.8947 13.6308 54.5972C14.0228 52.62 12.781 50.7407 11.8394 48.9569C7.32116 40.4006 9.62379 28.8444 17.0804 22.6525C17.9846 21.9018 18.9572 21.2187 19.9001 20.5078C19.1642 19.752 18.9114 18.7504 18.9917 17.7979C19.0765 16.7888 19.491 15.8169 19.902 14.8581C20.6564 15.9695 21.8459 16.8553 22.8436 17.8425C22.8442 17.8432 22.8452 17.8442 22.8462 17.845C22.9622 17.706 23.0757 17.5642 23.1847 17.4181C25.2333 14.6743 25.6353 11.0935 26.6862 7.83889C27.7374 4.58453 30.0368 1.19492 33.461 0.930987C37.6804 0.605853 40.6226 5.16428 41.3995 9.30565C42.1761 13.4468 41.8969 17.9795 44.1802 21.5265C45.391 23.4068 47.2088 24.805 48.7097 26.465C56.6866 35.2874 54.2657 48.9662 51.358 60.4773C54.1838 62.237 56.3717 64.7477 57.8868 67.6414C58.6363 67.1903 59.3858 66.7393 60.1353 66.2882C60.0888 67.623 59.6952 68.9469 59.0057 70.1686C59.321 71.0262 59.5837 71.9054 59.7919 72.7987C61.2626 72.0323 62.964 71.5636 64.6406 71.109C63.9363 72.5081 63.0298 73.8448 61.9437 75.0857C61.4985 75.5944 60.9608 76.1097 60.3384 76.4925C60.7207 82.2973 58.898 88.2286 54.6577 92.2793C60.0876 95.4901 63.0243 102.388 61.5656 108.504C60.9841 110.942 59.7152 113.171 58.0103 115.007H3.17717C1.92962 113.032 1.11275 110.762 0.873886 108.459C0.226257 102.23 3.02244 96.0668 6.94302 91.1694Z" fill="#00847E"/>
</g>
<mask id="mask1_7228_18161" style="mask-type:luminance" maskUnits="userSpaceOnUse" x="0" y="0" width="65" height="116">
<path d="M6.94302 91.1694C7.53907 90.4247 8.18186 89.6621 8.38914 88.7323C8.71666 87.261 7.88529 85.8149 7.21284 84.4647C3.41734 76.8413 4.40699 67.1455 9.46358 60.3237C8.74375 60.049 8.06936 59.7309 7.55036 59.2569C6.70899 58.4885 6.42756 57.4212 6.51234 56.4123C6.59713 55.4031 7.01168 54.4313 7.42302 53.4725C8.17735 54.5839 9.36655 55.4696 10.3646 56.4569C10.8127 56.9004 11.2288 57.3857 11.5393 57.8994C12.4635 56.919 13.3739 55.8947 13.6308 54.5972C14.0228 52.62 12.781 50.7407 11.8394 48.9569C7.32116 40.4006 9.62379 28.8444 17.0804 22.6525C17.9846 21.9018 18.9572 21.2187 19.9001 20.5078C19.1642 19.752 18.9114 18.7504 18.9917 17.7979C19.0765 16.7888 19.491 15.8169 19.902 14.8581C20.6564 15.9695 21.8459 16.8553 22.8436 17.8425C22.8442 17.8432 22.8452 17.8442 22.8462 17.845C22.9622 17.706 23.0757 17.5642 23.1847 17.4181C25.2333 14.6743 25.6353 11.0935 26.6862 7.83889C27.7374 4.58453 30.0368 1.19492 33.461 0.930987C37.6804 0.605853 40.6226 5.16428 41.3995 9.30565C42.1761 13.4468 41.8969 17.9795 44.1802 21.5265C45.391 23.4068 47.2088 24.805 48.7097 26.465C56.6866 35.2874 54.2657 48.9662 51.358 60.4773C54.1838 62.237 56.3717 64.7477 57.8868 67.6414C58.6363 67.1903 59.3858 66.7393 60.1353 66.2882C60.0888 67.623 59.6952 68.9469 59.0057 70.1686C59.321 71.0262 59.5837 71.9054 59.7919 72.7987C61.2626 72.0323 62.964 71.5636 64.6406 71.109C63.9363 72.5081 63.0298 73.8448 61.9437 75.0857C61.4985 75.5944 60.9608 76.1097 60.3384 76.4925C60.7207 82.2973 58.898 88.2286 54.6577 92.2793C60.0876 95.4901 63.0243 102.388 61.5656 108.504C60.9841 110.942 59.7152 113.171 58.0103 115.007H3.17717C1.92962 113.032 1.11275 110.762 0.873886 108.459C0.226257 102.23 3.02244 96.0668 6.94302 91.1694Z" fill="white"/>
</mask>
<g mask="url(#mask1_7228_18161)">
<path opacity="0.49" d="M50.4645 115.564C50.4645 115.564 56.739 108.755 50.813 99.224C50.813 99.224 47.3273 98.407 46.63 96.5008H50.1157C50.1157 96.5008 46.2812 93.5051 46.2812 90.7818L49.7669 91.5988C49.7669 91.5988 55.6929 81.2502 44.5382 67.6336C44.5382 67.6336 41.4009 64.6379 41.4009 63.5487C41.4009 62.4594 44.8867 64.9104 44.8867 64.9104C44.8867 64.9104 54.6472 43.3962 43.1436 30.0518C43.1436 30.0518 39.6579 26.5116 39.3091 25.6944C38.9607 24.8774 42.7948 27.3283 42.7948 27.3283C42.7948 27.3283 37.2176 9.89904 37.5661 2.81838C37.9146 -4.26229 38.6119 -4.80679 31.6401 -4.53454C24.6683 -4.2623 3.05611 13.984 2.70764 15.3457C2.35916 16.7075 -2.5211 38.494 -2.17263 42.3067C-1.82415 46.1194 -2.17263 78.7992 -2.5211 80.4332C-2.86958 82.0672 -4.26411 108.211 -4.26411 108.211L-2.5211 118.015L50.4645 115.564Z" fill="#10566D"/>
</g>
<mask id="mask2_7228_18161" style="mask-type:luminance" maskUnits="userSpaceOnUse" x="0" y="0" width="65" height="116">
<path d="M6.94302 91.1694C7.53907 90.4247 8.18186 89.6621 8.38914 88.7323C8.71666 87.261 7.88529 85.8149 7.21284 84.4647C3.41734 76.8413 4.40699 67.1455 9.46358 60.3237C8.74375 60.049 8.06936 59.7309 7.55036 59.2569C6.70899 58.4885 6.42756 57.4212 6.51234 56.4123C6.59713 55.4031 7.01168 54.4313 7.42302 53.4725C8.17735 54.5839 9.36655 55.4696 10.3646 56.4569C10.8127 56.9004 11.2288 57.3857 11.5393 57.8994C12.4635 56.919 13.3739 55.8947 13.6308 54.5972C14.0228 52.62 12.781 50.7407 11.8394 48.9569C7.32116 40.4006 9.62379 28.8444 17.0804 22.6525C17.9846 21.9018 18.9572 21.2187 19.9001 20.5078C19.1642 19.752 18.9114 18.7504 18.9917 17.7979C19.0765 16.7888 19.491 15.8169 19.902 14.8581C20.6564 15.9695 21.8459 16.8553 22.8436 17.8425C22.8442 17.8432 22.8452 17.8442 22.8462 17.845C22.9622 17.706 23.0757 17.5642 23.1847 17.4181C25.2333 14.6743 25.6353 11.0935 26.6862 7.83889C27.7374 4.58453 30.0368 1.19492 33.461 0.930987C37.6804 0.605853 40.6226 5.16428 41.3995 9.30565C42.1761 13.4468 41.8969 17.9795 44.1802 21.5265C45.391 23.4068 47.2088 24.805 48.7097 26.465C56.6866 35.2874 54.2657 48.9662 51.358 60.4773C54.1838 62.237 56.3717 64.7477 57.8868 67.6414C58.6363 67.1903 59.3858 66.7393 60.1353 66.2882C60.0888 67.623 59.6952 68.9469 59.0057 70.1686C59.321 71.0262 59.5837 71.9054 59.7919 72.7987C61.2626 72.0323 62.964 71.5636 64.6406 71.109C63.9363 72.5081 63.0298 73.8448 61.9437 75.0857C61.4985 75.5944 60.9608 76.1097 60.3384 76.4925C60.7207 82.2973 58.898 88.2286 54.6577 92.2793C60.0876 95.4901 63.0243 102.388 61.5656 108.504C60.9841 110.942 59.7152 113.171 58.0103 115.007H3.17717C1.92962 113.032 1.11275 110.762 0.873886 108.459C0.226257 102.23 3.02244 96.0668 6.94302 91.1694Z" fill="white"/>
</mask>
<g mask="url(#mask2_7228_18161)">
<path d="M37.2582 45.7497C37.2582 45.7497 39.6185 42.8812 38.0451 40.6274C38.0451 40.6274 35.4223 42.6765 37.2582 45.7497Z" fill="#10566D"/>
<path d="M38.5785 60.2966C38.5785 60.2966 40.9389 57.4281 39.3654 55.1743C39.3654 55.1743 36.743 57.2231 38.5785 60.2966Z" fill="#10566D"/>
<path d="M31.227 35.7087C31.227 35.7087 33.5873 32.8402 32.0138 30.5864C32.0138 30.5864 29.3911 32.6352 31.227 35.7087Z" fill="#00847E"/>
<path d="M37.0004 105.987C37.0004 105.987 39.3607 103.119 37.7873 100.865C37.7873 100.865 35.1645 102.914 37.0004 105.987Z" fill="#00847E"/>
<path d="M29.391 29.5622C29.391 29.5622 31.7514 26.6937 30.1779 24.4399C30.1779 24.4399 27.5551 26.489 29.391 29.5622Z" fill="#00847E"/>
<path d="M33.0629 50.4607C33.0629 50.4607 35.4232 47.5922 33.8498 45.3384C33.8498 45.3384 31.227 47.3874 33.0629 50.4607Z" fill="#00847E"/>
<path d="M43.5551 84.8836C43.5551 84.8836 45.9154 82.015 44.342 79.7612C44.342 79.7612 41.7192 81.81 43.5551 84.8836Z" fill="#00847E"/>
<path d="M39.3598 76.8923C39.3598 76.8923 41.7201 74.0238 40.1466 71.77C40.1466 71.77 37.5239 73.8188 39.3598 76.8923Z" fill="#00847E"/>
<path d="M37.0356 52.1939C37.0356 52.1939 40.6619 50.2958 40.3656 47.7388C40.3656 47.7388 36.9163 48.8036 37.0356 52.1939Z" fill="#10566D"/>
<path d="M30.4809 80.8795C30.4809 80.8795 34.1072 78.9813 33.8109 76.4243C33.8109 76.4243 30.3616 77.4891 30.4809 80.8795Z" fill="#10566D"/>
<path d="M34.4106 73.0924C34.4106 73.0924 38.0369 71.1942 37.7406 68.6372C37.7406 68.6372 34.2913 69.7023 34.4106 73.0924Z" fill="#10566D"/>
<path d="M39.1293 96.2457C39.1293 96.2457 42.7556 94.3475 42.4594 91.7905C42.4594 91.7905 39.0097 92.8556 39.1293 96.2457Z" fill="#10566D"/>
<path d="M32.8403 86.6158C32.8403 86.6158 36.4665 84.7176 36.1703 82.1606C36.1703 82.1606 32.721 83.2257 32.8403 86.6158Z" fill="#10566D"/>
</g>
</svg>
