<svg width="172" height="172" viewBox="0 0 172 172" fill="none" xmlns="http://www.w3.org/2000/svg">
<path d="M160.929 68.0752C156.587 62.7057 149.867 59.8303 142.983 60.3656C139.935 60.6026 136.932 61.001 133.939 61.5306C136.118 59.4478 138.222 57.2389 140.185 54.9091C144.689 49.6435 146.279 42.5262 144.508 35.8681C142.274 27.4976 135.032 21.298 126.419 20.3841C119.537 19.6657 112.756 22.3702 108.282 27.6005C106.287 29.9329 104.428 32.3207 102.708 34.7966C102.768 31.7569 102.697 28.7274 102.46 25.6779C101.925 18.7918 98.0463 12.5945 92.072 9.13337C84.5789 4.80061 75.04 5.54229 68.3394 10.9787C62.9719 15.3217 60.0979 22.044 60.6333 28.9301C60.8704 31.9796 61.2689 34.9836 61.7984 37.9775C59.7162 35.7971 57.5079 33.6926 55.1787 31.7294C49.9146 27.2233 42.7996 25.6323 36.1438 27.4033C27.7737 29.6046 21.5463 36.8846 20.6306 45.467C19.9127 52.3515 22.6167 59.1349 27.8455 63.6108C30.1772 65.6068 32.5643 67.4665 35.0396 69.1874C32.0009 69.1267 28.9724 69.1973 25.9239 69.4343C19.0401 69.9695 12.8451 73.8491 9.38536 79.8252C5.05442 87.3206 5.79635 96.8627 11.2313 103.566C15.5731 108.935 22.2934 111.811 29.1771 111.275C32.2257 111.038 35.2287 110.64 38.2215 110.11C36.042 112.193 33.9382 114.402 31.9758 116.732C27.4715 121.998 25.8813 129.115 27.6522 135.773C29.886 144.143 37.1285 150.343 45.7408 151.257C47.0371 151.387 48.2929 151.421 49.5713 151.322C55.0784 150.894 60.2532 148.314 63.8783 144.041C65.8735 141.708 67.7324 139.32 69.4527 136.844C69.3922 139.884 69.4629 142.914 69.7 145.963C70.2354 152.849 74.114 159.046 80.0883 162.508C83.8197 164.692 88.0771 165.581 92.2401 165.258C96.4032 164.934 100.472 163.397 103.821 160.662C109.188 156.319 112.062 149.597 111.527 142.711C111.29 139.661 110.891 136.657 110.362 133.664C112.444 135.844 114.652 137.948 116.982 139.912C121.256 143.571 126.768 145.32 132.242 144.894C133.488 144.797 134.758 144.599 136.016 144.238C144.384 142.004 150.581 134.759 151.494 126.144C152.212 119.259 149.508 112.476 144.28 108C141.948 106.004 139.561 104.144 137.085 102.423C140.124 102.484 143.153 102.413 146.201 102.176C153.085 101.641 159.28 97.7616 162.74 91.7855C167.106 84.3204 166.367 74.8111 160.929 68.0752ZM109.304 28.4447C112.72 24.4513 117.577 22.0283 122.724 21.6282C123.904 21.5364 125.092 21.543 126.322 21.6783C134.37 22.5371 141.188 28.3738 143.28 36.1945C144.955 42.4641 143.428 49.1147 139.228 54.0597C136.81 56.8869 134.278 59.525 131.569 62.0118C118.229 64.7645 105.61 70.4301 94.61 78.6749L88.0981 83.5688L91.925 76.3765C98.4004 64.2279 102.048 50.9136 102.669 37.2738C104.672 34.1821 106.883 31.2391 109.304 28.4447ZM129.528 63.754C119.947 72.0204 108.756 78.2348 96.5469 81.9552L89.4931 84.1201L95.3825 79.7035C105.569 72.0168 117.187 66.6269 129.528 63.754ZM87.2673 82.2149L88.3152 74.9088C90.1024 62.267 94.5076 50.2133 101.194 39.4998C100.261 52.1082 96.7338 64.4235 90.7518 75.709L87.2673 82.2149ZM61.9445 28.8281C61.4422 22.3683 64.1527 16.0876 69.1775 12.0021C75.4749 6.89402 84.4238 6.19822 91.435 10.2715C97.0309 13.5312 100.68 19.3175 101.182 25.7773C101.467 29.4499 101.524 33.1403 101.38 36.8132C93.8881 48.1832 88.9566 61.1025 87.0492 74.7433L85.8961 82.8163L83.5089 75.0186C79.4857 61.8718 72.6493 49.8675 63.487 39.7595C62.745 36.1554 62.2326 32.5335 61.9445 28.8281ZM84.3827 82.4391L79.9673 76.5475C72.28 66.3248 66.8914 54.7028 64.0541 42.3876C72.3182 51.9716 78.5311 63.1667 82.2509 75.3803L84.3827 82.4391ZM28.7247 62.6187C23.8139 58.4151 21.2742 52.0477 21.9597 45.5945C22.8178 37.5445 28.6522 30.7239 36.4702 28.6316C42.7377 26.9566 49.3862 28.485 54.3297 32.6861C57.1561 35.1055 59.7934 37.6385 62.2468 40.3508C64.9992 53.6953 70.6636 66.3185 78.9063 77.3228L83.7989 83.8371L76.6088 80.0086C64.4638 73.5304 51.1563 69.9136 37.5185 69.2586C34.4605 67.2531 31.5183 65.0406 28.7247 62.6187ZM82.4782 84.6655L75.1745 83.617C62.5368 81.8285 50.4869 77.4212 39.7766 70.7324C52.3808 71.6658 64.6922 75.195 75.9743 81.1796L82.4782 84.6655ZM29.1105 109.994C22.6529 110.496 16.3741 107.784 12.2897 102.758C7.18294 96.458 6.4869 87.5061 10.5585 80.4927C13.8168 74.8952 19.601 71.2455 26.0586 70.7434C29.73 70.4579 33.4192 70.402 37.0909 70.5454C48.4575 78.0408 61.3727 82.9746 75.0091 84.8834L83.0795 86.0373L75.2845 88.4248C62.1423 92.4486 50.1424 99.2867 40.0382 108.452C36.4681 109.191 32.8146 109.706 29.1105 109.994ZM82.7026 87.5511L76.8131 91.9677C66.5942 99.657 54.9763 105.047 42.6653 107.884C52.2457 99.618 63.4368 93.4037 75.6462 89.6833L82.7026 87.5511ZM62.8916 143.227C58.6896 148.139 52.3245 150.679 45.8734 149.993C37.826 149.134 31.0074 143.297 28.9153 135.477C27.2406 129.207 28.7681 122.556 32.9676 117.611C35.386 114.784 37.9181 112.146 40.6268 109.659C53.9667 106.907 66.5855 101.241 77.5856 92.9963L84.0975 88.1024L80.2707 95.2947C73.7952 107.443 70.1476 120.758 69.5262 134.397C67.5241 137.489 65.3126 140.432 62.8916 143.227ZM84.9283 89.4564L83.8805 96.7625C82.0933 109.404 77.688 121.458 71.002 132.171C71.9344 119.563 75.4619 107.248 81.4438 95.9622L84.9283 89.4564ZM110.251 142.843C110.753 149.303 108.043 155.584 103.018 159.669C96.7208 164.777 87.7719 165.473 80.7606 161.4C75.1648 158.14 71.516 152.354 71.0137 145.894C70.7282 142.221 70.6721 138.531 70.8152 134.858C78.3076 123.488 83.2391 110.569 85.1465 96.9279L86.2996 88.8549L88.6867 96.6527C92.7099 109.799 99.5464 121.804 108.709 131.912C109.448 135.483 109.963 139.138 110.251 142.843ZM87.8129 89.2321L92.2284 95.1237C99.9156 105.346 105.304 116.968 108.142 129.284C99.8774 119.7 93.6645 108.505 89.9447 96.2909L87.8129 89.2321ZM143.471 109.053C148.382 113.256 150.921 119.624 150.236 126.077C149.378 134.127 143.543 140.947 135.725 143.04C129.458 144.715 122.809 143.186 117.866 138.985C115.04 136.566 112.402 134.033 109.916 131.323C107.164 117.978 101.499 105.355 93.2566 94.351L88.364 87.8367L95.5541 91.6652C107.699 98.1434 121.007 101.76 134.644 102.415C137.735 104.418 140.677 106.631 143.471 109.053ZM89.7175 87.0057L97.0212 88.0543C109.659 89.8427 121.709 94.2501 132.419 100.939C119.815 100.005 107.503 96.4762 96.2213 90.4917L89.7175 87.0057ZM161.635 91.1457C158.376 96.7433 152.592 100.393 146.134 100.895C142.463 101.18 138.774 101.236 135.102 101.093C123.736 93.5976 110.82 88.6638 97.184 86.755L89.1136 85.6011L96.9086 83.2136C110.051 79.1898 122.051 72.3517 132.155 63.1869C135.76 62.4777 139.414 61.9627 143.085 61.6772C149.543 61.1751 155.822 63.8869 159.906 68.9135C164.98 75.2158 165.673 84.1349 161.635 91.1457Z" fill="white"/>
</svg>
