<svg width="40" height="32" viewBox="0 0 40 32" fill="none" xmlns="http://www.w3.org/2000/svg">
<path d="M3.23711 18.4729C1.83146 18.4729 0.873473 19.886 1.55779 21.1138C5.16312 27.5827 12.0681 31.9595 19.9999 31.9595C27.9307 31.9595 34.8365 27.5826 38.442 21.1138C39.1264 19.886 38.1684 18.4729 36.7627 18.4729H3.23711Z" fill="#307ABD"/>
<path d="M24.9454 8.73258C24.3312 8.73258 23.832 8.23454 23.832 7.61924C23.832 7.00394 24.3312 6.5059 24.9454 6.5059C26.1249 6.5059 27.0838 5.5458 27.0838 4.36629C27.0838 3.18678 26.1249 2.22668 24.9454 2.22668C24.3312 2.22668 23.832 1.72864 23.832 1.11334C23.832 0.498042 24.3312 0 24.9454 0C27.352 0 29.3105 1.95851 29.3105 4.36513C29.3093 6.77408 27.352 8.73258 24.9454 8.73258Z" fill="#307ABD"/>
<path d="M24.9345 15.2373C22.5267 15.2373 20.5693 13.2788 20.5693 10.8722C20.5693 8.46559 22.5279 6.50708 24.9345 6.50708C25.5486 6.50708 26.0478 7.00512 26.0478 7.62042C26.0478 8.23572 25.5498 8.73376 24.9345 8.73376C23.755 8.73376 22.7949 9.6927 22.7949 10.8722C22.7949 12.0517 23.7538 13.0118 24.9345 13.0118C25.5486 13.0118 26.0478 13.5099 26.0478 14.1252C26.0467 14.7393 25.5486 15.2373 24.9345 15.2373Z" fill="#307ABD"/>
<path d="M15.128 8.73258C14.5139 8.73258 14.0146 8.23454 14.0146 7.61924C14.0146 7.00394 14.5139 6.5059 15.128 6.5059C16.3075 6.5059 17.2676 5.5458 17.2676 4.36629C17.2676 3.18678 16.3087 2.22668 15.128 2.22668C14.5139 2.22668 14.0146 1.72864 14.0146 1.11334C14.0146 0.498042 14.5139 0 15.128 0C17.5358 0 19.4931 1.95851 19.4931 4.36513C19.4931 6.77408 17.5358 8.73258 15.128 8.73258Z" fill="#307ABD"/>
<path d="M15.123 15.2373C12.7152 15.2373 10.7578 13.2788 10.7578 10.8722C10.7578 8.46559 12.7163 6.50708 15.123 6.50708C15.7371 6.50708 16.2363 7.00512 16.2363 7.62042C16.2363 8.23572 15.7371 8.73376 15.123 8.73376C13.9434 8.73376 12.9833 9.6927 12.9833 10.8722C12.9833 12.0517 13.9434 13.0118 15.123 13.0118C15.7371 13.0118 16.2363 13.5099 16.2363 14.1252C16.2363 14.7393 15.7371 15.2373 15.123 15.2373Z" fill="#307ABD"/>
</svg>
