<svg width="196" height="197" viewBox="0 0 196 197" fill="none" xmlns="http://www.w3.org/2000/svg">
<g clip-path="url(#clip0_7228_17911)">
<path d="M97.266 1.01912L99.6262 0.997941L103.024 1.06248L106.043 1.22545L110.005 1.57003L114.059 2.10383L118.582 2.91851L122.162 3.74167L124.987 4.47656L128.47 5.49063L132.704 6.97312L136.184 8.36735L138.722 9.48493L141.072 10.6042L143.89 12.0044L146.05 13.2204L148.491 14.6239L150.556 15.9358L153.089 17.6236L154.683 18.7497L156.464 20.0641L157.683 21.0035L158.995 22.037L160.212 23.0714L161.243 23.9175L162.272 24.8585L163.021 25.517L164.144 26.5523L165.361 27.6817L168.541 30.8842L169.194 31.6386L170.503 33.0523L171.342 34.0901L172.277 35.127L173.303 36.4482L174.236 37.5802L175.634 39.4683L176.939 41.2621L178.429 43.4344L179.453 45.0408L180.569 46.8363L182.148 49.578L183.632 52.3206L185.67 56.4836L187.056 59.7022L188.162 62.5431L189.358 65.9535L190.183 68.5119L191.279 72.4933L192.006 75.5277L192.727 79.1324L193.262 82.4536L193.702 85.8708L194.043 89.859L194.203 92.8985L194.266 96.224L194.243 98.6949L194.118 102.022L193.9 105.065L193.485 109.06L192.881 113.152L191.988 117.721L191.202 121.054L190.225 124.579L189.252 127.724L187.701 132.014L186.252 135.543L185.191 137.928L183.844 140.696L183.074 142.224L181.921 144.42L180.578 146.713L179.044 149.292L176.937 152.447L175.885 153.977L174.546 155.795L173.017 157.804L171.775 159.336L170.725 160.58L169.866 161.633L168.626 162.975L167.958 163.741L166.433 165.37L163.288 168.535L162.526 169.207L161.002 170.646L159.956 171.51L159.004 172.374L157.957 173.239L156.435 174.488L154.914 175.642L153.108 176.988L151.207 178.336L148.738 179.974L146.459 181.42L143.991 182.867L141.524 184.22L139.721 185.186L137.066 186.445L134.98 187.414L131.284 188.968L128.158 190.136L123.992 191.504L119.733 192.683L115.854 193.573L112.261 194.27L108.29 194.876L104.322 195.292L101.393 195.508L98.4657 195.629L94.9727 195.661L90.1598 195.514L86.0095 195.171L82.3321 194.729L78.4676 194.098L74.4162 193.279L70.4609 192.27L67.6367 191.44L64.2487 190.33L61.2384 189.216L58.3234 188.007L55.5972 186.796L53.2477 185.677L51.4628 184.743L49.2086 183.527L46.6739 182.03L44.8909 180.905L43.0143 179.687L41.5136 178.655L40.2008 177.716L38.4195 176.402L37.1076 175.368L35.6087 174.147L34.5782 173.301L33.2672 172.172L32.1441 171.137L31.3951 170.478L29.8044 168.972L26.5313 165.675L25.8776 164.921L24.5692 163.507L23.7293 162.469L22.7951 161.432L21.769 160.111L20.556 158.602L19.1577 156.714L17.9464 155.014L16.9222 153.503L15.5265 151.329L14.4106 149.534L13.1102 147.265L11.6255 144.522L10.5131 142.347L9.49506 140.17L8.1092 136.952L7.09474 134.395L6.08295 131.553L4.98209 128.142L4.06827 124.919L3.15977 121.126L2.2584 116.573L1.63757 112.302L1.20467 108.124L0.960582 103.945L0.894633 100.905L0.926648 97.4835L1.16082 92.6349L1.47516 89.3061L1.98365 85.4053L2.68274 81.3127L3.66949 76.7424L4.74531 72.7415L5.71872 69.5968L6.88361 66.1653L8.14112 62.923L9.87779 58.9161L11.13 56.2441L12.0909 54.4299L13.3404 52.0429L14.6835 49.7502L15.9303 47.6483L18.8025 43.3462L20.0458 41.6245L20.9061 40.4764L22.1485 38.8498L23.3901 37.3182L24.4401 36.0733L25.2995 35.0203L26.5393 33.6788L27.2072 32.9125L28.7328 31.2833L31.8776 28.1191L32.6391 27.4471L34.0676 26.1039L34.8291 25.4318L37.3032 23.319L38.6347 22.2617L40.6314 20.7233L42.3423 19.4726L44.2429 18.1251L46.4276 16.68L48.4217 15.4268L51.1746 13.7865L53.8313 12.3373L57.6253 10.4026L60.8485 8.94826L63.6913 7.78239L66.5333 6.71157L69.6585 5.6382L73.6342 4.46217L76.6624 3.67476L80.2569 2.88227L83.5665 2.28239L86.9695 1.77671L90.9382 1.36098L93.9609 1.1438L97.266 1.01912Z" fill="#FDFDFD"/>
<path d="M97.266 1.01912L99.6262 0.997941L103.024 1.06248L106.043 1.22545L110.005 1.57003L114.059 2.10383L118.582 2.91851L122.162 3.74167L124.987 4.47656L128.47 5.49063L132.704 6.97312L136.184 8.36735L138.722 9.48493L141.072 10.6042L143.89 12.0044L146.05 13.2204L148.491 14.6239L150.556 15.9358L153.089 17.6236L154.683 18.7497L156.464 20.0641L157.683 21.0035L158.995 22.037L160.212 23.0714L161.243 23.9175L162.272 24.8585L163.021 25.517L164.144 26.5523L165.361 27.6817L168.541 30.8842L169.194 31.6386L170.503 33.0523L171.342 34.0901L172.277 35.127L173.303 36.4482L174.236 37.5802L175.634 39.4683L176.939 41.2621L178.429 43.4344L179.453 45.0408L180.569 46.8363L182.148 49.578L183.632 52.3206L185.67 56.4836L187.056 59.7022L188.162 62.5431L189.358 65.9535L190.183 68.5119L191.279 72.4933L192.006 75.5277L192.727 79.1324L193.262 82.4536L193.702 85.8708L194.043 89.859L194.203 92.8985L194.266 96.224L194.243 98.6949L194.118 102.022L193.9 105.065L193.485 109.06L192.881 113.152L191.988 117.721L191.202 121.054L190.225 124.579L189.252 127.724L187.701 132.014L186.252 135.543L185.191 137.928L183.844 140.696L183.074 142.224L181.921 144.42L180.578 146.713L179.044 149.292L176.937 152.447L175.885 153.977L174.546 155.795L173.017 157.804L171.775 159.336L170.725 160.58L169.866 161.633L168.626 162.975L167.958 163.741L166.433 165.37L163.288 168.535L162.526 169.207L161.002 170.646L159.956 171.51L159.004 172.374L157.957 173.239L156.435 174.488L154.914 175.642L153.108 176.988L151.207 178.336L148.738 179.974L146.459 181.42L143.991 182.867L141.524 184.22L139.721 185.186L137.066 186.445L134.98 187.414L131.284 188.968L128.158 190.136L123.992 191.504L119.733 192.683L115.854 193.573L112.261 194.27L108.29 194.876L104.322 195.292L101.393 195.508L98.4657 195.629L94.9727 195.661L90.1598 195.514L86.0095 195.171L82.3321 194.729L78.4676 194.098L74.4162 193.279L70.4609 192.27L67.6367 191.44L64.2487 190.33L61.2384 189.216L58.3234 188.007L55.5972 186.796L53.2477 185.677L51.4628 184.743L49.2086 183.527L46.6739 182.03L44.8909 180.905L43.0143 179.687L41.5136 178.655L40.2008 177.716L38.4195 176.402L37.1076 175.368L35.6087 174.147L34.5782 173.301L33.2672 172.172L32.1441 171.137L31.3951 170.478L29.8044 168.972L26.5313 165.675L25.8776 164.921L24.5692 163.507L23.7293 162.469L22.7951 161.432L21.769 160.111L20.556 158.602L19.1577 156.714L17.9464 155.014L16.9222 153.503L15.5265 151.329L14.4106 149.534L13.1102 147.265L11.6255 144.522L10.5131 142.347L9.49506 140.17L8.1092 136.952L7.09474 134.395L6.08295 131.553L4.98209 128.142L4.06827 124.919L3.15977 121.126L2.2584 116.573L1.63757 112.302L1.20467 108.124L0.960582 103.945L0.894633 100.905L0.926648 97.4835L1.16082 92.6349L1.47516 89.3061L1.98365 85.4053L2.68274 81.3127L3.66949 76.7424L4.74531 72.7415L5.71872 69.5968L6.88361 66.1653L8.14112 62.923L9.87779 58.9161L11.13 56.2441L12.0909 54.4299L13.3404 52.0429L14.6835 49.7502L15.9303 47.6483L18.8025 43.3462L20.0458 41.6245L20.9061 40.4764L22.1485 38.8498L23.3901 37.3182L24.4401 36.0733L25.2995 35.0203L26.5393 33.6788L27.2072 32.9125L28.7328 31.2833L31.8776 28.1191L32.6391 27.4471L34.0676 26.1039L34.8291 25.4318L37.3032 23.319L38.6347 22.2617L40.6314 20.7233L42.3423 19.4726L44.2429 18.1251L46.4276 16.68L48.4217 15.4268L51.1746 13.7865L53.8313 12.3373L57.6253 10.4026L60.8485 8.94826L63.6913 7.78239L66.5333 6.71157L69.6585 5.6382L73.6342 4.46217L76.6624 3.67476L80.2569 2.88227L83.5665 2.28239L86.9695 1.77671L90.9382 1.36098L93.9609 1.1438L97.266 1.01912ZM95.0664 14.153L90.6266 14.4779L86.5627 14.9895L83.0643 15.5911L79.3754 16.3844L75.4005 17.4654L72.5603 18.3462L68.7716 19.7106L66.2129 20.7789L64.2223 21.652L61.5674 22.9112L59.291 24.072L57.1081 25.327L55.3999 26.2926L53.1208 27.7385L51.1258 29.0868L49.5102 30.2416L48.1796 31.2039L46.9435 32.1653L45.612 33.2225L43.1379 35.3354L42.0905 36.2951L41.9008 36.3918L41.899 36.5819L41.5196 36.7754L40.8526 37.4466L40.0911 38.1186L37.0416 41.1869L36.3737 41.9532L36.2766 42.2391L36.0878 42.2408L35.4198 43.007L34.1792 44.4436L33.3198 45.4967L32.0782 47.0283L31.1226 48.2722L29.8793 49.9939L28.5399 51.9065L27.5825 53.3406L26.2403 55.5383L25.1858 57.2583L24.6087 58.4038L23.6487 60.123L22.7839 61.7463L21.5317 64.4183L19.9874 68.0433L19.1173 70.2368L17.9524 73.6683L16.6851 77.9561L15.8996 81.1941L15.2059 84.7164L14.5014 89.3792L14.1916 92.2329L13.9689 95.846L13.9085 102.309L14.0626 106.013L14.4946 110.286L14.9382 113.323L15.3853 115.98L16.1094 119.299L16.838 122.144L17.661 124.987L18.8554 128.492L20.2386 131.996L21.2548 134.363L22.7359 137.485L24.2198 140.323L25.6136 142.686L26.7296 144.482L28.2188 146.749L29.5227 148.638L30.4552 149.865L31.4812 151.186L32.6942 152.696L33.7212 153.922L35.4027 155.808L36.524 157.033L40.0776 160.612L40.8267 161.271L41.9498 162.306L42.1386 162.304L42.1368 162.494L43.0737 163.246L44.2912 164.281L45.6031 165.314L47.5714 166.817L51.1358 169.256L52.9188 170.38L55.2656 171.784L57.9892 173.281L61.7476 175.147L64.5683 176.357L67.3898 177.473L71.1536 178.769L75.0136 179.875L78.8753 180.791L83.3044 181.606L86.6986 182.051L89.2449 182.313L94.1514 182.554L99.5325 182.506L104.067 182.18L107.469 181.769L110.21 181.365L113.804 180.667L117.967 179.68L122.132 178.407L124.973 177.431L128.668 175.972L131.702 174.615L134.073 173.453L135.97 172.486L138.057 171.327L140.431 169.88L142.71 168.434L144.515 167.182L145.846 166.22L146.891 165.451L148.508 164.201L150.03 162.952L151.267 161.895L152.313 161.031L153.933 159.496L155.075 158.44L158.125 155.372L158.793 154.605L159.937 153.36L160.796 152.307L162.037 150.87L163.279 149.244L164.617 147.521L165.861 145.704L166.626 144.652L168.159 142.263L169.597 139.874L170.941 137.486L171.902 135.672L172.96 133.572L174.213 130.805L175.373 127.943L176.438 125.083L176.924 123.653L177.214 122.89L178.188 119.651L179.169 115.746L179.861 112.413L180.36 109.463L180.871 105.277L181.197 100.713L181.256 94.4401L181.015 89.8808L180.493 85.134L179.958 81.8128L179.237 78.2081L178.327 74.5101L177.228 70.9088L176.402 68.4455L175.204 65.3202L173.911 62.2909L172.244 58.7897L171.131 56.7091L169.738 54.2508L168.622 52.4552L166.76 49.621L165.549 47.9214L164.431 46.4109L163.405 45.0897L162.378 43.8635L161.538 42.8258L160.417 41.5054L159.763 40.8461L159.109 40.0917L157.987 38.9614L157.333 38.207L155.836 36.795L154.901 35.8531L154.152 35.1946L153.122 34.2535L152.092 33.4075L150.781 32.2789L148.344 30.4002L146.563 29.0858L143.467 27.0229L141.402 25.711L138.961 24.3074L136.331 22.9056L134.076 21.7855L131.35 20.5745L128.81 19.552L126.27 18.6245L122.882 17.5145L119.21 16.5021L115.537 15.6798L111.955 15.0468L109.41 14.6895L106.109 14.339L101.675 14.0937L95.0664 14.153Z" fill="#DF6F43"/>
<path d="M97.266 1.01912L99.6262 0.997941L103.024 1.06248L106.043 1.22545L110.005 1.57003L114.059 2.10383L118.582 2.91851L122.162 3.74167L124.987 4.47656L128.47 5.49063L132.704 6.97312L136.184 8.36735L138.722 9.48493L141.072 10.6042L143.89 12.0044L146.05 13.2204L148.491 14.6239L150.556 15.9358L153.089 17.6236L154.683 18.7497L156.464 20.0641L157.683 21.0035L158.995 22.037L160.212 23.0714L161.243 23.9175L162.272 24.8585L163.021 25.517L164.144 26.5523L165.361 27.6817L168.541 30.8842L169.194 31.6386L170.503 33.0523L171.342 34.0901L172.277 35.127L173.303 36.4482L174.236 37.5802L175.634 39.4683L176.939 41.2621L178.429 43.4344L179.453 45.0408L180.569 46.8363L182.148 49.578L183.632 52.3206L185.67 56.4836L187.056 59.7022L188.162 62.5431L189.358 65.9535L190.183 68.5119L191.279 72.4933L192.006 75.5277L192.727 79.1324L193.262 82.4536L193.702 85.8708L194.043 89.859L194.203 92.8985L194.266 96.224L194.243 98.6949L194.118 102.022L193.9 105.065L193.485 109.06L192.881 113.152L191.988 117.721L191.202 121.054L190.225 124.579L189.252 127.724L187.701 132.014L186.252 135.543L185.191 137.928L183.844 140.696L183.074 142.224L181.921 144.42L180.578 146.713L179.044 149.292L176.937 152.447L175.885 153.977L174.546 155.795L173.017 157.804L171.775 159.336L170.725 160.58L169.866 161.633L168.626 162.975L167.958 163.741L166.433 165.37L163.288 168.535L162.526 169.207L161.002 170.646L159.956 171.51L159.004 172.374L157.957 173.239L156.435 174.488L154.914 175.642L153.108 176.988L151.207 178.336L148.738 179.974L146.459 181.42L143.991 182.867L141.524 184.22L139.721 185.186L137.066 186.445L134.98 187.414L131.284 188.968L128.158 190.136L123.992 191.504L119.733 192.683L115.854 193.573L112.261 194.27L108.29 194.876L104.322 195.292L101.393 195.508L98.4657 195.629L94.9727 195.661L90.1598 195.514L86.0095 195.171L82.3321 194.729L78.4676 194.098L74.4162 193.279L70.4609 192.27L67.6367 191.44L64.2487 190.33L61.2384 189.216L58.3234 188.007L55.5972 186.796L53.2477 185.677L51.4628 184.743L49.2086 183.527L46.6739 182.03L44.8909 180.905L43.0143 179.687L41.5136 178.655L40.2008 177.716L38.4195 176.402L37.1076 175.368L35.6087 174.147L34.5782 173.301L33.2672 172.172L32.1441 171.137L31.3951 170.478L29.8044 168.972L26.5313 165.675L25.8776 164.921L24.5692 163.507L23.7293 162.469L22.7951 161.432L21.769 160.111L20.556 158.602L19.1577 156.714L17.9464 155.014L16.9222 153.503L15.5265 151.329L14.4106 149.534L13.1102 147.265L11.6255 144.522L10.5131 142.347L9.49506 140.17L8.1092 136.952L7.09474 134.395L6.08295 131.553L4.98209 128.142L4.06827 124.919L3.15977 121.126L2.2584 116.573L1.63757 112.302L1.20467 108.124L0.960582 103.945L0.894633 100.905L0.926648 97.4835L1.16082 92.6349L1.47516 89.3061L1.98365 85.4053L2.68274 81.3127L3.66949 76.7424L4.74531 72.7415L5.71872 69.5968L6.88361 66.1653L8.14112 62.923L9.87779 58.9161L11.13 56.2441L12.0909 54.4299L13.3404 52.0429L14.6835 49.7502L15.9303 47.6483L18.8025 43.3462L20.0458 41.6245L20.9061 40.4764L22.1485 38.8498L23.3901 37.3182L24.4401 36.0733L25.2995 35.0203L26.5393 33.6788L27.2072 32.9125L28.7328 31.2833L31.8776 28.1191L32.6391 27.4471L34.0676 26.1039L34.8291 25.4318L37.3032 23.319L38.6347 22.2617L40.6314 20.7233L42.3423 19.4726L44.2429 18.1251L46.4276 16.68L48.4217 15.4268L51.1746 13.7865L53.8313 12.3373L57.6253 10.4026L60.8485 8.94826L63.6913 7.78239L66.5333 6.71157L69.6585 5.6382L73.6342 4.46217L76.6624 3.67476L80.2569 2.88227L83.5665 2.28239L86.9695 1.77671L90.9382 1.36098L93.9609 1.1438L97.266 1.01912ZM96.477 4.63733L92.3213 4.86468L88.9201 5.18028L85.0449 5.6902L81.641 6.29092L78.2361 6.98668L73.694 8.16779L70.8538 9.04855L67.066 10.3179L63.3708 11.7765L60.7167 12.9407L58.2515 14.1032L56.4498 14.9746L54.6472 15.9411L52.0848 17.3895L50.471 18.3543L48.192 19.8002L45.627 21.5337L43.7264 22.8812L42.1108 24.0361L40.7793 25.0933L39.3526 26.2465L38.3061 27.1112L36.8785 28.3594L35.6405 29.5108L34.879 30.1829L33.3552 31.622L30.401 34.5944L29.7331 35.3606L28.4933 36.7022L27.8254 37.4684L26.7753 38.7132L25.9159 39.7663L24.6744 41.2979L23.5273 42.8287L22.1887 44.6462L20.9445 46.463L19.7956 48.1838L18.8374 49.7129L18.0705 50.9552L17.1114 52.5793L15.5751 55.3489L14.4217 57.5449L13.1696 60.217L12.3021 62.1254L11.2396 64.7007L10.0792 67.6571L8.71926 71.7556L7.74407 75.0904L7.05833 77.7573L6.26929 81.3756L5.67261 84.6119L5.16768 88.1326L4.85867 90.8912L4.53276 95.4556L4.46251 102.964L4.70393 107.428L5.13594 111.7L5.84762 116.35L6.29653 118.817L7.02154 122.042L8.02444 125.834L9.03178 129.151L10.0427 132.088L11.4259 135.591L12.9044 138.999L13.7371 140.797L14.6643 142.594L15.8702 144.864L17.1706 147.133L18.4718 149.307L19.961 151.575L21.2649 153.464L22.4761 155.163L23.7818 156.862L24.9949 158.372L25.8347 159.41L27.0487 160.824L28.0765 161.955L28.7302 162.71L29.2904 163.37L29.4792 163.368L29.6645 163.747L32.7505 166.855L33.4996 167.513L34.1542 168.173L34.9032 168.831L36.2142 169.96L37.6188 171.183L38.9307 172.216L40.3361 173.344L41.461 174.189L43.1487 175.409L45.2123 176.816L46.8074 177.847L48.7784 179.065L51.0317 180.375L52.7221 181.31L55.2587 182.618L58.1719 184.017L60.6167 185.041L61.6507 185.507L65.6015 186.992L69.6486 188.286L72.9439 189.206L76.4289 190.03L80.1981 190.757L83.7802 191.295L87.8352 191.734L91.892 191.982L93.8736 192.06L99.9156 192.005L104.639 191.678L108.986 191.164L113.24 190.46L117.024 189.666L121.566 188.485L124.122 187.702L127.626 186.53L130.941 185.265L134.069 183.906L136.629 182.743L138.146 181.969L141.277 180.326L143.46 179.071L145.833 177.624L148.208 176.082L150.393 174.542L152.009 173.387L153.245 172.426L154.957 171.08L156.574 169.735L157.907 168.583L158.859 167.719L159.62 167.047L160.763 165.991L161.62 165.128L162.382 164.456L163.621 163.21L164.289 162.444L165.528 161.197L166.196 160.431L167.054 159.473L167.914 158.42L168.772 157.462L169.823 156.122L170.969 154.686L172.308 152.869L173.551 151.147L175.274 148.566L176.424 146.75L177.575 144.839L178.823 142.642L179.783 140.923L180.552 139.396L181.996 136.437L183.443 133.098L184.701 129.855L185.669 127.186L186.837 123.469L187.913 119.468L188.799 115.564L189.496 111.662L190.001 108.141L190.311 105.287L190.528 102.244L190.645 99.8676L190.69 95.1157L190.537 91.2208L190.286 87.802L189.762 83.2453L189.047 78.9754L188.233 75.1815L187.323 71.5785L186.408 68.4507L185.122 64.6611L183.739 61.1574L182.722 58.7907L181.242 55.573L180.037 53.2081L178.83 51.0332L177.251 48.2915L176.042 46.4018L175.297 45.2681L173.807 43.0958L172.502 41.3019L171.197 39.6031L169.983 38.0935L168.957 36.8673L167.836 35.547L166.715 34.3216L165.687 33.1905L164.378 31.8718L163.818 31.2117L163.069 30.5532L161.572 29.0461L160.823 28.3876L159.794 27.4466L159.045 26.7881L157.734 25.6595L155.391 23.7799L153.891 22.653L152.204 21.4328L150.047 19.9316L148.451 18.9006L146.48 17.6829L144.415 16.4661L141.692 14.97L137.557 12.9165L134.549 11.613L131.727 10.498L128.905 9.47799L124.858 8.18388L121.75 7.35649L118.171 6.53334L114.778 5.89857L111.291 5.35968L107.141 4.92176L102.99 4.67392L100.536 4.60091L96.477 4.63733Z" fill="#FDFDFD"/>
<path d="M96.1938 4.63965L100.253 4.60323L104.311 4.75688L107.707 5.0115L111.573 5.45196L114.966 5.99169L118.359 6.62646L122.88 7.72626L125.516 8.46284L128.904 9.5728L131.726 10.5928L135.112 11.9879L137.838 13.1988L141.972 15.2524L144.132 16.4684L146.855 18.0595L149.013 19.4655L150.701 20.5907L152.295 21.7168L153.608 22.6553L155.295 23.9706L156.607 25.0042L157.824 26.0386L158.855 26.8846L159.978 27.9198L160.727 28.5783L162.131 29.8962L163.346 31.1206L164.002 31.6849L164.656 32.4393L166.152 33.9464L166.806 34.7007L167.833 35.8319L168.673 36.8697L169.514 37.8124L170.54 39.1336L171.66 40.549L173.058 42.4371L174.176 44.0426L175.386 45.8373L176.409 47.4436L177.618 49.4284L178.918 51.6974L180.217 54.1565L181.422 56.5215L182.624 59.1715L184.194 62.9586L185.39 66.274L186.491 69.6851L187.405 72.908L188.403 77.1753L189.123 80.9701L189.655 84.5764L190.089 88.6588L190.334 92.7429L190.406 95.118L190.362 99.8699L190.137 103.768L189.821 107.192L189.314 110.998L188.615 115.09L187.728 119.09L186.847 122.424L185.873 125.663L185.582 126.426L185.017 126.336L182.664 125.597L178.899 124.395L176.64 123.655L177.323 121.274L178.104 118.511L178.89 115.273L179.483 112.416L179.983 109.466L180.494 105.28L180.82 100.716L180.878 94.4433L180.638 89.884L180.116 85.1372L179.581 81.8159L178.859 78.2113L177.95 74.5133L176.851 70.912L176.024 68.4486L174.826 65.3234L173.533 62.2941L171.867 58.7929L170.753 56.7122L169.36 54.254L168.244 52.4584L166.383 49.6242L165.172 47.9245L164.053 46.4141L163.027 45.0929L162 43.8667L161.16 42.8289L160.04 41.5086L159.385 40.8492L158.731 40.0948L157.609 38.9646L156.955 38.2102L155.552 36.8924L154.617 35.9505L153.868 35.292L152.838 34.3509L151.808 33.5049L150.496 32.3763L148.06 30.4976L146.278 29.1831L143.183 27.1202L141.118 25.8083L138.677 24.4048L136.047 23.0029L133.792 21.8828L131.066 20.6719L128.526 19.6494L125.986 18.7218L122.598 17.6119L118.926 16.5995L115.252 15.7772L111.671 15.1441L109.126 14.7868L105.825 14.4363L101.391 14.191L94.7823 14.2503L90.3425 14.5753L86.2786 15.0869L82.7802 15.6884L79.0913 16.4818L75.1164 17.5628L72.2762 18.4435L68.4875 19.8079L65.9288 20.8762L63.9382 21.7493L61.2833 23.0086L59.0069 24.1693L56.824 25.4243L55.1158 26.3899L52.8367 27.8358L50.8417 29.1841L49.2261 30.339L48.7514 30.6283L47.8189 29.4013L46.6076 27.7017L45.3028 25.9078L44.3712 24.5857L43.3461 23.1695L43.5385 22.7876L45.3438 21.5361L47.9087 19.8025L49.9028 18.5492L51.9913 17.2951L54.7433 15.7499L56.1665 14.9769L58.3477 13.912L61.4764 12.4585L64.0352 11.3902L67.6351 10.0275L71.4229 8.75813L75.5874 7.5804L78.8988 6.79045L81.8307 6.19397L85.3291 5.5924L89.4874 5.07994L93.6439 4.75756L96.1938 4.63965Z" fill="#3E854E"/>
<path d="M66.0894 104.596L128.87 104.033L128.836 107.644L128.529 110.118L128.034 112.593L127.351 114.975L126.479 117.359L125.516 119.458L124.363 121.559L123.023 123.566L122.163 124.715L121.303 125.768L120.349 126.821L119.681 127.588L118.728 128.547L117.967 129.219L116.349 130.564L114.734 131.718L112.74 132.972L110.178 134.325L107.999 135.2L105.726 135.981L102.793 136.672L99.9576 137.078L98.3518 137.187L95.9917 137.208L93.5389 137.04L90.7111 136.59L88.074 135.949L85.6274 135.116L83.3715 134.09L81.3987 133.063L79.3342 131.751L77.7409 130.53L76.5234 129.495L75.5873 128.649L73.904 126.953L73.0641 125.915L71.9446 124.5L70.6416 122.516L69.7126 120.909L68.6011 118.638L67.6802 116.176L66.948 113.711L66.4965 111.53L66.1455 108.682L66.0636 107.352L66.0894 104.596Z" fill="#DF6F43"/>
<path d="M176.829 123.654L177.395 123.744L180.312 124.668L184.077 125.87L185.865 126.424L185.572 127.472L184.216 131.19L182.864 134.433L181.707 137.009L180.071 140.35L178.63 143.024L177.095 145.699L175.657 147.992L173.934 150.573L172.595 152.486L171.065 154.495L170.11 155.739L168.868 157.271L168.009 158.324L167.15 159.282L166.291 160.335L165.624 161.006L164.956 161.772L163.717 163.019L163.049 163.785L161.81 165.032L161.049 165.704L160 166.758L159.239 167.43L158.192 168.39L157.145 169.255L155.813 170.407L153.15 172.522L152.009 173.387L150.298 174.638L148.018 176.179L146.118 177.431L143.46 179.071L140.708 180.616L137.577 182.259L134.733 183.615L132.079 184.78L129.426 185.849L125.921 187.116L122.891 188.093L119.011 189.173L115.699 189.963L111.538 190.761L108.135 191.266L104.639 191.678L101.616 191.895L96.7067 191.939L96.7939 182.625L98.8717 182.512L99.5334 182.411L104.068 182.085L107.47 181.674L110.211 181.27L113.805 180.572L117.968 179.584L122.133 178.312L124.974 177.336L128.669 175.877L131.703 174.52L134.074 173.358L135.971 172.391L138.058 171.232L140.432 169.785L142.711 168.339L144.516 167.087L145.847 166.125L146.892 165.356L148.509 164.106L150.031 162.857L151.268 161.8L152.314 160.936L153.933 159.401L155.076 158.345L158.03 155.373L158.698 154.606L159.843 153.361L160.702 152.308L161.943 150.871L163.185 149.244L164.523 147.522L165.767 145.705L166.532 144.653L168.065 142.263L169.503 139.875L170.847 137.487L171.808 135.673L172.866 133.573L174.119 130.806L175.279 127.944L176.344 125.084L176.829 123.654Z" fill="#D8453F"/>
<path d="M43.4414 23.0739L43.8172 23.2606L47.4511 28.3596L48.29 29.4925L49.0355 30.5311L48.559 31.0105L47.3229 31.9719L45.7064 33.2218L44.374 34.3741L43.137 35.4305L42.0896 36.3902L41.9008 36.3919L41.899 36.582L41.1375 37.2541L39.8996 38.4055L37.136 41.1862L36.4681 41.9524L36.2766 42.2392L36.0878 42.2409L35.8954 42.6228L34.751 43.8684L33.8915 44.9215L32.8415 46.1663L32.1726 47.0275L31.217 48.2715L29.9737 49.9932L28.6343 51.9058L27.6769 53.3398L26.3347 55.5376L25.2802 57.2576L24.7031 58.4031L23.7431 60.1223L22.8783 61.7455L21.6261 64.4176L20.0818 68.0426L19.2117 70.2361L18.0468 73.6676L16.7795 77.9553L15.994 81.1934L15.3003 84.7157L14.5958 89.3785L14.2859 92.2322L14.0633 95.8453L14.0029 102.308L14.157 106.013L14.589 110.285L15.0326 113.322L15.4797 115.979L16.2038 119.298L16.9324 122.143L17.7554 124.986L17.6592 125.177L12.9247 126.74L10.6518 127.521L9.13685 128.01L8.85363 128.012L8.75656 128.298L7.84184 125.17L6.93068 121.662L6.20745 118.248L5.66858 115.307L5.13593 111.7L4.70392 107.428L4.4625 102.964L4.53276 95.4557L4.85866 90.8913L5.37071 86.6104L5.97094 82.9938L6.66469 79.4715L7.6461 75.4715L8.62218 72.0416L9.88504 68.2291L11.0464 65.1777L12.1088 62.6024L13.0734 60.408L14.2294 57.9269L15.1903 56.1127L16.4398 53.7258L17.7829 51.433L18.6459 49.9998L19.6042 48.4707L21.3275 45.8895L22.4755 44.2636L23.8141 42.4461L25.1518 40.7235L26.2018 39.4787L26.9659 38.5216L28.1113 37.1809L29.1604 36.0311L29.8284 35.2649L31.2587 33.7316L34.2128 30.7591L34.9743 30.0871L36.4029 28.7438L37.1643 28.0718L38.4014 27.0154L39.5432 26.0548L40.8746 24.9976L42.5864 23.6518L43.4414 23.0739Z" fill="#EEB44C"/>
<path d="M96.1938 4.63965L100.253 4.60323L104.311 4.75688L107.707 5.0115L111.573 5.45196L114.966 5.99169L118.359 6.62646L122.88 7.72626L125.516 8.46284L128.904 9.5728L131.726 10.5928L135.112 11.9879L137.838 13.1988L141.972 15.2524L144.132 16.4684L146.855 18.0595L149.013 19.4655L150.701 20.5907L152.295 21.7168L152.67 21.9985L152.477 22.4754L151.33 24.0062L150.373 25.3452L149.13 27.0669L149.034 27.2578L148.845 27.2595L148.747 27.6405L148.558 27.6422L148.365 28.1191L147.313 29.554L147.122 29.8408L145.997 28.9956L142.62 26.7452L140.649 25.5275L138.489 24.3115L136.047 23.0029L133.792 21.8828L131.066 20.6719L128.526 19.6494L125.986 18.7218L122.598 17.6119L118.926 16.5995L115.252 15.7772L111.671 15.1441L109.126 14.7868L105.825 14.4363L101.391 14.191L94.7823 14.2503L90.3425 14.5753L86.2786 15.0869L82.7802 15.6884L79.0913 16.4818L75.1164 17.5628L72.2762 18.4435L68.4875 19.8079L65.9288 20.8762L63.9382 21.7493L61.2833 23.0086L59.0069 24.1693L56.824 25.4243L55.1158 26.3899L52.8367 27.8358L50.8417 29.1841L49.2261 30.339L48.7514 30.6283L47.8189 29.4013L46.6076 27.7017L45.3028 25.9078L44.3712 24.5857L43.3461 23.1695L43.5385 22.7876L45.3438 21.5361L47.9087 19.8025L49.9028 18.5492L51.9913 17.2951L54.7433 15.7499L56.1665 14.9769L58.3477 13.912L61.4764 12.4585L64.0352 11.3902L67.6351 10.0275L71.4229 8.75813L75.5874 7.5804L78.8988 6.79045L81.8307 6.19397L85.3291 5.5924L89.4874 5.07994L93.6439 4.75756L96.1938 4.63965Z" fill="#4478B3"/>
<path d="M82.477 48.0963L113.631 47.8168L113.531 58.461L82.3774 58.7406L82.2839 58.6464L82.3817 48.1922L82.477 48.0963Z" fill="#D8493F"/>
<path d="M91.2969 114.348L91.6736 114.44L92.8003 115.095L94.5878 115.744L95.4356 115.926L95.5292 116.021L95.3904 130.847L94.352 130.856L92.0898 130.496L89.8293 129.946L87.2893 129.019L85.6915 128.273L83.9075 127.243L82.4068 126.212L81.0949 125.178L80.9097 124.8L83.7685 121.923L83.9573 121.921L84.1497 121.539L91.2969 114.348Z" fill="#FDFDFD"/>
<path d="M72.3852 107.676L87.1126 107.544L87.7539 109.629L88.4949 111.142L88.7737 111.615L88.5813 111.997L78.3847 122.257L78.0088 122.07L76.8893 120.654L75.9586 119.237L74.8444 117.252L74.0125 115.359L73.3686 113.559L72.7308 111.094L72.3763 108.626L72.3852 107.676Z" fill="#FDFDFD"/>
<path d="M107.788 107.358L122.609 107.225L122.502 108.652L122.103 110.936L121.42 113.318L120.646 115.32L119.587 117.516L118.724 118.949L117.671 120.479L116.62 121.818L116.242 121.822L106.143 111.649L106.242 111.173L106.913 110.027L107.494 108.501L107.788 107.358Z" fill="#FDFDFD"/>
<path d="M103.286 114.241L103.662 114.427L113.762 124.6L113.286 125.08L112.144 126.04L110.529 127.1L109.011 127.969L106.83 129.034L104.935 129.716L102.947 130.304L100.867 130.703L100.111 130.804L99.1667 130.813L99.3054 115.987L101.578 115.206L103.191 114.337L103.286 114.241Z" fill="#FDFDFD"/>
<path d="M60.658 79.7471L63.4902 79.7217L65.2199 86.5483L65.4033 87.1168L66.578 82.6399L67.3599 79.782L67.4552 79.6861L70.193 79.6615L70.0943 90.2107L68.0174 90.2294L68.0796 83.5767L66.3252 89.4843L66.0348 90.2471L64.6187 90.2598L63.9775 88.1749L62.6994 83.5299L62.6842 85.1456L62.7591 87.2356L62.7306 90.2768L60.5593 90.2963L60.658 79.7471Z" fill="#4778B1"/>
<path d="M75.1039 79.4275L75.9536 79.4199L77.0838 79.6948L77.9281 80.2574L78.5818 81.0118L78.9523 81.7687L79.2249 82.9066L79.1875 86.8982L78.8936 88.0412L78.4136 88.9008L77.9362 89.4753L76.9868 90.054L76.4186 90.2491L75.1905 90.3552L74.1538 90.1744L73.3077 89.8019L72.5586 89.1434L72.0011 88.1981L71.7268 87.2503L71.6404 86.3958L71.6671 83.5446L71.8674 82.3074L72.3501 81.1628L73.019 80.3015L73.9684 79.7228L75.1039 79.4275Z" fill="#4678B2"/>
<path d="M90.8099 65.5075L91.6596 65.4998L92.7898 65.7748L93.5406 66.2432L94.1952 66.9025L94.7509 68.0379L94.9326 68.7965L95.019 69.651L94.9933 72.4071L94.6958 73.9303L94.1187 75.0758L93.4516 75.747L92.5031 76.2306L91.6517 76.4283L90.7076 76.4368L89.5774 76.1619L88.6387 75.6001L87.9859 74.7507L87.6162 73.8987L87.4354 73.0451L87.4728 69.0535L87.7667 67.9105L88.3429 66.86L89.01 66.1888L89.9585 65.7052L90.8099 65.5075Z" fill="#4678B2"/>
<path d="M101.726 79.1887L102.576 79.1811L103.706 79.4561L104.551 80.0187L105.298 80.8672L105.667 81.8142L105.848 82.5728L105.809 86.7545L105.42 87.9934L104.845 88.9488L103.989 89.6217L103.041 90.0104L101.813 90.1164L100.776 89.9356L99.6488 89.3756L98.9951 88.6212L98.5319 87.6751L98.3502 86.9165L98.2647 85.9669L98.2869 83.591L98.49 82.0687L98.9727 80.924L99.6415 80.0627L100.591 79.484L101.726 79.1887Z" fill="#4678B2"/>
<path d="M105.063 65.5695L108.462 65.539L109.498 65.8148L110.437 66.3765L111.09 67.1309L111.553 68.077L111.822 69.5951L111.799 72.0661L111.502 73.5892L110.926 74.6397L110.163 75.4068L109.215 75.8905L108.458 76.0873L104.965 76.1187L104.871 76.0245L104.968 65.6654L105.063 65.5695Z" fill="#4778B1"/>
<path d="M79.4794 65.7988L83.5388 65.7624L84.7626 66.1315L85.6986 66.9784L86.0674 67.9254L86.1573 68.3997L86.1466 69.5402L85.8536 70.5882L85.2792 71.4486L84.8036 71.833L84.6148 71.8347L86.3685 76.0953L86.3667 76.2853L84.101 76.3057L83.4544 74.791L82.6243 72.7078L82.626 72.5177L81.4932 72.5279L81.4576 76.3294L79.3807 76.348L79.4794 65.7988Z" fill="#4578B3"/>
<path d="M127.498 79.1475L129.575 79.1288L130.316 80.6427L131.795 83.9554L132.534 85.6593L132.69 79.1009L134.861 79.0814L134.763 89.6306L132.591 89.6501L131.389 87L130.187 84.2549L129.725 83.2138L129.728 82.9286L129.539 82.9303L129.476 89.678L127.399 89.6967L127.498 79.1475Z" fill="#4678B2"/>
<path d="M80.8609 79.5659L82.9379 79.5473L83.4936 80.6827L84.9721 84.0905L85.8966 86.1728L86.0533 79.5193L88.1302 79.5007L88.0315 90.0499L85.9546 90.0685L85.3062 88.7439L84.1047 85.9988L82.9958 83.443L82.8392 90.0965L80.7622 90.1151L80.8609 79.5659Z" fill="#4578B3"/>
<path d="M71.0772 65.8745L75.2311 65.8372L76.2669 66.113L77.1103 66.7707L77.4835 67.2425L77.854 67.9994L77.9449 68.3787L77.9271 70.2795L77.5406 71.2332L76.8726 71.9995L75.7344 72.5798L75.1671 72.68L73.0901 72.6986L73.0554 76.4051L70.9785 76.4237L71.0772 65.8745Z" fill="#4578B2"/>
<path d="M121.267 79.2033L123.249 79.1855L124.714 84.0189L126.363 89.4208L126.36 89.7059L124.095 89.7262L123.548 87.6405L120.716 87.6659L120.13 89.7618L117.864 89.7821L118.837 86.6374L120.976 79.9661L121.267 79.2033Z" fill="#4578B2"/>
<path d="M93.0411 79.2667L93.8908 79.2591L95.2098 79.5324L96.0541 80.095L96.6126 80.9452L96.9786 82.1773L96.9733 82.7476L94.8963 82.7662L94.6238 81.6283L94.2497 81.2515L94.0618 81.1582L92.9289 81.1683L92.3589 81.5536L92.0704 82.1263L91.8727 83.0784L91.8424 86.3097L92.1141 87.5427L92.5808 88.1086L93.0511 88.2945L94.1839 88.2843L94.753 87.9941L94.7708 86.0934L93.3556 86.011L93.3698 84.4904L96.9573 84.4582L96.9164 88.83L96.2502 89.4061L95.3017 89.8898L93.7885 90.1885L92.4677 90.1053L91.4328 89.7345L90.4967 88.8876L90.0318 88.1315L89.7575 87.1837L89.6684 86.6143L89.7031 82.9078L89.9988 81.5748L90.575 80.5243L91.4318 79.7563L92.3794 79.3677L93.0411 79.2667Z" fill="#4578B2"/>
<path d="M96.4725 65.6465L98.5494 65.6278L98.5727 73.23L98.7544 73.9886L99.0341 74.3662L99.3164 74.4587L100.449 74.4486L100.829 74.2551L101.119 73.4923L101.287 65.6033L103.364 65.5846L103.289 73.6629L102.996 74.6158L102.422 75.4762L101.567 76.0541L100.337 76.3502L99.393 76.3587L98.3563 76.1779L97.5111 75.7103L96.7639 74.8618L96.3978 73.6297L96.4725 65.6465Z" fill="#4478B3"/>
<path d="M117.714 65.4561L119.98 65.4357L120.348 66.3827L121.45 69.6989L121.447 70.079L121.635 70.0773L121.832 69.2203L123.094 65.5028L123.189 65.4069L125.455 65.3866L125.164 66.2445L123.427 70.2513L122.655 72.0638L122.524 75.9612L120.447 75.9798L120.389 72.0841L118.82 68.297L117.713 65.5511L117.714 65.4561Z" fill="#4578B2"/>
<path d="M107.483 79.3271L109.56 79.3085L109.573 88.0511L113.254 88.1131L113.239 89.7288L113.144 89.8247L107.385 89.8763L107.483 79.3271Z" fill="#4478B3"/>
<path d="M113.371 65.4951L115.448 65.4765L115.365 74.315L119.142 74.2811L119.126 75.9918L113.273 76.0443L113.371 65.4951Z" fill="#4478B3"/>
<path d="M114.658 79.2627L116.735 79.2441L116.637 89.7933L114.56 89.8119L114.658 79.2627Z" fill="#4478B4"/>
<path d="M101.615 80.9952L102.559 80.9867L103.123 81.2668L103.588 82.0228L103.77 82.7814L103.734 86.583L103.442 87.5359L102.965 88.1103L102.491 88.3046L101.641 88.3123L101.077 88.0322L100.704 87.5604L100.429 86.7076L100.467 82.621L100.855 81.5722L101.425 81.0919L101.615 80.9952Z" fill="#FDFDFD"/>
<path d="M90.793 67.3132L91.6427 67.3056L92.3 67.6798L92.6722 68.2466L92.8539 69.0053L92.8166 72.9968L92.4292 74.0456L91.9527 74.5251L91.6686 74.6226L90.7245 74.6311L90.1608 74.3511L89.7876 73.8793L89.5133 72.9315L89.5488 69.1299L89.8409 68.177L90.2239 67.6034L90.793 67.3132Z" fill="#FDFDFD"/>
<path d="M74.9926 81.234L75.9367 81.2255L76.594 81.5997L77.0571 82.5459L77.1462 83.1153L77.1124 86.7267L76.8203 87.6796L76.4373 88.2532L75.8682 88.5434L75.0185 88.551L74.4548 88.271L74.0816 87.7992L73.8055 87.0414L73.8446 82.8598L74.232 81.811L74.8029 81.3307L74.9926 81.234Z" fill="#FDFDFD"/>
<path d="M26.5651 101.53L26.9428 101.526L27.0345 101.811L27.0265 102.666L24.0028 102.978L26.7353 103.524L27.1111 103.711L27.1993 104.375L26.4405 104.762L24.5462 105.444L24.0723 105.638L25.1117 105.534L27.1895 105.42L27.283 105.515L27.2742 106.465L27.1789 106.561L22.455 106.983L21.8885 106.988L21.7959 106.799L21.8084 105.469L25.313 104.202L24.0884 103.928L21.9206 103.567L21.6382 103.475L21.5465 103.19L21.5572 102.05L21.6525 101.954L26.5651 101.53Z" fill="#EFB54D"/>
<path d="M35.4859 56.1206L36.6188 56.1104L37.9343 56.7638L38.7777 57.4215L39.3379 58.0817L39.5223 58.5552L39.5152 59.3155L39.0342 60.2701L38.4633 60.7503L37.8951 60.9455L36.952 60.8589L35.6365 60.2055L34.7931 59.5479L34.3264 58.9819L34.0503 58.2241L34.248 57.2721L34.6309 56.6984L35.2018 56.2182L35.4859 56.1206Z" fill="#EFB54D"/>
<path d="M23.2545 92.1515L24.9539 92.1362L26.085 92.3162L26.9293 92.8788L27.3007 93.5406L27.2891 94.7761L26.9053 95.4448L26.3344 95.925L25.955 96.1185L23.6892 96.1388L22.6534 95.863L21.9044 95.2046L21.72 94.7311L21.7316 93.4956L22.1154 92.8269L22.6863 92.3466L23.2545 92.1515Z" fill="#EFB54D"/>
<path d="M22.8421 85.7885L23.9723 86.0635L27.5491 87.1717L28.0193 87.3576L28.1102 87.7369L28.0096 88.403L27.4413 88.5981L26.0244 88.7059L24.9859 88.7152L24.9841 88.9053L25.832 89.0877L27.6204 89.6419L27.8074 89.8302L27.705 90.6864L27.6088 90.8773L26.9471 90.9783L22.7914 91.2057L22.1306 91.2116L22.1368 90.5463L22.2357 90.0703L25.2576 89.9481L22.4343 89.0232L22.4414 88.2629L22.6329 87.9761L25.3724 87.7614L24.9966 87.5747L22.737 86.9298L22.7459 85.9794L22.8421 85.7885Z" fill="#EFB54D"/>
<path d="M137.915 156.314L138.575 156.308L139.045 156.588L139.605 157.249L139.595 158.294L140.256 158.288L140.725 158.664L141.188 159.61L141.086 160.371L140.608 161.041L138.992 162.196L138.709 162.198L137.591 160.593L136.38 158.893L135.728 157.949L135.92 157.567L137.441 156.508L137.915 156.314Z" fill="#D94D3F"/>
<path d="M68.8342 164.346L69.6839 164.338L70.6235 164.805L71.0884 165.561L71.1801 165.845L71.1739 166.51L70.6885 167.94L70.1114 169.086L69.3508 169.663L69.0667 169.76L68.2171 169.768L67.2775 169.301L66.8117 168.64L66.7208 168.261L66.727 167.596L67.1162 166.357L67.6933 165.211L68.0754 164.733L68.8342 164.346Z" fill="#DF7343"/>
<path d="M28.7512 69.6752L29.7888 69.7609L31.3875 70.4118L32.043 70.9761L32.4135 71.733L32.4055 72.5883L31.921 73.9231L31.7277 74.4L30.7863 74.1234L27.0243 72.6366L26.6485 72.4499L26.9406 71.497L27.5177 70.3515L28.3727 69.7736L28.7512 69.6752Z" fill="#EFB54D"/>
<path d="M81.5426 168.128L82.4858 168.214L83.7104 168.488L84.2733 168.863L84.5529 169.241L84.6411 169.906L84.3499 170.763L84.064 171.051L83.8752 171.053L84.2466 171.715L84.2386 172.57L83.8538 173.334L83.4736 173.622L83.1894 173.72L82.2454 173.728L80.6431 173.458L80.5505 173.268L81.4446 168.509L81.5426 168.128Z" fill="#DF7243"/>
<path d="M107.124 67.3564L108.445 67.3446L109.197 67.718L109.567 68.4749L109.658 68.8542L109.622 72.7507L109.234 73.7995L108.759 74.1839L108.096 74.3799L107.058 74.3892L107.124 67.3564Z" fill="#FDFDFD"/>
<path d="M152.963 142.019L153.813 142.011L154.47 142.385L154.938 142.856L155.215 143.519L155.21 143.994L156.812 144.36L157.471 144.544L157.278 145.021L156.8 145.596L154.916 145.137L154.537 145.331L154.535 145.521L155.847 146.554L155.845 146.84L155.366 147.509L154.896 147.323L153.678 146.384L151.991 145.069L150.96 144.222L151.535 143.362L152.584 142.212L152.963 142.019Z" fill="#D94D40"/>
<path d="M161.964 128.444L162.812 128.626L163.375 129.001L163.748 129.473L163.931 130.042L166.29 130.211L166.191 130.687L165.807 131.355L164.014 131.276L163.637 131.185L163.443 131.757L164.008 131.942L165.041 132.502L165.037 132.883L164.654 133.551L164.089 133.366L162.304 132.432L159.861 131.218L159.961 130.647L160.825 129.119L161.301 128.64L161.964 128.444Z" fill="#D94C3F"/>
<path d="M25.4667 77.687L26.5051 77.6777L27.3512 78.0502L27.7244 78.522L27.8153 78.9013L29.5172 78.601L30.1781 78.595L30.2707 78.7843L29.8842 79.738L27.9934 80.0401L27.8037 80.1368L27.8001 80.517L29.4006 80.9777L29.4906 81.4521L29.2955 82.119L28.8235 82.1233L27.9765 81.8458L24.0221 80.7409L24.1236 79.9798L24.609 78.55L24.992 77.9763L25.4667 77.687Z" fill="#EFB54D"/>
<path d="M131.647 160.266L131.927 160.643L133.503 163.765L134.15 165.185L133.296 165.668L132.919 165.576L131.42 164.354L130.39 163.508L130.481 163.887L131.315 165.495L131.684 166.442L130.83 166.925L130.641 166.927L129.529 164.751L128.324 162.291L128.422 161.91L129.181 161.523L129.557 161.71L131.149 163.026L132.086 163.778L131.254 161.98L130.698 160.844L131.078 160.556L131.647 160.266Z" fill="#D94D3F"/>
<path d="M157.751 134.754L158.316 134.939L159.723 135.876L161.881 137.282L162.35 137.563L162.252 137.944L161.774 138.614L159.606 138.348L158.191 138.171L159.974 139.295L160.912 139.952L160.337 140.907L159.866 140.722L158.271 139.691L156.395 138.472L155.738 138.003L155.932 137.526L156.314 137.047L157.54 137.131L159.331 137.4L159.803 137.396L157.457 135.897L157.272 135.518L157.751 134.754Z" fill="#D94D3F"/>
<path d="M160.762 55.0915L161.136 55.4683L161.973 56.7912L162.153 57.7399L161.864 58.4077L161.387 58.8871L160.629 59.274L159.968 59.28L159.591 59.1883L158.826 60.2405L158.252 61.1009L158.063 61.1026L157.598 60.3466L157.697 59.8705L158.654 58.4365L158.564 57.9622L157.71 58.445L157.045 58.9261L156.668 58.8344L156.296 58.2676L156.394 57.8866L158.673 56.4407L160.287 55.3809L160.762 55.0915Z" fill="#448552"/>
<path d="M140.014 93.3846L140.863 93.472L141.331 93.848L141.609 94.4156L141.788 95.4594L141.772 97.17L141.572 98.3122L141.189 98.9808L140.43 99.3678L139.675 99.2795L139.113 98.9044L138.744 97.9575L138.656 97.293L138.673 95.4873L138.968 94.1542L139.446 93.5798L140.014 93.3846Z" fill="#868686"/>
<path d="M70.1121 27.7759L70.9609 27.8633L71.6164 28.4276L71.8934 29.0904L71.8836 30.1358L71.6904 30.6127L72.4385 31.3662L72.4367 31.5563L72.6255 31.5546L73.1858 32.2148L73.184 32.4048L72.3308 32.7926L71.9549 32.6059L71.3003 31.9466L70.8336 31.3806L70.2672 31.3857L70.8185 32.9962L70.9102 33.2805L70.1514 33.6674L69.7747 33.5758L68.485 30.1663L67.9328 28.6508L68.9757 28.1662L70.1121 27.7759Z" fill="#4878B1"/>
<path d="M131.989 93.4568L132.838 93.5442L133.4 94.0143L133.676 94.772L133.766 95.2464L133.744 97.6223L133.355 98.8612L132.784 99.3415L131.933 99.4441L131.275 99.165L130.903 98.5981L130.721 97.8395L130.747 95.0834L131.039 94.1305L131.515 93.6511L131.989 93.4568Z" fill="#868686"/>
<path d="M168.114 96.6486L171.229 96.6206L173.589 96.6945L173.578 97.8349L170.734 99.0958L170.26 99.2901L173.468 99.4514L173.459 100.497L169.494 100.532L167.984 100.451L167.99 99.7857L168.089 99.3096L171.407 97.8544L168.67 97.7839L168.104 97.694L168.114 96.6486Z" fill="#448553"/>
<path d="M55.5023 156.578L55.8791 156.669L57.3789 157.796L57.7503 158.458L57.7423 159.314L57.1679 160.174L56.5979 160.559L55.9352 160.755L55.4428 162.945L54.9725 162.759L54.4096 162.384L54.8068 160.29L54.431 160.103L53.4745 161.442L53.2848 161.539L52.5348 160.976L52.7281 160.499L53.9714 158.777L54.9279 157.438L55.5023 156.578Z" fill="#DF7243"/>
<path d="M166.795 66.0608L166.984 66.0591L167.354 66.9111L167.161 67.2929L166.016 68.6336L164.967 69.7834L165.346 69.6849L167.905 68.5216L168.186 68.8042L168.464 69.3719L168.462 69.562L164.48 71.4033L163.627 71.791L163.438 71.7927L163.067 71.0358L163.166 70.5598L163.833 69.8886L164.693 68.8355L165.361 68.0693L164.792 68.2645L162.517 69.3302L162.328 69.3319L161.958 68.4799L161.96 68.2899L165.468 66.6429L166.795 66.0608Z" fill="#448553"/>
<path d="M35.2367 133.192L35.6099 133.664L36.1674 134.609L36.4435 135.367L36.3411 136.223L35.7685 136.893L34.8208 137.282L34.0665 137.194L33.7841 137.101L33.5918 137.483L32.6353 138.822L32.2576 138.825L31.8862 138.163L31.9842 137.782L32.8445 136.634L33.0369 136.252L32.7563 135.97L31.3323 136.838L31.0499 136.745L30.6803 135.893L31.9147 135.122L34.3826 133.675L35.2367 133.192Z" fill="#DF7243"/>
<path d="M93.1971 22.2471L93.8579 22.2412L94.7851 24.0384L95.5252 25.6473L95.5572 22.2259L96.5957 22.2166L96.6741 23.9264L96.7338 27.6321L95.6001 27.7373L94.4885 25.4665L94.0263 24.4253L93.9952 27.7517L92.8623 27.7618L92.7946 24.9115L92.8186 22.3455L93.1971 22.2471Z" fill="#4778B1"/>
<path d="M90.9833 107.509L95.6092 107.467L95.5656 112.124L95.0945 112.033L93.5911 111.287L92.655 110.44L92.0004 109.78L91.2576 108.457L90.9815 107.699L90.9833 107.509Z" fill="#FDFDFD"/>
<path d="M168.618 73.0769L169.372 73.1651L169.934 73.6352L170.118 74.1087L170.016 74.9649L169.54 75.4443L169.16 75.6378L168.405 75.6446L167.559 75.272L166.985 76.0374L167.741 76.0307L167.921 76.8843L167.448 77.0786L166.219 77.1847L165.646 77.95L165.457 77.9517L165.181 77.194L165.187 76.5287L164.72 75.9627L164.538 75.2992L164.639 74.538L165.212 73.8677L165.686 73.6733L166.63 73.6649L167.288 73.9441L168.05 73.272L168.618 73.0769Z" fill="#448552"/>
<path d="M72.1278 165.456L72.7877 165.545L73.1645 165.637L73.3444 166.586L73.5145 168.58L73.6036 169.149L74.5743 166.29L74.764 166.193L75.7045 166.565L74.5388 170.091L74.0534 171.521L73.7693 171.619L72.9232 171.246L72.7459 170.012L72.6604 169.063L72.672 167.827L72.4823 167.924L71.5124 170.688L71.2283 170.786L70.4757 170.508L70.5755 169.937L71.7404 166.505L72.1278 165.456Z" fill="#DF7343"/>
<path d="M33.1945 129.504L33.4777 129.502L33.8482 130.259L33.7502 130.64L32.7002 131.884L32.0313 132.746L31.839 133.127L34.3051 131.87L34.6818 131.962L34.9606 132.434L34.8617 132.91L32.3956 134.168L30.7827 135.038L30.2154 135.138L29.8449 134.381L29.9428 134L30.9929 132.755L31.757 131.798L31.8541 131.512L29.1983 132.866L28.9177 132.583L28.7325 132.205L28.736 131.825L30.918 130.665L33.1945 129.504Z" fill="#DF7243"/>
<path d="M43.9891 146.132L44.3658 146.224L44.8334 146.695L44.7336 147.266L43.6703 149.936L43.7638 150.031L45.4791 148.305L45.6679 148.303L45.6697 148.113L46.0482 148.014L46.6093 148.58L46.5113 148.961L44.9875 150.4L43.7487 151.646L42.9872 152.318L42.6096 152.322L42.1429 151.756L42.2435 151.09L43.306 148.514L42.8304 148.899L41.8783 149.762L41.116 150.53L40.7401 150.343L40.3669 149.871L40.5593 149.489L42.5605 147.476L43.322 146.804L43.9891 146.132Z" fill="#DF7243"/>
<path d="M99.3854 107.434L104.011 107.392L103.624 108.441L103.048 109.491L101.999 110.641L100.858 111.507L99.6251 112.088L99.3419 112.09L99.3854 107.434Z" fill="#FDFDFD"/>
<path d="M148 147.86L148.661 147.854L149.319 148.134L149.787 148.605L150.159 149.171L150.149 150.217L149.575 150.982L149.194 151.366L149.285 151.745L150.313 152.876L149.931 153.355L149.551 153.643L149.175 153.457L148.053 152.231L147.118 151.289L146.464 150.535L145.81 149.876L145.908 149.495L146.575 148.823L147.526 148.055L148 147.86Z" fill="#D94D3F"/>
<path d="M51.1881 153.575L51.8489 153.57L52.4118 153.945L52.6915 154.322L52.6835 155.178L52.3958 155.655L51.9202 156.04L51.7305 156.136L50.8809 156.144L50.8711 157.189L51.3467 156.805L51.8169 156.991L52.0966 157.368L51.3342 158.136L50.766 158.331L50.7571 159.281L50.5665 159.473L49.8166 158.909L49.7249 158.625L48.8788 158.253L48.3168 157.783L48.1324 157.309L48.1386 156.644L48.5234 155.88L49.0934 155.495L49.9448 155.297L50.2369 154.344L50.619 153.866L51.1881 153.575Z" fill="#E07343"/>
<path d="M31.4515 63.5693L32.3002 63.6567L33.0511 64.1251L33.4242 64.5969L33.5169 64.7861L33.508 65.7365L33.0244 66.9762L33.589 67.1612L34.6222 67.7221L34.428 68.294L34.1412 68.6767L33.6701 68.5859L31.415 67.4658L29.6302 66.5315L29.3488 66.344L29.4476 65.868L30.3124 64.2447L30.8833 63.7644L31.4515 63.5693Z" fill="#EFB54D"/>
<path d="M38.734 52.0051L39.5827 52.0925L40.427 52.6551L40.7984 53.317L40.7904 54.1723L40.4057 54.936L40.0236 55.4146L40.2089 55.793L41.3338 56.6382L41.2358 57.0192L40.7584 57.5937L40.1011 57.2194L39.0707 56.3734L37.8523 55.434L36.4469 54.3063L36.6392 53.9245L37.6901 52.5846L38.3554 52.1035L38.734 52.0051Z" fill="#EFB54D"/>
<path d="M118.475 95.0986L119.136 95.0927L119.605 95.3735L119.887 95.5611L119.89 95.1809L120.457 95.1758L120.411 100.023L120.123 100.596L119.741 100.979L119.079 101.175L118.324 101.087L117.761 100.807L117.67 100.427L117.766 100.237L118.143 100.328L118.613 100.514L119.369 100.412L119.657 99.9345L119.664 99.1742L119.284 99.4627L118.528 99.5645L117.964 99.2845L117.591 98.8127L117.407 98.2442L117.424 96.4384L117.619 95.7715L118.001 95.2929L118.475 95.0986Z" fill="#868686"/>
<path d="M22.9287 96.7162L23.9671 96.7069L24.5309 96.9869L25.0911 97.6471L25.1802 98.2164L25.1704 99.2619L27.0576 99.34L27.0487 100.29L26.9526 100.481L23.9324 100.413L21.5732 100.339L21.5936 98.1536L21.884 97.3908L22.6445 96.8137L22.9287 96.7162Z" fill="#EFB54D"/>
<path d="M81.3893 93.7207L82.0501 93.7148L82.1249 95.8048L82.6949 95.4195L83.4502 95.4127L84.0131 95.7878L84.2927 96.1654L84.3836 96.5447L84.3631 98.7306L83.9784 99.4943L83.314 99.8804L82.7475 99.8855L82.1847 99.5104L82.0911 99.4162L81.8988 99.798L81.3323 99.8031L81.3893 93.7207Z" fill="#868686"/>
<path d="M124.629 163.75L125.006 163.841L126.032 165.162L127.245 166.672L128.271 167.993L128.363 168.278L127.415 168.666L127.133 168.574L126.667 167.913L126.005 168.014L125.342 168.305L125.331 169.445L124.478 169.833L124.195 169.835L123.863 164.897L123.87 164.136L124.629 163.75Z" fill="#D94D3F"/>
<path d="M149.721 145.564L150.286 145.654L153.105 147.054L154.703 147.8L154.888 148.179L154.221 148.85L153.75 148.759L153.28 148.478L152.901 148.672L152.234 149.343L152.417 149.911L152.695 150.479L151.933 151.246L151.559 150.869L150.168 148.221L149.146 146.425L149.339 145.948L149.721 145.564Z" fill="#D94D3F"/>
<path d="M64.7943 162.291L65.3598 162.381L66.9567 163.222L67.4225 163.883L67.411 165.119L66.9318 165.883L66.4562 166.268L66.1721 166.365L65.5113 166.371L64.5708 165.999L64.2885 165.907L63.519 167.434L63.0478 167.343L62.485 166.968L63.3515 165.155L64.7943 162.291Z" fill="#DF7343"/>
<path d="M133.831 158.916L134.302 159.007L135.707 160.23L136.924 161.264L137.955 162.11L138.33 162.392L138.137 162.774L137.567 163.159L137.191 163.067L136.629 162.597L136.25 162.695L135.49 163.177L135.302 163.179L135.577 164.032L135.478 164.508L134.624 164.991L134.166 163.474L133.163 159.682L133.261 159.301L133.831 158.916Z" fill="#D94D40"/>
<path d="M114.59 167.261L115.062 167.257L115.426 168.679L115.97 171.145L115.867 172.001L115.58 172.479L115.104 172.863L114.252 173.156L113.591 173.162L112.933 172.883L112.466 172.317L112.01 170.61L111.558 168.524L111.562 168.048L112.13 167.853L112.602 167.849L112.877 168.702L113.512 171.547L113.696 172.02L114.167 172.111L114.641 171.917L114.741 171.346L113.926 167.647L113.928 167.457L114.59 167.261Z" fill="#D94D3F"/>
<path d="M40.1629 141.416L40.5405 141.412L41.0063 142.073L40.9092 142.359L39.6731 143.321L39.389 143.418L39.9474 144.268L40.227 144.646L40.6065 144.453L41.8426 143.491L42.1258 143.489L42.5917 144.15L42.3993 144.532L41.1631 145.493L39.8316 146.55L38.5955 147.512L38.2187 147.42L37.8464 146.853L38.0388 146.471L39.3703 145.414L39.3729 145.129L38.7201 144.279L38.3416 144.378L37.0101 145.435L36.6334 145.343L36.1676 144.682L37.1196 143.819L38.6408 142.665L40.1629 141.416Z" fill="#DF7243"/>
<path d="M167.877 91.7095L168.914 91.8902L173.341 92.8958L173.435 92.99L173.425 94.0354L168.403 96.0761L168.119 96.0787L168.036 94.9391L169.078 94.5496L168.997 93.1249L168.054 92.9433L167.868 92.6599L167.877 91.7095Z" fill="#448553"/>
<path d="M157.394 51.8909L158.243 51.8832L158.995 52.2566L159.554 53.0118L159.737 53.6754L159.636 54.3415L159.253 54.9151L158.968 55.2028L158.685 55.1103L158.313 54.5435L158.506 54.0666L158.601 53.9707L158.607 53.4005L158.233 53.0237L157.382 53.1264L156.147 53.9927L155.576 54.473L155.384 54.8548L155.473 55.4242L155.94 55.8952L156.605 55.5091L156.608 55.1289L156.424 54.6554L156.994 54.2702L157.183 54.2685L158.113 55.6856L158.112 55.8757L156.306 57.1273L155.459 56.8498L154.897 56.3797L154.432 55.6236L154.341 55.3393L154.35 54.389L154.829 53.6244L155.781 52.7606L156.826 52.086L157.394 51.8909Z" fill="#448552"/>
<path d="M117.814 24.4973L118.85 24.7731L118.918 27.5284L118.891 30.4745L117.949 30.2929L117.855 30.1987L117.771 29.0591L116.736 28.7833L116.358 28.7867L115.783 29.6471L114.748 29.3713L114.941 28.8945L116.569 26.4091L117.814 24.4973Z" fill="#4878B1"/>
<path d="M112.444 23.4049L113.671 23.3939L114.61 23.8606L114.981 24.6175L114.973 25.4729L114.03 25.3863L113.755 24.5335L113.379 24.3468L112.717 24.4478L112.332 25.2115L112.034 26.8297L112.12 27.6841L112.495 27.9659L113.061 28.0558L113.345 27.9582L113.448 27.007L112.789 26.8229L112.985 26.0609L114.305 26.2391L114.776 26.3299L114.573 27.8522L114.282 28.7101L113.524 29.002L112.485 29.0113L111.545 28.6396L111.078 28.0736L110.895 27.5051L110.905 26.4597L111.299 24.6506L111.778 23.886L112.254 23.5016L112.444 23.4049Z" fill="#4878B1"/>
<path d="M47.0698 149.811L48.0121 149.993L48.7611 150.651L49.1307 151.503L49.0301 152.169L48.551 152.934L47.801 152.371L47.9987 151.418L47.5312 150.947L46.9638 151.048L46.2032 151.625L45.2485 152.774L45.1479 153.44L45.5211 153.911L45.9922 154.002L46.4705 153.333L46.0964 152.956L46.2888 152.574L46.4793 152.382L46.8561 152.474L47.231 152.756L47.2293 152.946L47.6051 153.133L47.8857 153.415L47.7877 153.796L46.4536 155.138L45.7927 155.144L44.8531 154.678L44.1994 153.923L44.0159 153.355L44.1183 152.499L44.6936 151.543L45.9325 150.297L46.6913 149.91L47.0698 149.811Z" fill="#E07343"/>
<path d="M109.577 168.351L110.52 168.438L111.175 169.002L111.36 169.476L111.262 169.857L110.317 169.96L110.038 169.488L109.473 169.398L109.188 169.59L109.181 170.255L109.651 170.536L110.781 170.811L111.344 171.186L111.717 171.658L111.809 171.942L111.799 172.988L111.416 173.561L110.752 173.948L109.807 174.051L109.053 173.868L108.491 173.398L108.213 172.83L108.216 172.545L108.973 172.348L109.351 172.345L109.629 172.912L110.194 173.002L110.573 172.809L110.581 171.953L109.546 171.678L108.605 171.306L108.138 170.835L107.951 170.552L107.962 169.411L108.63 168.645L109.009 168.451L109.577 168.351Z" fill="#D94E40"/>
<path d="M117.525 166.379L118.468 166.466L118.937 166.747L119.31 167.313L119.306 167.694L118.738 167.889L118.266 167.893L117.798 167.422L117.136 167.523L117.128 168.378L117.693 168.563L118.824 168.743L119.576 169.117L120.041 169.873L120.031 170.918L119.648 171.492L119.078 171.877L118.794 171.975L117.567 171.986L116.909 171.611L116.536 171.14L116.446 170.665L117.487 170.371L117.86 170.938L118.615 170.931L118.805 170.834L118.811 170.169L118.53 169.886L116.835 169.521L116.272 169.146L115.993 168.674L115.907 167.724L116.196 167.151L116.862 166.575L117.525 166.379Z" fill="#D94E40"/>
<path d="M159.576 131.411L160.141 131.596L160.422 131.784L160.324 132.165L159.46 133.693L160.025 133.878L160.494 134.159L161.356 132.821L161.733 132.912L162.202 133.193L161.433 134.721L162.372 135.282L162.656 135.185L163.52 133.656L164.084 133.841L164.366 134.029L164.172 134.601L163.116 136.416L162.83 136.799L162.453 136.707L159.917 135.304L158.509 134.462L158.134 134.18L158.232 133.799L159.576 131.411Z" fill="#D94E40"/>
<path d="M144.004 151.222L144.38 151.314L144.753 151.881L143.61 152.936L143.325 153.129L143.51 153.507L143.978 153.978L144.452 153.784L145.309 153.016L145.776 153.487L145.773 153.867L144.82 154.731L144.911 155.11L145.472 155.77L145.851 155.577L146.993 154.616L147.369 154.803L147.649 155.086L147.551 155.467L146.599 156.331L145.553 157.195L145.268 157.388L144.24 156.257L143.4 155.219L142.466 154.182L141.812 153.428L141.91 153.047L142.957 152.087L144.004 151.222Z" fill="#D94E3F"/>
<path d="M26.2628 73.3089L27.1098 73.5864L26.913 74.4434L26.5247 75.5873L27.6549 75.8622L28.2356 74.3365L29.0826 74.614L28.7896 75.662L28.6898 76.2331L29.8191 76.603L30.2057 75.6493L30.4969 74.7914L31.1568 74.8805L31.4374 75.1631L30.4675 77.9276L30.1834 78.0252L26.3252 76.7294L25.3838 76.4528L25.2939 75.9784L26.1666 73.4998L26.2628 73.3089Z" fill="#EFB54D"/>
<path d="M33.0011 59.3737L33.4714 59.5595L33.7528 59.747L33.6539 60.2231L32.9824 61.3694L32.9798 61.6546L33.9194 62.1213L34.6871 60.784L35.1582 60.8748L35.5323 61.2515L34.9561 62.302L34.8581 62.683L35.7968 63.2448L35.9856 63.2431L36.8495 61.7149L37.2272 61.7115L37.6965 61.9924L37.5024 62.5643L36.927 63.5197L36.3508 64.5702L35.9714 64.7637L34.5633 63.9211L33.5302 63.3602L31.5583 62.2375L31.4666 61.9532L32.522 60.1382L33.0011 59.3737Z" fill="#EFB54D"/>
<path d="M23.8253 81.5981L24.6732 81.7805L24.5708 82.6367L24.2769 83.7797L25.5015 84.0538L25.701 82.9117L25.8942 82.4348L26.4607 82.4297L26.7421 82.6172L26.4429 84.3305L27.7637 84.4136L28.1573 82.6996L28.5358 82.6011L29.1005 82.7861L28.901 83.9283L28.5074 85.6423L28.4112 85.8333L27.5624 85.7459L25.302 85.196L23.2295 84.7394L23.1396 84.2651L23.7291 81.789L23.8253 81.5981Z" fill="#EFB54D"/>
<path d="M27.1735 107.131L27.4558 107.224L27.8059 110.166L27.6153 110.358L23.1729 110.968L22.3232 110.976L21.9723 108.128L21.9741 107.938L22.1638 107.841L22.919 107.835L23.098 108.878L23.1844 109.733L24.4126 109.627L24.2345 108.488L24.2398 107.918L25.0904 107.815L25.1839 107.909L25.3585 109.428L26.681 109.321L26.5109 107.327L27.1735 107.131Z" fill="#EFB54D"/>
<path d="M43.9894 45.2107L44.3653 45.3974L44.6458 45.68L44.5479 46.061L43.4987 47.2108L43.684 47.5892L44.1516 48.0602L44.531 47.8667L45.3886 47.0037L45.7645 47.1904L46.045 47.473L45.8527 47.8548L45.1856 48.526L45.0876 48.907L45.8358 49.6606L46.2152 49.4671L47.0728 48.6041L47.2643 48.3173L47.6401 48.504L47.9207 48.7866L47.8227 49.1676L47.1557 49.8388L46.4877 50.605L45.9159 51.1803L45.4457 50.9945L43.6689 49.2049L43.2004 48.8289L43.2022 48.6389L42.8263 48.4522L41.9847 47.6045L42.0826 47.2235L43.6074 45.6893L43.9894 45.2107Z" fill="#EFB54D"/>
<path d="M77.6895 25.0472L78.728 25.0379L79.2909 25.413L79.6641 25.8848L79.7549 26.2641L78.7138 26.5585L78.435 26.0859L77.9639 25.9951L77.5845 26.1885L77.4856 26.6646L77.6709 27.043L79.3666 27.4079L80.0239 27.7821L80.3953 28.444L80.4826 29.2035L80.1932 29.8713L79.6223 30.3516L79.1485 30.5459L78.0156 30.556L77.4518 30.276L76.9851 29.71L76.8943 29.3307L77.6522 29.0388L78.0289 29.1305L78.2142 29.5089L78.8741 29.598L79.2535 29.4046L79.2589 28.8343L78.9792 28.4567L77.2835 28.0918L76.7206 27.7168L76.3492 27.0549L76.3572 26.1995L76.7401 25.6259L77.2157 25.2415L77.6895 25.0472Z" fill="#4878B0"/>
<path d="M172.164 87.5845L173.013 87.5768L173.362 90.6147L173.173 90.7114L172.417 90.7182L172.239 89.5794L172.153 88.7249L171.301 88.9226L170.924 88.926L171.097 90.635L170.246 90.7377L170.153 90.6435L169.978 89.1246L168.561 89.2323L168.741 90.181L168.825 91.2256L168.73 91.3214L167.974 91.4233L167.791 90.7597L167.531 88.2912L168.477 88.0927L172.164 87.5845Z" fill="#448553"/>
<path d="M61.9755 160.891L62.7298 160.979L63.2936 161.259L63.9473 162.013L64.0337 162.868L63.7452 163.441L63.2749 163.255L62.8991 163.068L62.8135 162.119L62.6256 162.025L62.0592 162.03L61.8677 162.317L61.9568 162.886L62.7014 164.02L62.7931 164.304L62.786 165.065L62.4012 165.828L61.9257 166.213L61.2639 166.314L60.3225 166.037L59.5744 165.284L59.39 164.81L59.3962 164.145L59.6848 163.572L60.1551 163.758L60.53 164.04L60.5229 164.8L60.897 165.177L61.369 165.172L61.6558 164.79L61.5658 164.315L60.8221 163.087L60.7295 162.898L60.7384 161.947L61.1213 161.374L61.4072 161.086L61.9755 160.891Z" fill="#E07343"/>
<path d="M163.086 58.9672L163.368 59.0597L164.761 61.5179L164.38 61.9015L164.001 62.0949L163.442 61.2447L163.071 60.5828L163.073 60.3927L162.124 60.8764L162.026 61.2574L162.676 62.3919L162.295 62.7754L161.822 62.8747L161.079 61.551L160.131 62.0346L159.847 62.1322L160.682 63.6452L160.773 64.0245L160.014 64.4114L159.27 63.1827L158.528 61.8589L158.625 61.573L160.618 60.4147L162.896 59.0639L163.086 58.9672Z" fill="#448553"/>
<path d="M164.941 62.4663L165.318 62.558L166.522 65.0179L166.425 65.3039L165.761 65.5949L165.296 64.8389L164.833 63.8927L163.79 64.3772L163.975 64.8507L164.438 65.7969L164.436 65.9869L163.867 66.2771L163.584 66.2797L162.935 65.0501L162.936 64.86L161.798 65.4404L161.609 65.4421L162.444 67.0501L162.346 67.4311L161.682 67.7222L160.755 65.9249L160.291 65.0738L160.293 64.8838L162.759 63.6262L164.562 62.6598L164.941 62.4663Z" fill="#448553"/>
<path d="M76.9273 167.028L77.6826 167.022L78.4352 167.3L78.9954 167.96L79.0871 168.244L79.08 169.005L78.6071 169.104L77.9489 168.825L77.8607 168.16L77.6728 168.067L77.1064 168.072L76.9149 168.359L77.0049 168.833L78.2206 170.058L78.4049 170.531L78.3969 171.387L78.0122 172.15L77.2534 172.537L76.3102 172.451L75.5585 172.077L75.0918 171.511L75.0001 171.227L75.009 170.277L75.8577 170.364L76.1383 170.647L76.2265 171.311L76.6023 171.498L77.0752 171.399L77.2694 170.827L76.9906 170.354L75.961 169.413L75.7758 169.034L75.7847 168.084L76.1685 167.415L76.9273 167.028Z" fill="#DF7343"/>
<path d="M107.637 22.5927L109.334 22.7675L110.654 22.9457L110.647 23.7061L110.551 23.897L108.571 23.6296L108.467 24.6759L108.37 24.9619L109.596 25.0459L110.067 25.1367L109.965 25.9929L108.739 25.9089L108.267 25.8181L108.16 27.2445L110.045 27.5126L110.039 28.1779L109.943 28.3688L109.187 28.3756L107.113 28.1091L106.925 28.0158L106.932 27.2555L107.542 22.6886L107.637 22.5927Z" fill="#4878B1"/>
<path d="M90.8351 22.4587L91.6848 22.4511L91.7712 23.3055L90.5421 23.5066L89.7869 23.5134L89.8689 24.8431L91.5699 24.6378L91.6635 24.732L91.6563 25.4923L90.7105 25.6908L90.0497 25.6967L90.1298 27.2165L92.0206 26.9144L92.2094 26.9127L92.2958 27.7672L92.2006 27.8631L89.176 28.2704L88.8242 25.5177L88.5623 23.2393L88.5667 22.7641L90.8351 22.4587Z" fill="#4878B1"/>
<path d="M74.754 26.024L75.1317 26.0206L75.4078 26.7784L74.2705 27.2637L73.5134 27.4606L73.8804 28.5976L74.7318 28.4L75.4888 28.2031L75.7658 28.8658L75.6697 29.0567L74.3435 29.5438L74.1547 29.5455L74.6143 30.8718L76.5077 30.2846L76.7847 30.9473L76.783 31.1374L75.2671 31.7212L74.1307 32.1115L73.754 32.0199L72.3779 27.7559L72.1935 27.2824L72.2915 26.9014L74.754 26.024Z" fill="#4878B0"/>
<path d="M169.503 79.3408L170.447 79.3324L171.293 79.7049L171.666 80.1767L171.942 81.0295L171.935 81.6948L171.551 82.4584L170.696 83.0363L170.318 83.0397L170.139 81.996L170.803 81.7049L170.899 81.514L170.904 80.9438L170.624 80.5662L169.964 80.477L167.883 80.9709L167.408 81.2602L167.309 81.8313L167.493 82.3048L168.435 82.4864L168.614 83.5301L167.481 83.5403L166.919 83.1652L166.545 82.6934L166.27 81.8406L166.373 80.9844L166.756 80.4108L167.231 80.0264L168.273 79.637L169.503 79.3408Z" fill="#448553"/>
<path d="M58.6917 158.735L59.0684 158.826L61.1329 160.138L61.2237 160.518L60.8408 161.091L59.1504 160.156L58.6712 160.921L58.5741 161.207L59.0444 161.392L59.7952 161.861L59.6963 162.337L59.3152 162.72L58.2829 162.064L57.9071 161.878L57.7138 162.355L57.3291 163.118L57.7993 163.304L58.8316 163.96L58.7327 164.436L58.4459 164.819L57.9757 164.633L56.0991 163.414L55.9112 163.321L56.0101 162.845L57.2551 160.933L58.3087 159.308L58.6917 158.735Z" fill="#DF7343"/>
<path d="M31.7133 126.382L32.0909 126.378L33.2007 128.839L33.1027 129.22L32.6289 129.414L32.3457 129.417L31.6982 127.997L31.7008 127.712L30.6579 128.197L30.9331 129.05L31.1157 129.713L30.641 130.002L30.2634 130.006L29.7094 128.68L29.1412 128.876L28.5721 129.166L28.8473 130.019L29.216 130.966L28.6469 131.256L28.2702 131.164L27.1604 128.703L27.1622 128.513L29.8172 127.254L31.7133 126.382Z" fill="#E07343"/>
<path d="M88.6115 169.3L90.782 169.375L91.5363 169.464L91.6298 169.558L91.6227 170.318L91.5274 170.414L89.5458 170.337L89.6295 171.476L91.0447 171.559L91.1382 171.653L91.1311 172.413L91.0358 172.509L89.4318 172.428L89.325 173.76L90.8346 173.841L91.2113 173.933L91.2033 174.788L89.8816 174.8L88.1841 174.625L88.1948 173.485L88.5144 169.586L88.6115 169.3Z" fill="#DF7243"/>
<path d="M122.05 25.7897L123.086 25.9705L123.743 26.4397L124.022 26.9124L124.107 27.8619L124.008 28.338L123.255 28.1547L122.973 28.0622L122.981 27.2068L122.7 26.9243L122.04 26.8351L121.564 27.3146L120.982 28.9353L120.885 29.2213L120.875 30.2667L121.723 30.4491L122.199 29.9697L122.296 29.7788L123.144 29.9612L123.331 30.0546L123.137 30.6265L122.755 31.1051L122.186 31.3953L121.242 31.4037L120.49 31.1254L119.836 30.371L119.743 30.1818L119.755 28.9463L120.337 27.2305L120.816 26.466L121.387 25.9857L122.05 25.7897Z" fill="#4878B0"/>
<path d="M37.1668 138.781L38.2997 138.771L38.8625 139.146L39.3292 139.712L39.5136 140.186L39.5056 141.041L39.1217 141.71L38.6462 142.094L38.0859 141.434L38.1839 141.053L38.4698 140.765L38.3816 140.101L38.1011 139.818L37.4393 139.919L36.3946 140.594L35.5388 141.267L35.3464 141.648L35.4363 142.123L35.7169 142.405L36.2833 142.4L36.6618 142.302L37.2221 142.962L37.0297 143.344L36.5559 143.538L35.6118 143.547L34.7675 142.984L34.3035 142.133L34.3115 141.278L34.6962 140.514L35.553 139.746L36.8827 138.879L37.1668 138.781Z" fill="#DF7343"/>
<path d="M125.155 26.9023L126.096 27.1789L126.189 27.2731L126.166 29.7441L127.216 28.4993L127.694 27.9248L128.259 28.0148L128.823 28.2948L128.25 28.9652L126.44 30.787L125.959 31.7416L125.476 32.8863L124.629 32.6088L124.441 32.5154L124.732 31.6576L125.023 30.8947L125.155 26.9023Z" fill="#4778B1"/>
<path d="M108.562 95.1876L109.318 95.1808L109.881 95.4608L110.161 95.8385L110.253 96.1227L110.315 99.5432L109.654 99.5492L109.563 99.1699L108.804 99.6518L108.049 99.5636L107.673 99.3769L107.395 98.9042L107.404 97.8588L107.977 97.1885L108.451 96.9942L109.584 96.984L109.405 95.9403L109.217 95.8469L108.556 95.8529L108.271 96.0455L108.079 96.4273L107.418 96.4332L107.708 95.6704L108.278 95.2852L108.562 95.1876Z" fill="#868686"/>
<path d="M155.358 138.291L155.828 138.477L156.202 138.854L155.532 139.905L157.032 141.032L158.626 142.158L159.001 142.44L158.902 142.916L158.52 143.394L158.143 143.303L156.361 142.083L154.861 140.956L153.908 141.915L153.252 141.446L153.445 140.969L154.688 139.247L155.358 138.291Z" fill="#D94E40"/>
<path d="M122.544 164.624L122.825 164.906L122.913 165.571L121.965 165.959L121.777 165.961L122.602 168.52L123.154 170.13L123.152 170.32L122.394 170.612L122.016 170.615L121.19 168.152L120.638 166.542L119.693 166.74L119.408 166.838L119.131 166.175L119.134 165.89L120.65 165.306L122.544 164.624Z" fill="#D94E40"/>
<path d="M68.9116 95.5431L69.6669 95.5363L70.2306 95.8163L70.5103 96.1939L70.602 96.4782L70.6644 99.8987L70.0036 99.9046L69.9127 99.5253L69.7239 99.527L69.7222 99.7171L69.153 100.007L68.3987 99.919L67.8367 99.4489L67.745 99.1647L67.7521 98.4044L68.0406 97.8316L68.5162 97.4472L68.8947 97.3488L69.9332 97.3395L69.8468 96.485L69.5662 96.2024L68.9054 96.2083L68.6195 96.496L68.5224 96.7819L67.8616 96.7879L67.9613 96.2168L68.6275 95.6406L68.9116 95.5431Z" fill="#868686"/>
<path d="M78.5411 95.4566L79.2963 95.4499L80.048 95.8232L80.2324 96.2967L80.2939 99.8123L79.633 99.8182L79.6366 99.4381L79.0666 99.8233L78.3105 99.9251L77.7467 99.6451L77.467 99.2675L77.3797 98.508L77.5739 97.9361L78.0504 97.4567L78.5242 97.2624L79.5627 97.253L79.4771 96.3035L79.1957 96.116L78.6293 96.121L78.249 96.4096L78.1519 96.6955L77.491 96.7014L77.5899 96.2254L78.0673 95.6509L78.5411 95.4566Z" fill="#868686"/>
<path d="M114.793 95.1314L115.548 95.1247L116.112 95.4047L116.485 95.8765L116.668 96.5401L116.659 97.4904L114.299 97.5116L114.385 98.3661L114.57 98.7446L115.041 98.9304L115.797 98.8286L116.177 98.5401L116.366 98.5384L116.55 99.0119L116.075 99.3963L115.507 99.5914L114.563 99.5049L114 99.1298L113.63 98.3729L113.648 96.4721L113.937 95.8043L114.319 95.3257L114.793 95.1314Z" fill="#868686"/>
<path d="M97.4462 22.1143L101.127 22.1763L101.221 22.2705L101.118 23.1266L99.891 23.1377L99.6604 27.6061L98.5275 27.6163L98.6637 23.1487L97.4373 23.0646L97.4462 22.1143Z" fill="#4879B0"/>
<path d="M73.1373 67.6616L75.0254 67.6447L75.6809 68.209L75.8644 68.7775L75.8537 69.918L75.5652 70.4907L75.0896 70.8751L74.6166 70.9744L73.2005 70.9871L73.107 70.8929L73.1373 67.6616Z" fill="#FDFDFD"/>
<path d="M99.9855 93.7439L100.834 93.8313L101.397 94.2064L101.77 94.6782L101.858 95.4376L101.197 95.4436L100.921 94.6858L100.357 94.4058L99.6952 94.5067L99.4111 94.6043L99.3078 95.5555L99.493 95.934L101.372 96.8674L101.745 97.3392L101.837 97.6235L101.828 98.5739L101.54 99.1467L101.064 99.531L100.496 99.7262L99.8351 99.7321L98.989 99.3596L98.5223 98.7936L98.3379 98.3201L98.3406 98.035L99.0958 98.0282L99.2784 98.6918L99.6534 98.9735L100.692 98.9642L100.978 98.6766L101.074 98.4856L101.08 97.8204L100.707 97.3486L99.3906 96.7902L98.7351 96.2259L98.5508 95.7524L98.5588 94.8971L98.9426 94.2284L99.5126 93.8432L99.9855 93.7439Z" fill="#868686"/>
<path d="M55.0481 94.1472L55.8969 94.2346L56.4598 94.6097L56.8329 95.0815L56.9202 95.841L56.2594 95.8469L55.9833 95.0891L55.3251 94.8099L54.4737 95.0076L54.3704 95.9589L54.5556 96.3373L56.4349 97.2708L56.808 97.7426L56.8998 98.0268L56.89 99.0722L56.507 99.6459L55.937 100.031L54.9921 100.135L54.1451 99.8571L53.5849 99.1969L53.4032 98.4383L54.1584 98.4315L54.341 99.0951L54.716 99.3768L55.7545 99.3675L56.0403 99.0799L56.1365 98.8889L56.1427 98.2237L56.0519 97.8444L55.5816 97.6585L54.4532 97.1935L53.7977 96.6292L53.6133 96.1557L53.6213 95.3004L54.0052 94.6317L54.5752 94.2465L55.0481 94.1472Z" fill="#868686"/>
<path d="M139.817 154.776L140.193 154.963L141.405 156.567L142.618 158.077L142.616 158.267L144.137 157.113L144.326 157.111L144.792 157.772L144.316 158.252L142.793 159.501L142.32 159.695L141.48 158.657L140.454 157.336L139.334 155.921L139.055 155.543L139.152 155.257L139.817 154.776Z" fill="#D94E40"/>
<path d="M39.9826 49.7132L40.4519 49.9941L41.4815 50.9351L42.512 51.7811L43.3545 52.5338L43.7339 52.3404L44.5934 51.2873L45.0645 51.3781L45.3451 51.6607L45.2471 52.0417L44.3885 52.9997L43.6244 53.9568L43.2459 54.0553L42.2163 53.1142L41.4673 52.4557L40.1563 51.3271L39.4072 50.6686L39.5052 50.2876L39.9826 49.7132Z" fill="#EFB54D"/>
<path d="M171.822 83.6912L172.389 83.6861L172.568 84.7298L170.109 85.227L168.501 85.5265L168.124 85.5299L168.392 87.143L168.294 87.524L167.538 87.6258L167.355 86.9623L166.996 84.9699L167.094 84.5889L171.822 83.6912Z" fill="#458553"/>
<path d="M83.5552 23.6644L83.7422 23.8528L84.4583 28.0277L84.5518 28.1218L86.3482 27.8206L86.4337 28.7702L83.7859 29.2691L83.5027 29.2716L83.1429 27.3742L82.6067 24.148L82.6093 23.8629L83.5552 23.6644Z" fill="#4878B0"/>
<path d="M103.675 22.2481L104.713 22.3338L104.702 23.4743L104.387 26.8982L105.802 26.9805L106.273 27.0713L106.267 27.7366L106.171 27.9275L105.227 27.9359L103.246 27.7637L103.257 26.6232L103.576 22.7241L103.675 22.2481Z" fill="#4878B1"/>
<path d="M85.3117 168.854L86.3493 168.94L86.4393 169.414L85.9308 173.315L87.4395 173.492L87.7209 173.679L87.6194 174.44L85.921 174.361L84.6955 174.181L84.8041 172.66L85.3117 168.854Z" fill="#DF7343"/>
<path d="M140.008 93.955L140.668 94.0441L140.948 94.4217L141.128 95.3704L141.109 97.3662L140.912 98.3183L140.625 98.701L140.057 98.8011L139.682 98.6144L139.404 98.0467L139.314 97.5724L139.336 95.1964L139.628 94.2435L140.008 93.955Z" fill="#FDFDFD"/>
<path d="M131.984 94.0268L132.644 94.1159L133.016 94.6827L133.106 95.1571L133.082 97.7231L132.791 98.581L132.411 98.8695L131.845 98.7795L131.564 98.497L131.38 98.0235L131.293 97.264L131.309 95.5533L131.507 94.6012L131.794 94.1235L131.984 94.0268Z" fill="#FDFDFD"/>
<path d="M81.5394 67.5859L83.3331 67.5698L83.8016 67.9458L84.0768 68.7986L84.0706 69.4638L83.7803 70.2267L83.3991 70.6102L83.115 70.7078L81.5101 70.7222L81.5394 67.5859Z" fill="#FDFDFD"/>
<path d="M135.954 93.4212L136.803 93.5087L137.459 94.073L137.64 94.8316L137.539 95.5927L137.156 96.1663L136.965 96.3581L137.527 96.8282L137.619 97.1125L137.608 98.2529L137.32 98.8257L136.939 99.2092L136.37 99.4044L135.522 99.317L134.959 98.9419L134.68 98.4693L134.591 97.8999L134.686 97.804L135.253 97.7989L135.528 98.6517L136.282 98.74L136.757 98.4506L136.95 97.9737L136.864 97.1193L136.772 96.835L135.641 96.6551L135.646 96.0848L136.592 95.8863L136.88 95.4086L136.887 94.6483L136.608 94.1756L135.948 94.0865L135.57 94.1849L135.278 95.0428L134.712 95.0479L134.717 94.4777L135.1 93.9041L135.576 93.5197L135.954 93.4212Z" fill="#868686"/>
<path d="M128.024 93.4922L128.873 93.5796L129.528 94.1439L129.712 94.7124L129.706 95.3777L129.223 96.5224L127.694 98.5317L127.502 98.8185L129.863 98.7974L129.857 99.3676L126.647 99.3964L126.653 98.8262L127.99 97.1036L128.853 95.7655L128.95 95.4795L128.956 94.8142L128.678 94.2466L128.018 94.1574L127.543 94.4468L127.252 95.3047L126.686 95.3098L126.594 95.0255L126.885 94.1676L127.456 93.6873L128.024 93.4922Z" fill="#868686"/>
<path d="M127.284 162.491L127.755 162.581L129.235 165.894L129.789 167.22L129.786 167.505L128.838 167.893L128.097 166.38L126.895 163.73L126.62 162.877L127.284 162.491Z" fill="#D94D3F"/>
<path d="M121.212 95.1689L121.873 95.163L122.148 96.0158L122.602 97.9123L122.695 98.1016L123.38 95.4346L123.478 95.1486L124.138 95.1427L124.038 95.8088L122.77 100.097L122.386 100.86L121.911 101.15L121.345 101.155L121.35 100.584L122.013 100.293L122.304 99.5305L121.94 98.0133L121.209 95.4541L121.212 95.1689Z" fill="#868686"/>
<path d="M92.9843 95.4224L93.7396 95.4156L94.4673 98.355L95.2501 95.402L96.0053 95.3953L94.8342 99.492L94.445 100.731L93.9677 101.305L93.778 101.402L93.2115 101.407L93.118 101.313L93.1225 100.838L93.786 100.547L94.0754 99.879L93.9881 99.1195L92.9826 95.6124L92.9843 95.4224Z" fill="#868686"/>
<path d="M57.8652 95.7373L58.4316 95.7322L58.4985 98.6775L58.682 99.2461L58.7755 99.3403L59.5307 99.3335L59.9119 98.95L60.0365 95.7178L60.6974 95.7119L60.6583 99.8936L60.563 99.9894L59.9965 99.9945L59.9048 99.7103L59.5245 99.9988L58.674 100.101L58.1111 99.7264L57.8332 99.1587L57.8652 95.7373Z" fill="#868686"/>
<path d="M74.9536 95.4888L75.6145 95.4828L76.1774 95.8579L76.3626 96.2364L76.3288 99.8478L75.7624 99.8529L75.6964 96.8125L75.513 96.244L74.853 96.1549L74.3774 96.5393L74.2812 96.7302L74.1575 99.8673L73.4966 99.8732L73.5366 95.5965L74.1975 95.5906L74.1939 95.9707L74.9536 95.4888Z" fill="#868686"/>
<path d="M86.6759 23.0662L87.62 23.0577L87.8854 24.9559L88.2346 27.9937L88.1357 28.4698L87.1908 28.5733L87.0109 27.6246L86.4862 23.1629L86.6759 23.0662Z" fill="#4878B0"/>
<path d="M81.0953 24.2563L81.4729 24.2529L82.5604 29.0897L82.556 29.5648L81.8934 29.7608L81.5157 29.7642L80.7898 26.6348L80.4282 24.9275L80.4327 24.4523L81.0953 24.2563Z" fill="#4878B1"/>
<path d="M37.0919 136.691L37.4687 136.783L37.841 137.35L37.7439 137.636L35.6545 138.985L34.0398 140.045L33.3754 140.431L32.8161 139.676L33.0085 139.294L35.2876 137.848L36.9022 136.788L37.0919 136.691Z" fill="#DF7243"/>
<path d="M79.9412 167.762L80.79 167.849L80.9779 167.943L80.1889 171.561L79.797 173.085L78.8539 172.998L78.6659 172.905L79.0605 171.096L79.8459 167.858L79.9412 167.762Z" fill="#DF7243"/>
<path d="M42.963 144.811L43.3389 144.998L43.7121 145.47L43.5197 145.852L42.1873 147.004L41.2353 147.868L40.1888 148.733L39.9029 149.02L39.5262 148.929L39.0595 148.363L39.1565 148.077L40.203 147.212L41.2504 146.252L42.2969 145.388L42.963 144.811Z" fill="#DF7243"/>
<path d="M62.6808 95.5991L63.4361 95.5923L63.9998 95.8723L64.373 96.3441L64.463 96.8185L63.8021 96.8244L63.5233 96.3518L63.3354 96.2584L62.769 96.2635L62.4831 96.5512L62.5722 97.1205L64.1691 97.9615L64.4478 98.4341L64.4407 99.1944L64.0578 99.768L63.3943 100.059L62.4511 99.9725L61.8882 99.5974L61.6103 99.0298L61.613 98.7446L62.2738 98.7387L62.5517 99.3064L63.3061 99.3947L63.6855 99.2012L63.6917 98.5359L63.0344 98.1617L62.0013 97.6008L61.7234 97.0331L61.8249 96.272L62.3014 95.7925L62.6808 95.5991Z" fill="#868686"/>
<path d="M23.1495 93.2931L25.2264 93.2745L26.0734 93.552L26.354 93.8346L26.3469 94.5949L25.9657 94.9784L25.5872 95.0768L23.6055 94.9996L22.8529 94.7212L22.6668 94.4378L22.6739 93.6775L23.1495 93.2931Z" fill="#FDFDFD"/>
<path d="M35.4761 57.166L36.3258 57.1584L37.7339 58.0011L38.3894 58.5654L38.482 58.7546L38.4758 59.4198L38.0946 59.8034L37.6217 59.9027L36.8691 59.6243L35.7433 58.8742L35.2758 58.4032L35.0896 58.1198L35.1902 57.4537L35.4761 57.166Z" fill="#FDFDFD"/>
<path d="M69.1085 165.293L69.7685 165.382L70.049 165.665L70.0401 166.615L69.268 168.428L68.7924 168.812L68.1324 168.723L67.7593 168.251L67.8617 167.395L68.6329 165.678L69.1085 165.293Z" fill="#FDFDFD"/>
<path d="M82.5952 95.9905L83.1616 95.9854L83.6301 96.3614L83.8127 97.0249L83.8011 98.2604L83.5108 99.0233L83.3202 99.215L82.4705 99.2227L82.003 98.7517L82.0234 96.5658L82.4055 96.0873L82.5952 95.9905Z" fill="#FDFDFD"/>
<path d="M118.753 95.6659L119.413 95.7551L119.787 96.1318L119.765 98.5078L119.383 98.8913L118.534 98.8989L118.16 98.5222L118.068 98.2379L118.085 96.4322L118.373 95.8594L118.753 95.6659Z" fill="#FDFDFD"/>
<path d="M103.001 94.287L103.662 94.2811L103.652 95.3265L104.313 95.3206L104.309 95.7958L103.741 95.8959L103.712 99.0322L104.278 99.0271L104.273 99.5973L103.611 99.6983L103.142 99.4174L102.958 98.9439L102.987 95.8076L102.326 95.8136L102.331 95.3384L102.991 95.3325L103.001 94.287Z" fill="#868686"/>
<path d="M111.592 94.2099L112.253 94.204L112.243 95.2494L112.904 95.2434L112.9 95.7186L112.239 95.7246L112.303 98.955L112.869 98.9499L112.864 99.5202L112.202 99.6211L111.733 99.3402L111.549 98.8667L111.578 95.7305L110.917 95.7364L110.922 95.2612L111.582 95.2553L111.592 94.2099Z" fill="#868686"/>
<path d="M28.4573 70.818L29.3069 70.8104L30.8121 71.3671L31.4676 71.9314L31.4614 72.5966L31.269 72.9785L30.7979 72.8877L28.0699 71.8668L27.9799 71.3925L28.2676 70.9148L28.4573 70.818Z" fill="#FDFDFD"/>
<path d="M91.2004 94.393L91.8612 94.3871L91.8515 95.4325L92.4179 95.4274L92.4134 95.9026L91.847 95.9077L91.9121 99.0431L92.3832 99.1339L92.3779 99.7041L91.7161 99.8051L91.2477 99.4292L91.1559 99.1449L91.0909 96.0095L90.5253 95.9195L90.5298 95.4443L91.1906 95.4384L91.2004 94.393Z" fill="#868686"/>
<path d="M65.7107 94.6215L66.3716 94.6156L66.3618 95.661L66.9282 95.6559L66.9238 96.1311L66.3573 96.1362L66.4224 99.2716L66.8935 99.3624L66.8882 99.9326L66.2265 100.034L65.758 99.6577L65.6662 99.3734L65.6012 96.238L65.0356 96.148L65.0401 95.6729L65.7009 95.6669L65.7107 94.6215Z" fill="#868686"/>
<path d="M87.3369 93.6675L87.9977 93.6616L87.9417 99.6489L87.8464 99.7448L87.2799 99.7499L87.3369 93.6675Z" fill="#868686"/>
<path d="M122.183 82.1409L122.369 82.5194L123.097 85.3638L123.093 85.8389L121.205 85.8559L121.306 85.0947L122.088 82.2368L122.183 82.1409Z" fill="#FDFDFD"/>
<path d="M106.391 95.2068L106.863 95.2025L106.857 95.8678L106.1 96.0646L105.908 96.3515L105.784 99.5836L105.123 99.5895L105.163 95.3128L105.824 95.3069L105.915 95.5911L106.391 95.2068Z" fill="#868686"/>
<path d="M96.9862 51.1025L97.5526 51.0974L98.1146 51.5675L98.2019 52.3269L97.9142 52.8047L97.4395 53.094L96.7796 53.0049L96.4055 52.6282L96.3129 52.4389L96.3191 51.7737L96.6068 51.2959L96.9862 51.1025Z" fill="#D94E40"/>
<path d="M85.4318 95.4897L86.0927 95.4838L86.0526 99.7605L85.3918 99.7664L85.4318 95.4897Z" fill="#868686"/>
<path d="M71.7429 95.6128L72.4038 95.6069L72.3637 99.8836L71.7973 99.8886L71.7038 99.7945L71.7429 95.6128Z" fill="#868686"/>
<path d="M89.2081 95.4561L89.7745 95.451L89.7345 99.7277L89.1681 99.7328L89.2081 95.4561Z" fill="#868686"/>
<path d="M88.0826 54.3184L88.2715 54.3167L88.2688 54.6018L88.7408 54.5975L88.739 54.7876L89.1184 54.5942L89.5905 54.5899L89.6831 54.7791L90.1569 54.5848L90.5345 54.5814L90.7198 54.9599L90.6209 55.4359L90.5248 55.6269L89.9583 55.6319L89.7713 55.4436L89.2975 55.6379L88.7328 55.4529L88.731 55.643L88.0702 55.6489L88.0826 54.3184Z" fill="#DD5F41"/>
<path d="M89.2466 50.9819L90.0963 50.9743L90.4721 51.161L90.6574 51.5395L90.5559 52.3006L90.1756 52.5891L89.5147 52.595L89.5085 53.2603L89.2244 53.3579L89.2466 50.9819Z" fill="#FDFDFD"/>
<path d="M23.0106 98.0456L23.7659 98.0388L24.2343 98.4147L24.2245 99.4601L22.6196 99.4745L22.5261 99.3803L22.5341 98.525L23.0106 98.0456Z" fill="#FDFDFD"/>
<path d="M101.614 50.8706L102.464 50.863L102.932 51.2389L103.021 51.8083L102.733 52.381L101.882 52.4837L101.876 53.149L101.592 53.2466L101.614 50.8706Z" fill="#FDFDFD"/>
<path d="M31.252 64.7112L31.8184 64.7061L32.3813 65.0812L32.5674 65.3646L32.4686 65.8407L32.18 66.4134L31.7089 66.3226L30.6758 65.7617L30.7746 65.2857L31.252 64.7112Z" fill="#FDFDFD"/>
<path d="M38.6298 53.0513L39.1009 53.1421L39.5703 53.423L39.7564 53.7064L39.7511 54.2767L39.1784 54.947L38.6155 54.5719L37.8656 54.0085L38.058 53.6266L38.4401 53.1481L38.6298 53.0513Z" fill="#FDFDFD"/>
<path d="M98.9705 50.8944L99.2511 51.177L99.8986 52.5966L100.089 52.4049L100.859 50.8775L100.953 50.8766L101.215 53.155L100.932 53.1576L100.754 52.0188L100.66 51.9246L99.9867 53.2611L99.7062 52.9785L99.2439 51.9373L99.1495 51.9382L98.9492 53.1753L98.6659 53.1779L98.8708 51.4655L98.9705 50.8944Z" fill="#FDFDFD"/>
<path d="M148.085 148.905L148.649 149.09L149.116 149.656L149.016 150.227L148.444 150.802L148.256 150.804L147.602 150.05L147.229 149.578L147.8 149.003L148.085 148.905Z" fill="#FDFDFD"/>
<path d="M65.4436 163.52L66.1953 163.894L66.3823 164.082L66.3761 164.747L65.9931 165.321L65.6146 165.42L64.7685 165.047L64.8674 164.571L65.4436 163.52Z" fill="#FDFDFD"/>
<path d="M108.635 97.4676L109.579 97.4591L109.57 98.5045L109.093 98.9839L108.338 98.9907L108.057 98.7081L108.064 97.9478L108.635 97.4676Z" fill="#FDFDFD"/>
<path d="M68.9847 97.823L69.9287 97.8146L69.9181 98.955L69.4425 99.3394L68.6872 99.3462L68.4067 99.0636L68.4138 98.3033L68.9847 97.823Z" fill="#FDFDFD"/>
<path d="M70.0088 28.7275L70.48 28.8183L70.8523 29.3851L70.8452 30.1454L70.1808 30.5315L69.8966 30.6291L69.5261 29.8722L69.3418 29.3987L69.3453 29.0185L70.0088 28.7275Z" fill="#FDFDFD"/>
<path d="M78.7085 97.7358L79.5582 97.7281L79.5475 98.8686L79.0719 99.253L78.3167 99.2598L78.037 98.8822L78.1385 98.121L78.4244 97.8333L78.7085 97.7358Z" fill="#FDFDFD"/>
<path d="M160.56 56.5188L160.934 56.8955L161.119 57.274L161.02 57.75L160.545 58.1344L159.883 58.2354L159.509 57.8586L159.323 57.5752L159.326 57.2901L160.56 56.5188Z" fill="#FDFDFD"/>
<path d="M114.882 95.701L115.543 95.695L115.917 96.0718L116.003 96.9263L115.908 97.0222L114.303 97.0366L114.309 96.3713L114.597 95.8936L114.882 95.701Z" fill="#FDFDFD"/>
<path d="M105.201 50.8384L105.857 51.4027L106.698 52.3454L106.886 52.4388L106.901 50.8231L107.183 50.9156L107.162 53.1965L106.786 53.0098L105.945 52.0671L105.477 51.5961L105.463 53.1167L105.179 53.2143L105.201 50.8384Z" fill="#FDFDFD"/>
<path d="M25.6448 78.8262L26.4001 78.8194L26.8694 79.1003L26.9585 79.6697L26.7643 80.2416L26.1044 80.1525L25.2574 79.875L25.358 79.2089L25.6448 78.8262Z" fill="#FDFDFD"/>
<path d="M96.7992 50.9141L97.7432 50.9057L98.3052 51.3758L98.4905 51.7542L98.4842 52.4195L98.1013 52.9931L97.6266 53.2824L96.7769 53.2901L96.2141 52.915L96.0288 52.5365L96.0368 51.6812L96.4198 51.1076L96.7992 50.9141ZM96.9862 51.1025L96.5115 51.3919L96.3191 51.7737L96.3129 52.439L96.5917 52.9116L97.0619 53.0975L97.7237 52.9965L98.1048 52.6129L98.2064 51.8518L97.9276 51.3791L97.5526 51.0974L96.9862 51.1025Z" fill="#FDFDFD"/>
<path d="M161.669 129.682L162.33 129.676L162.799 129.957L162.892 130.146L162.886 130.716L162.599 131.194L162.128 131.103L161.189 130.541L161.383 129.969L161.669 129.682Z" fill="#FDFDFD"/>
<path d="M152.953 143.159L153.519 143.154L154.081 143.624L154.17 144.194L153.787 144.767L153.41 144.676L152.567 144.018L152.571 143.638L152.953 143.159Z" fill="#FDFDFD"/>
<path d="M34.9401 134.62L35.3142 134.997L35.4024 135.662L34.9259 136.141L34.2642 136.242L33.7966 135.771L33.7057 135.392L34.5607 134.814L34.9401 134.62Z" fill="#FDFDFD"/>
<path d="M55.8666 158L56.2434 158.092L56.7109 158.563L56.6112 159.134L56.2291 159.612L55.7562 159.711L55.1933 159.336L55.1969 158.956L55.8666 158Z" fill="#FDFDFD"/>
<path d="M139.021 159.154L139.587 159.149L140.054 159.715L140.049 160.19L139.383 160.766L139.007 160.58L138.448 159.824L138.64 159.443L139.021 159.154Z" fill="#FDFDFD"/>
<path d="M87.8306 50.9945L88.1111 51.277L88.8495 53.076L88.8468 53.3611L88.5645 53.2686L88.2866 52.7009L87.4369 52.7085L87.1484 53.2813L86.8652 53.2838L87.3488 52.0441L87.8306 50.9945Z" fill="#FDFDFD"/>
<path d="M103.785 50.8514L103.974 50.8497L104.805 52.8379L104.801 53.218L104.519 53.1255L104.337 52.462L103.392 52.4704L103.198 53.0423L103.102 53.2333L102.82 53.1408L103.496 51.5192L103.785 50.8514Z" fill="#FDFDFD"/>
<path d="M82.0788 171.354L82.9276 171.441L83.1155 171.535L83.2046 172.104L83.0104 172.676L82.8207 172.773L82.0655 172.779L81.8775 172.686L81.8846 171.926L82.0788 171.354Z" fill="#FDFDFD"/>
<path d="M137.999 157.358L138.469 157.638L138.655 157.922L138.65 158.397L137.984 158.973L137.516 158.502L137.145 157.84L137.715 157.455L137.999 157.358Z" fill="#FDFDFD"/>
<path d="M91.0404 50.9655L91.2292 50.9638L91.3067 52.7686L91.5872 53.0512L92.0602 52.9519L92.2516 52.6651L92.362 50.9536L92.6444 51.0461L92.6301 52.5667L92.3407 53.2345L92.151 53.3312L91.3958 53.338L91.0208 53.0563L90.9291 52.772L90.9451 51.0613L91.0404 50.9655Z" fill="#FDFDFD"/>
<path d="M82.476 169.26L83.3248 169.347L83.5109 169.63L83.4094 170.392L83.2188 170.583L82.4635 170.59L82.2756 170.497L82.3807 169.355L82.476 169.26Z" fill="#FDFDFD"/>
<path d="M94.439 50.9351L95.3831 50.9266L95.758 51.2084L95.7562 51.3984L95.1916 51.2135L94.6251 51.2185L94.1496 51.6029L94.0489 52.269L94.2333 52.7425L94.7027 53.0234L95.3644 52.9224L95.7429 52.824L95.5505 53.2059L95.3608 53.3026L94.4168 53.3111L93.7613 52.7468L93.6695 52.4625L93.6757 51.7972L93.9634 51.3195L94.439 50.9351Z" fill="#FDFDFD"/>
<path d="M117.798 26.2077L117.892 26.2069L117.875 28.1076L117.027 27.9252L116.935 27.6409L117.798 26.2077Z" fill="#FDFDFD"/>
<path d="M107.467 50.8184L107.844 50.91L108.214 51.6669L108.5 51.3793L108.883 50.8057L109.072 50.804L108.973 51.28L108.494 52.0445L108.389 53.1858L108.107 53.0933L108.023 51.9537L107.465 51.0084L107.467 50.8184Z" fill="#FDFDFD"/>
<path d="M170.034 93.2104L171.731 93.4803L171.823 93.6695L170.119 94.255L170.025 94.1608L170.034 93.2104Z" fill="#FDFDFD"/>
<path d="M100.919 54.4881L101.958 54.4787L101.95 55.3341L102.327 55.3307L102.429 54.5695L102.523 54.5687L102.514 55.5191L101.854 55.525L101.855 55.3349L101.666 55.3366L101.662 55.8118L101.473 55.8135L101.477 55.4333L101.289 55.34L101.384 55.2441L101.389 54.7689L101.011 54.7723L101.007 55.2475L101.099 55.4367L100.817 55.3442L100.726 54.9649L100.919 54.4881Z" fill="#E99E63"/>
<path d="M124.896 165.458L125.364 165.929L126.015 166.968L125.352 167.259L125.068 167.262L124.896 165.458Z" fill="#FDFDFD"/>
<path d="M150.745 147.075L151.215 147.261L152.248 147.822L151.865 148.396L151.58 148.588L150.743 147.265L150.745 147.075Z" fill="#FDFDFD"/>
<path d="M134.477 160.525L135.788 161.654L135.786 161.844L135.216 162.229L134.933 162.232L134.474 160.811L134.477 160.525Z" fill="#FDFDFD"/>
<path d="M166.243 74.6187L166.715 74.6145L166.522 75.0914L165.949 75.8567L165.573 75.6701L165.484 75.1007L165.865 74.7171L166.243 74.6187Z" fill="#FDFDFD"/>
<path d="M89.5272 51.2642L90.0936 51.2591L90.3733 51.6367L90.2744 52.1127L90.0838 52.3045L89.5174 52.3096L89.5272 51.2642Z" fill="#DA5240"/>
<path d="M101.894 51.1533L102.461 51.1482L102.741 51.5258L102.642 52.0019L102.451 52.1937L101.885 52.1987L101.894 51.1533Z" fill="#D95241"/>
<path d="M94.2191 54.2632L94.9743 54.2564L95.1587 54.7299L94.8728 55.0176L94.4008 55.0218L94.3963 55.497L94.2075 55.4987L94.2191 54.2632Z" fill="#E8987A"/>
<path d="M49.6527 156.25L49.9359 156.248L49.8291 157.579L49.3579 157.488L49.1709 157.3L49.2715 156.634L49.6527 156.25Z" fill="#FDFDFD"/>
<path d="M92.0468 54.3776L92.33 54.3751L92.4209 54.7544L92.3203 55.4205L92.5082 55.5138L92.1297 55.6122L92.037 55.423L91.5641 55.5223L91.6665 54.6661L92.0451 54.5677L92.0468 54.3776Z" fill="#E69064"/>
<path d="M168.703 74.0263L169.174 74.1171L169.266 74.4014L168.885 74.7849L168.318 74.79L168.038 74.5074L168.419 74.1239L168.703 74.0263Z" fill="#FDFDFD"/>
<path d="M90.1569 54.5847L90.5345 54.5813L90.7198 54.9598L90.6209 55.4358L90.5248 55.6268L89.9583 55.6318L89.961 55.3467L89.9654 54.8715L90.1569 54.5847Z" fill="#E0704B"/>
<path d="M89.1185 54.5939L89.5905 54.5896L89.6831 54.7789L90.156 54.6796L90.0554 55.3457L90.148 55.5349L89.5825 55.445L89.4899 55.2558L89.0196 55.0699L89.1185 54.5939Z" fill="#E7945F"/>
<path d="M51.2736 154.525L51.7456 154.521L51.8365 154.9L51.36 155.379L50.9824 155.383L50.9868 154.907L51.2736 154.525Z" fill="#FDFDFD"/>
<path d="M96.7636 54.7155L96.8553 54.9997L97.3274 54.9955L97.4244 54.7095L97.5135 55.2789L97.7967 55.2764L97.7941 55.5615L97.4164 55.5649L96.8509 55.4749L96.6647 55.1915L96.7636 54.7155Z" fill="#E99F7C"/>
<path d="M89.412 93.8388L89.7887 93.9304L89.8778 94.4998L89.6872 94.6916L89.2161 94.6008L89.1261 94.1264L89.412 93.8388Z" fill="#868686"/>
<path d="M72.0412 93.9945L72.418 94.0862L72.5071 94.6556L72.3165 94.8473L71.8453 94.7565L71.7554 94.2822L72.0412 93.9945Z" fill="#868686"/>
<path d="M92.7059 54.5618L93.1779 54.5575L93.267 55.1269L92.6997 55.227L92.6979 55.4171L93.1699 55.4129L93.1682 55.603L92.6961 55.6072L92.51 55.3238L92.5144 54.8486L92.7059 54.5618Z" fill="#EAA271"/>
<path d="M85.6358 93.8728L86.0125 93.9645L86.1978 94.3429L86.1007 94.6289L85.6278 94.7282L85.4407 94.5398L85.4452 94.0646L85.6358 93.8728Z" fill="#868686"/>
<path d="M102.711 54.6622L102.803 54.9465L103.275 54.9423L103.372 54.6563L103.46 55.3207L102.798 55.5167L102.611 55.2333L102.711 54.6622Z" fill="#EA9F7A"/>
<path d="M88.739 54.7876L89.0223 54.7851L89.0196 55.0702L89.5843 55.2552L89.5816 55.5403L89.2975 55.6379L88.7328 55.4529L88.739 54.7876Z" fill="#E48351"/>
<path d="M101.012 54.6774L101.483 54.7682L101.479 55.2434L101.381 55.5293L100.909 55.5336L100.912 55.2484L100.917 54.7733L101.012 54.6774Z" fill="#DA5140"/>
<path d="M95.7269 54.5349L96.4813 54.6232L96.1954 54.9108L96.0956 55.4819L95.7171 55.5803L95.5301 55.392L95.6254 55.2961L95.7269 54.5349Z" fill="#EA9F55"/>
<path d="M87.42 54.5144L87.608 54.6078L87.8823 55.5556L87.6009 55.3681L86.94 55.374L86.8438 55.5649L86.9427 55.0889L87.1333 54.8971L87.1315 55.0872L87.51 54.9888L87.42 54.5144Z" fill="#F2C8A7"/>
<path d="M88.0826 54.3184L88.2715 54.3167L88.2688 54.6018L88.7408 54.5975L88.739 54.7876L88.267 54.7919L88.2608 55.4571L88.0711 55.5539L88.0826 54.3184Z" fill="#F0C199"/>
<path d="M87.8243 51.6599L88.0132 51.6582L88.1957 52.3218L87.6293 52.3269L87.7282 51.8508L87.8243 51.6599Z" fill="#DA6344"/>
<path d="M92.1404 54.4717L92.4209 54.7543L92.3203 55.4204L92.5082 55.5137L92.1297 55.6121L92.1404 54.4717Z" fill="#EDB089"/>
<path d="M103.779 51.5164L103.968 51.5147L104.15 52.1782L103.584 52.1833L103.779 51.5164Z" fill="#DD6142"/>
</g>
<defs>
<clipPath id="clip0_7228_17911">
<rect width="194" height="194" fill="white" transform="matrix(0.996619 -0.00894209 -0.00938813 1.00329 1.82129 1.87549)"/>
</clipPath>
</defs>
</svg>
