<svg width="20" height="20" viewBox="0 0 20 20" fill="none" xmlns="http://www.w3.org/2000/svg">
<path fill-rule="evenodd" clip-rule="evenodd" d="M10.0001 1C8.17212 1 6.37712 1.149 4.62912 1.435C4.45354 1.4637 4.29388 1.55389 4.17866 1.68944C4.06344 1.825 4.00016 1.99709 4.00012 2.175V2.562C3.17312 2.719 2.35812 2.907 1.55512 3.126C1.40065 3.16818 1.26373 3.25869 1.16441 3.38429C1.06508 3.50988 1.00856 3.66397 1.00312 3.824C0.958262 5.09425 1.39885 6.3339 2.23531 7.29091C3.07177 8.24792 4.2413 8.85045 5.50612 8.976C6.28764 9.85975 7.31235 10.4935 8.45212 10.798C8.35821 11.5671 8.12651 12.313 7.76812 13H7.50012C7.10229 13 6.72076 13.158 6.43946 13.4393C6.15815 13.7206 6.00012 14.1022 6.00012 14.5V17H5.25012C4.56012 17 4.00012 17.56 4.00012 18.25C4.00012 18.664 4.33612 19 4.75012 19H15.2501C15.449 19 15.6398 18.921 15.7804 18.7803C15.9211 18.6397 16.0001 18.4489 16.0001 18.25C16.0001 17.56 15.4401 17 14.7501 17H14.0001V14.5C14.0001 14.1022 13.8421 13.7206 13.5608 13.4393C13.2795 13.158 12.8979 13 12.5001 13H12.2321C11.8738 12.313 11.6421 11.5671 11.5481 10.798C12.6879 10.4935 13.7126 9.85975 14.4941 8.976C15.7589 8.85045 16.9285 8.24792 17.7649 7.29091C18.6014 6.3339 19.042 5.09425 18.9971 3.824C18.9917 3.66397 18.9352 3.50988 18.8358 3.38429C18.7365 3.25869 18.5996 3.16818 18.4451 3.126C17.6379 2.90591 16.8222 2.71777 16.0001 2.562V2.175C16.0001 1.99709 15.9368 1.825 15.8216 1.68944C15.7064 1.55389 15.5467 1.4637 15.3711 1.435C13.5955 1.14483 11.7993 0.99935 10.0001 1ZM2.52512 4.422C3.01212 4.3 3.50412 4.19 4.00012 4.09V5C4.00012 5.74 4.13412 6.448 4.38012 7.103C3.87687 6.84007 3.44508 6.45875 3.12193 5.99189C2.79879 5.52502 2.59397 4.9856 2.52512 4.422ZM17.4751 4.422C17.4064 4.98551 17.2017 5.52386 16.8787 5.99072C16.5558 6.45758 16.1242 6.83895 15.6211 7.102C15.8661 6.449 16.0001 5.74 16.0001 5V4.09C16.4961 4.189 16.9881 4.3 17.4751 4.422Z" fill="#545557"/>
</svg>
